<?xml version="1.0" standalone="no"?><!DOCTYPE svg PUBLIC "-//W3C//DTD SVG 1.1//EN" "http://www.w3.org/Graphics/SVG/1.1/DTD/svg11.dtd" ><svg xmlns="http://www.w3.org/2000/svg"><metadata></metadata><defs><font id="DFPOP2GB Std W9:Version 1.301" horiz-adv-x="1000"><font-face font-family="POP设计字体" font-weight="400" font-stretch="normal" units-per-em="1000" panose-1="4 11 9 0 0 0 0 0 0 0" ascent="860" descent="-140" x-height="0" bbox="0 -140 1000 860" underline-thickness="50" underline-position="-100" unicode-range="U+0020-ff5e" /><missing-glyph horiz-adv-x="1000"  /><glyph glyph-name="" unicode="!" d="M281 692 l-81 -492 l-105 0 l32 492 l154 0 ZM214 81 q0 -33 -24 -57 q-24 -24 -57 -24 q-33 0 -57 24 q-24 24 -24 57 q0 33 24 57 q25 23 57 23 q32 0 57 -23 q24 -24 24 -57 Z" /><glyph glyph-name="" unicode="&quot;" d="M260 692 l-34 -206 l-25 0 l-34 206 l93 0 ZM123 692 l-34 -206 l-25 0 l-34 206 l93 0 Z" /><glyph glyph-name="" unicode="#" d="M640 139 l-143 0 l-22 -139 l-108 0 l22 139 l-162 0 l-22 -139 l-108 0 l22 139 l-79 0 l0 113 l97 0 l29 187 l-126 0 l0 113 l144 0 l22 140 l108 0 l-22 -140 l162 0 l22 140 l107 0 l-21 -140 l78 0 l0 -113 l-96 0 l-29 -187 l125 0 l0 -113 ZM436 439 l-162 0 l-29 -187 l161 0 l30 187 Z" /><glyph glyph-name="" unicode="$" d="M600 603 q-13 -19 -67 -87 q-14 -17 -31 -17 q-9 0 -54 17 q-57 18 -62 21 l-1 -129 q95 -35 140 -70 q70 -55 70 -132 q0 -76 -71 -130 q-62 -47 -144 -58 l0 -69 l-94 1 q0 49 1 73 q-52 13 -120 50 q-87 45 -87 80 q0 49 3 152 q77 -125 205 -155 q0 80 2 145 q-98 42 -137 73 q-67 54 -67 132 q0 75 68 125 q60 44 140 51 l-1 45 q47 -2 94 -2 l0 -50 q57 -11 114 -34 q82 -35 99 -32 ZM292 548 q-63 -4 -63 -45 q0 -30 63 -60 l0 105 ZM452 195 q0 33 -69 64 q-1 -29 -1 -74 l0 -38 q70 17 70 48 Z" /><glyph glyph-name="" unicode="%" d="M767 156 q0 -64 -46 -110 q-46 -46 -110 -46 q-65 0 -110 46 q-46 45 -46 110 q0 64 46 110 q45 45 110 45 q64 0 110 -45 q46 -48 46 -110 ZM753 625 l-643 -625 l-67 67 l643 625 l67 -67 ZM342 537 q0 -64 -46 -110 q-46 -46 -110 -46 q-65 0 -110 46 q-46 45 -46 110 q0 64 46 109 q46 46 110 46 q62 0 110 -46 q46 -46 46 -109 ZM682 156 q0 27 -20 49 q-22 20 -50 20 q-28 0 -50 -20 q-20 -20 -20 -49 q0 -30 20 -50 q21 -21 50 -21 q29 0 50 21 q20 22 20 50 ZM257 537 q0 28 -21 49 q-22 20 -49 20 q-29 0 -49 -20 q-21 -21 -21 -49 q0 -29 21 -50 q20 -21 49 -21 q28 0 49 21 q21 21 21 50 Z" /><glyph glyph-name="" unicode="&amp;" d="M618 66 q-80 -79 -110 -79 q-14 0 -49 33 q-24 22 -46 46 q-105 -66 -193 -66 q-78 0 -131 43 q-59 46 -59 121 q0 114 140 200 q-57 104 -57 167 q0 75 52 120 q50 41 127 41 q69 0 123 -39 q58 -46 58 -111 q0 -59 -42 -116 q-27 -36 -89 -91 q39 -54 83 -101 q23 26 48 68 q30 51 24 75 q15 -21 42 -63 q32 -52 32 -61 q0 -13 -27 -52 q-20 -32 -37 -52 q34 -34 51 -50 q36 -31 60 -33 ZM343 527 q0 16 -13 35 q-13 16 -30 16 q-24 0 -38 -18 q-15 -18 -15 -42 q0 -27 30 -81 q66 54 66 90 ZM331 149 q-35 37 -91 111 q-81 -54 -81 -95 q0 -25 19 -40 q18 -15 44 -15 q40 0 109 39 Z" /><glyph glyph-name="" unicode="&#39;" d="M208 613 q0 -69 -47 -107 q-35 -29 -64 -34 l-38 30 q39 18 52 35 q-71 7 -71 76 q0 33 24 57 q23 23 57 23 q33 0 60 -24 q27 -24 27 -56 Z" /><glyph glyph-name="" unicode="(" d="M234 -61 q-217 159 -217 419 q0 232 217 394 l82 -79 q-84 -55 -133 -134 q-51 -84 -51 -181 q0 -211 184 -340 l-82 -79 Z" /><glyph glyph-name="" unicode=")" d="M316 358 q0 -259 -217 -419 l-82 79 q184 130 184 340 q0 97 -51 181 q-48 78 -133 134 l82 79 q217 -163 217 -394 Z" /><glyph glyph-name="" unicode="*" d="M420 387 q0 -16 -12 -31 q-12 -16 -26 -16 q-12 0 -135 87 q12 -132 12 -142 q0 -29 -39 -29 q-39 0 -39 29 q0 12 12 142 q-120 -87 -135 -87 q-16 0 -26 16 q-12 15 -12 31 q0 18 33 33 l116 54 l-135 63 q-14 6 -14 24 q0 15 12 31 q11 16 26 16 q12 0 135 -87 q-12 129 -12 142 q0 29 39 29 q39 0 39 -29 q0 -11 -12 -142 q123 87 135 87 q13 0 26 -16 q12 -16 12 -31 q0 -18 -33 -33 l-116 -54 l96 -44 q17 -9 34 -15 q19 -13 19 -28 Z" /><glyph glyph-name="" unicode="+" d="M512 209 l-185 0 l0 -185 l-112 0 l0 185 l-185 0 l0 112 l185 0 l0 185 l112 0 l0 -185 l185 0 l0 -112 Z" /><glyph glyph-name="" unicode="," d="M208 76 q0 -68 -47 -107 q-35 -27 -64 -34 l-38 30 q38 17 52 35 q-71 7 -71 76 q0 33 24 57 q23 23 57 23 q33 0 60 -24 q27 -24 27 -56 Z" /><glyph glyph-name="" unicode="-" d="M291 209 l-250 0 l0 112 l250 0 l0 -112 Z" /><glyph glyph-name="" unicode="." d="M205 81 q0 -33 -24 -57 q-24 -24 -57 -24 q-33 0 -57 24 q-24 24 -24 57 q0 33 24 57 q25 23 57 23 q32 0 57 -23 q24 -24 24 -57 Z" /><glyph glyph-name="" unicode="/" d="M264 740 l-142 -800 l-108 29 l143 806 l107 -35 Z" /><glyph glyph-name="" unicode="0" d="M618 350 q0 -137 -72 -238 q-81 -112 -212 -112 q-131 0 -205 107 q-67 94 -67 230 q0 135 69 238 q78 117 206 117 q52 0 108 -25 q39 -19 94 -58 q14 -10 35 -13 l-25 -22 q41 -61 55 -104 q14 -51 14 -120 ZM489 337 q0 29 -10 76 q-10 46 -27 70 q-12 16 -43 17 l24 25 q-48 48 -92 48 q-71 0 -116 -86 q-37 -71 -37 -150 q0 -76 37 -141 q44 -78 113 -78 q67 0 112 79 q39 66 39 140 Z" /><glyph glyph-name="" unicode="1" d="M430 271 q0 -116 -9 -211 q-6 -54 -44 -54 l-113 -1 q25 15 29 45 q10 73 10 203 q0 36 -5 143 q-4 83 -4 142 q0 18 -6 18 q-2 0 -26 -12 q-23 -13 -32 -13 q-13 0 -27 15 q-13 13 -73 98 q8 -2 29 -2 q36 0 98 25 q64 25 91 25 q56 0 65 -72 q17 -159 17 -349 Z" /><glyph glyph-name="" unicode="2" d="M616 156 q-19 -45 -52 -111 q-13 -20 -23 -27 q-10 -6 -36 -9 q-62 -7 -188 -7 l-89 0 q-124 0 -124 75 q0 38 85 123 l158 154 q86 89 86 135 q0 81 -85 81 q-39 0 -74 -29 q-7 -6 -51 -55 q-26 -29 -43 -29 q-16 0 -117 80 q37 3 60 32 q22 28 34 39 q89 84 196 84 q81 0 145 -49 q70 -55 70 -133 q0 -77 -71 -172 q-45 -62 -131 -141 q-70 -66 -70 -72 q0 -5 20 -5 q140 0 300 36 Z" /><glyph glyph-name="" unicode="3" d="M604 203 q0 -88 -81 -148 q-74 -55 -166 -55 q-199 0 -259 170 q-8 19 -8 39 q0 20 30 32 q8 3 96 24 q-10 -19 -10 -35 q0 -9 4 -17 q18 -42 57 -69 q40 -31 83 -31 q44 0 79 26 q39 27 39 71 q0 93 -146 98 q-17 -2 -47 0 q-31 3 -31 28 l0 99 q12 -18 44 -18 q66 0 95 11 q51 18 51 70 q0 32 -26 55 q-28 22 -59 22 q-41 0 -75 -28 q-17 -13 -46 -51 q-22 -28 -34 -28 q-17 0 -118 52 q20 6 55 54 q38 52 73 78 q57 40 141 40 q84 0 153 -55 q71 -60 71 -143 q0 -63 -62 -120 q97 -70 97 -171 Z" /><glyph glyph-name="" unicode="4" d="M609 173 q0 -28 -5 -38 q-7 -14 -44 -19 l-51 -3 q-1 -23 -6 -70 q-4 -42 -42 -42 l-124 -1 q17 8 22 13 q10 9 13 23 q1 5 8 71 q-156 0 -225 4 q-36 2 -59 25 q-25 22 -25 56 q0 22 15 52 q101 199 166 418 q2 8 2 12 q0 12 -17 31 l114 -36 q28 -12 28 -32 q0 -6 -9 -30 l86 1 q30 0 39 -12 q8 -10 11 -42 q12 -157 9 -325 q10 0 34 3 l32 2 q11 0 27 37 l1 -98 ZM385 320 q0 31 -4 141 q-6 116 -17 129 q-19 -60 -52 -150 q-20 -51 -76 -173 q-14 -29 -14 -34 q0 -12 91 -12 l71 0 l1 99 Z" /><glyph glyph-name="" unicode="5" d="M602 246 q0 -117 -78 -183 q-75 -63 -191 -63 q-80 0 -142 36 q-70 39 -91 112 q-6 18 -6 33 q0 21 18 34 q19 14 52 29 q27 12 57 24 q-15 -21 -15 -33 q0 -45 42 -80 q41 -35 88 -35 q55 0 98 34 q42 33 42 87 q0 56 -34 95 q-35 37 -92 37 q-40 0 -88 -31 q-32 -21 -49 -31 l-135 3 q23 12 28 38 q6 38 6 158 q0 99 -4 135 q-3 21 -28 40 l120 1 q14 0 27 -19 q72 -3 135 -3 q144 0 162 9 q14 6 25 31 q3 -75 3 -110 q0 -34 -50 -40 q-70 -9 -176 -9 q-56 0 -92 1 l-3 -90 q72 28 131 28 q107 0 174 -65 q66 -66 66 -173 Z" /><glyph glyph-name="" unicode="6" d="M599 232 q0 -114 -73 -175 q-69 -57 -184 -57 q-109 0 -182 61 q-79 66 -79 171 q0 271 250 395 q43 21 108 43 q20 5 36 10 q16 6 16 37 q54 -114 54 -120 q0 -23 -36 -35 l-46 -14 q-106 -36 -198 -123 q62 18 96 18 q103 0 168 -53 q70 -58 70 -158 ZM470 231 q0 43 -35 75 q-36 30 -80 30 q-55 0 -93 -24 q-45 -30 -45 -81 q0 -54 35 -85 q35 -31 89 -31 q54 0 91 31 q38 32 38 85 Z" /><glyph glyph-name="" unicode="7" d="M598 613 q0 -30 -37 -107 q-4 -8 -85 -197 q-67 -154 -95 -268 q-2 -6 -2 -14 q0 -24 22 -43 q-68 16 -128 36 q-21 12 -21 31 q0 9 4 21 q84 282 177 470 q11 22 11 28 q0 11 -14 11 q-98 0 -233 -31 q-16 -4 -22 -4 q-15 0 -27 16 q-17 22 -35 59 l-31 62 q35 -13 60 -13 q65 0 168 11 q116 11 169 11 q119 0 119 -79 Z" /><glyph glyph-name="" unicode="8" d="M603 605 q-28 -39 -46 -61 q28 -104 28 -106 q0 -19 -31 -30 q-38 -13 -94 -30 q65 -34 93 -72 q34 -46 34 -111 q0 -91 -84 -147 q-73 -48 -169 -48 q-108 0 -176 47 q-81 54 -81 155 q0 90 95 172 q-77 65 -77 135 q0 82 81 136 q71 47 158 47 q60 0 102 -12 q43 -13 90 -44 q18 -14 28 -20 q17 -13 30 -13 q9 0 19 2 ZM482 519 q-79 59 -145 59 q-33 0 -66 -14 q-39 -18 -39 -48 q0 -22 27 -40 q9 -6 45 -24 q64 30 178 67 ZM449 198 q0 42 -52 73 q-60 24 -90 37 q-94 -51 -94 -99 q0 -94 121 -94 q43 0 76 20 q39 24 39 63 Z" /><glyph glyph-name="" unicode="9" d="M497 440 l91 -55 q-28 0 -41 -16 q-19 -21 -98 -183 q-77 -157 -77 -179 q0 -13 13 -29 q-48 15 -113 40 q-26 12 -26 31 q0 20 93 212 q-34 -7 -67 -7 q-100 0 -159 56 q-59 55 -59 153 q0 105 80 170 q76 59 184 59 q110 0 177 -44 q65 -45 99 -150 q0 -5 7 -14 q5 -10 24 -13 l-128 -31 ZM473 450 q-7 18 -24 57 q-35 62 -132 62 q-49 0 -86 -28 q-40 -31 -40 -78 q0 -95 114 -95 q52 0 84 19 q18 11 43 37 q22 22 41 26 Z" /><glyph glyph-name="" unicode=":" d="M204 431 q0 -33 -24 -57 q-23 -23 -57 -23 q-35 0 -57 23 q-23 22 -23 57 q0 34 23 57 q23 24 57 24 q33 0 57 -24 q24 -24 24 -57 ZM204 80 q0 -33 -24 -56 q-24 -24 -57 -24 q-35 0 -57 23 q-23 22 -23 57 q0 35 23 58 q23 23 57 23 q32 0 57 -23 q24 -24 24 -58 Z" /><glyph glyph-name="" unicode=";" d="M205 431 q0 -33 -24 -57 q-23 -23 -57 -23 q-35 0 -57 23 q-23 22 -23 57 q0 34 23 57 q23 24 57 24 q34 0 58 -24 q23 -25 23 -57 ZM208 76 q0 -68 -47 -107 q-35 -27 -64 -34 l-38 30 q38 17 52 35 q-71 7 -71 76 q0 33 24 57 q23 23 57 23 q33 0 60 -24 q27 -24 27 -56 Z" /><glyph glyph-name="" unicode="&lt;" d="M522 100 l-56 -99 l-446 267 l446 261 l56 -99 l-278 -163 l278 -167 Z" /><glyph glyph-name="" unicode="=" d="M501 311 l-460 0 l0 112 l460 0 l0 -112 ZM501 107 l-460 0 l0 112 l460 0 l0 -112 Z" /><glyph glyph-name="" unicode="&gt;" d="M522 268 l-446 -267 l-56 99 l278 167 l-278 163 l56 99 l446 -261 Z" /><glyph glyph-name="" unicode="?" d="M409 522 q0 -57 -33 -108 q-21 -33 -74 -86 q-28 -28 -37 -55 q-8 -21 -8 -65 l-106 0 l0 6 q0 67 13 100 q13 32 61 80 q82 84 82 128 q0 63 -67 63 q-65 0 -101 -27 q-14 -10 -20 -10 q-13 0 -69 90 q12 2 37 16 q70 38 153 38 q76 0 124 -46 q45 -46 45 -124 ZM287 81 q0 -33 -24 -57 q-24 -24 -57 -24 q-33 0 -57 24 q-24 24 -24 57 q0 33 24 57 q25 23 57 23 q32 0 57 -23 q24 -24 24 -57 Z" /><glyph glyph-name="" unicode="@" d="M767 352 q0 -85 -45 -145 q-49 -68 -130 -68 q-54 0 -101 34 q-59 -37 -113 -37 q-76 0 -126 57 q-47 53 -47 131 q0 80 46 132 q48 56 126 56 q41 0 71 -8 q-3 8 -21 23 l102 0 q21 0 33 -20 q11 -22 11 -141 q0 -16 -3 -48 q-2 -22 -2 -49 q0 -25 29 -25 q30 0 43 42 q10 32 10 68 q0 95 -74 166 q-73 69 -170 69 q-113 0 -184 -72 q-72 -72 -72 -185 q0 -116 90 -176 q77 -53 198 -53 q95 0 149 24 q-2 -2 -54 -94 q-11 -20 -15 -22 q-5 -4 -26 -7 q-21 -4 -74 -4 q-155 0 -268 93 q-120 99 -120 252 q0 152 109 251 q105 96 259 96 q148 0 257 -94 q112 -100 112 -246 ZM444 330 q0 28 -14 50 q-17 25 -43 25 q-62 0 -62 -73 q0 -87 60 -87 q30 0 46 29 q13 26 13 56 Z" /><glyph glyph-name="" unicode="A" d="M719 63 q-22 -15 -63 -36 q-51 -27 -61 -27 q-18 0 -33 21 q-13 20 -54 100 q-24 -2 -85 -2 l-82 0 q-64 0 -109 3 q-14 -28 -53 -99 q-13 -20 -31 -20 q-22 0 -133 49 l23 4 q13 3 18 11 l28 48 q114 205 208 460 q36 99 36 104 q0 12 -32 32 q48 -6 130 -24 q24 -9 24 -33 q0 -9 -6 -27 q47 -158 137 -353 q31 -73 88 -185 l13 -17 q6 -9 37 -9 ZM453 239 q-33 72 -81 191 q-22 -52 -83 -191 q20 -1 74 -1 l31 0 q41 0 59 1 Z" /><glyph glyph-name="" unicode="B" d="M616 213 q0 -106 -85 -164 q-74 -49 -186 -49 q-68 0 -143 21 q-12 -19 -50 -19 l-112 0 q17 8 23 14 q10 7 13 22 q3 23 9 105 q6 114 6 211 q0 136 -18 302 q-3 18 -28 36 l117 0 q25 0 38 -22 q91 22 158 22 q94 0 151 -42 q62 -48 62 -139 q0 -84 -68 -131 q46 -24 79 -69 q34 -49 34 -98 ZM441 507 q0 71 -112 71 q-34 0 -117 -22 q5 -63 7 -143 q16 -1 45 -1 q177 0 177 95 ZM485 215 q0 50 -48 74 q-38 20 -92 20 q-53 0 -126 -5 l-5 -171 q69 -18 131 -18 q50 0 92 24 q48 29 48 76 Z" /><glyph glyph-name="" unicode="C" d="M605 501 q-99 -59 -122 -59 q-18 0 -31 28 q-51 99 -142 99 q-73 0 -118 -80 q-39 -69 -39 -146 q0 -80 40 -145 q46 -76 121 -76 q51 0 107 52 q57 51 57 101 q0 9 -16 38 q48 -36 57 -44 l36 -29 q22 -22 22 -38 q0 -8 -5 -20 q-36 -85 -99 -131 q-67 -51 -155 -51 q-140 0 -220 102 q-73 92 -73 237 q0 130 74 235 q82 118 206 118 q137 0 224 -114 l36 -57 q11 -19 40 -20 Z" /><glyph glyph-name="" unicode="D" d="M622 345 q0 -150 -90 -246 q-93 -99 -241 -99 q-54 0 -102 16 q-12 -16 -42 -16 l-109 0 l14 14 q6 9 9 18 l5 48 q10 132 10 249 q0 108 -10 270 q0 6 -2 26 l-3 35 q-3 16 -29 31 l103 1 q36 0 50 -20 q68 20 119 20 q155 0 240 -97 q78 -91 78 -250 ZM495 345 q0 100 -44 162 q-51 71 -147 71 q-38 0 -107 -20 q8 -120 8 -238 q0 -37 -5 -184 q59 -15 91 -15 q92 0 149 67 q55 64 55 157 Z" /><glyph glyph-name="" unicode="E" d="M609 161 q-16 -47 -48 -125 q-9 -17 -19 -21 q-3 -1 -28 -5 q-74 -10 -209 -10 q-159 0 -205 82 q-33 56 -33 227 q0 173 8 274 q6 47 3 71 q0 16 -38 27 l67 4 l72 0 q22 0 33 -19 q67 -7 152 -7 q95 0 176 13 q31 5 46 32 l1 -82 q0 -23 -2 -37 q-4 -28 -41 -31 q-110 -11 -184 -11 q-90 0 -157 7 q-6 -81 -6 -151 q41 -5 124 -5 q102 0 172 9 q9 0 32 5 q13 3 28 33 l1 -102 l-1 -13 q-3 -22 -13 -28 q-11 -7 -33 -8 q-126 -12 -182 -12 q-60 0 -127 4 q0 -94 3 -106 q6 -38 35 -50 q27 -13 108 -13 q108 0 208 22 q29 6 57 26 Z" /><glyph glyph-name="" unicode="F" d="M575 606 q0 -36 -40 -42 q-93 -15 -319 -12 q5 -82 5 -163 q16 -1 55 -1 q138 0 224 10 q24 3 33 9 q10 7 21 26 l2 -109 q0 -32 -42 -38 q-112 -17 -294 -14 l-4 -113 q-4 -57 -11 -113 q-6 -39 -43 -39 q-49 0 -112 3 q19 16 22 29 q6 26 12 100 q6 81 6 247 q0 95 -7 198 q-1 23 -8 81 q-3 12 -35 23 q62 5 122 5 q30 0 40 -24 q48 -3 86 -3 q140 0 244 13 q27 3 42 27 l1 -100 Z" /><glyph glyph-name="" unicode="G" d="M635 463 q-116 -32 -125 -32 q-22 0 -32 22 l-18 37 q-48 87 -126 87 q-85 0 -135 -81 q-43 -68 -43 -160 q0 -80 41 -142 q46 -73 121 -73 q41 0 91 19 q55 22 76 51 l0 26 q0 45 -39 45 l-36 -2 q-16 -1 -36 -1 q-25 0 -36 17 q-14 21 -26 53 l-21 56 q78 -15 217 -15 q53 0 72 -18 q19 -19 23 -70 q2 -34 2 -71 q0 -109 -8 -165 q-7 -46 -39 -46 l-117 0 q16 8 35 27 l2 12 q-84 -39 -162 -39 q-131 0 -212 105 q-74 95 -74 231 q0 146 78 246 q84 110 227 110 q160 0 234 -133 q9 -24 30 -69 q9 -19 36 -27 Z" /><glyph glyph-name="" unicode="H" d="M645 288 q0 -121 -9 -226 q-3 -31 -8 -41 q-9 -18 -35 -18 l-62 0 q-42 0 -66 1 q14 6 34 21 q17 29 18 283 q-45 -3 -103 -3 q-99 0 -175 5 q0 -78 -7 -187 l-8 -78 q-3 -26 -10 -33 q-9 -9 -34 -9 q-54 0 -130 4 q18 7 38 18 q8 15 15 136 q7 119 7 144 q0 132 -7 261 l-7 87 q-3 17 -37 35 l105 1 q30 0 39 -3 q16 -6 21 -32 l6 -65 q5 -78 7 -164 q81 -4 163 -4 q64 0 113 3 q-2 83 -16 221 q-3 25 -41 43 l116 1 l21 -1 q32 -3 37 -49 q15 -165 15 -351 Z" /><glyph glyph-name="" unicode="I" d="M258 354 q0 -185 -14 -313 q-3 -28 -19 -34 q-9 -3 -40 -3 l-24 0 q-57 0 -87 1 l23 12 q12 8 15 21 l7 95 q8 112 8 178 q0 232 -17 348 q-3 16 -29 30 l127 0 q29 0 35 -37 l5 -59 q10 -130 10 -239 Z" /><glyph glyph-name="" unicode="J" d="M494 317 q0 -157 -40 -220 q-63 -97 -186 -97 q-159 0 -225 139 q-13 26 -13 42 q0 16 17 27 q-9 -4 107 62 q-13 -27 -13 -46 q0 -8 3 -17 q13 -42 47 -66 q31 -25 74 -25 q99 0 99 200 l0 87 q0 110 -5 187 l-5 58 q-5 25 -39 41 l131 0 q34 0 40 -46 q8 -85 8 -326 Z" /><glyph glyph-name="" unicode="K" d="M654 98 q-106 -94 -130 -94 q-33 0 -159 125 q-90 85 -155 160 q-3 -98 -9 -179 l-3 -49 q-4 -36 -11 -46 q-9 -12 -40 -12 q-91 0 -117 1 q30 18 35 41 q4 40 8 91 q9 114 9 225 q0 104 -7 212 q-1 22 -6 73 q-4 25 -34 43 l122 0 q33 0 39 -40 q5 -40 12 -195 q136 89 205 152 q16 13 43 43 q8 16 5 41 l89 -80 q13 -16 13 -27 q0 -11 -11 -24 q-29 -35 -105 -94 q-74 -58 -115 -84 q-16 -10 -16 -12 q0 -5 13 -19 q123 -149 259 -239 q23 -16 66 -13 Z" /><glyph glyph-name="" unicode="L" d="M544 57 q-10 -16 -23 -20 q-35 -13 -118 -23 q-73 -11 -122 -11 q-147 0 -192 78 q-33 54 -33 211 q0 61 9 182 q9 120 9 180 q0 17 -24 35 l118 0 q36 0 36 -43 q0 -66 -9 -195 q-9 -130 -9 -196 q0 -68 14 -93 q21 -39 81 -39 q120 0 309 63 l-46 -129 Z" /><glyph glyph-name="" unicode="M" d="M702 333 q0 -187 -9 -286 q-4 -43 -42 -43 l-120 0 q30 21 33 48 q9 84 9 248 l-1 108 q-34 -57 -117 -186 q-27 -42 -30 -42 l-66 0 q-11 0 -34 41 q-58 98 -104 167 l0 -8 q0 -88 -6 -211 q-1 -39 -6 -122 q-3 -35 -25 -41 q-5 -2 -53 -2 q-57 0 -78 1 q23 19 26 30 q0 9 2 26 q12 174 12 302 q0 24 -4 160 q-6 128 -12 145 q-3 8 -27 21 l114 0 q11 0 23 -14 q5 -9 15 -23 q54 -77 193 -285 q26 37 95 147 q80 128 80 140 q0 15 -32 35 l128 0 q17 0 23 -31 q1 -3 4 -44 q9 -138 9 -281 Z" /><glyph glyph-name="" unicode="N" d="M661 317 q0 -106 -6 -201 l-5 -72 q-7 -40 -25 -40 l-145 0 q29 21 29 44 q0 5 -2 9 q-17 21 -52 70 l-100 137 q-73 96 -128 160 l0 -46 q0 -120 -4 -227 q-1 -33 -6 -104 q-6 -44 -40 -44 l-127 0 q32 18 35 51 q13 140 13 354 l-2 104 q-2 46 -2 104 q0 42 -44 72 l124 0 q8 0 31 -26 q209 -251 325 -424 l0 56 q0 200 -16 344 q-4 29 -45 50 l131 0 q23 0 33 -10 q9 -12 12 -37 l8 -94 q8 -126 8 -230 Z" /><glyph glyph-name="" unicode="O" d="M630 340 q0 -150 -75 -242 q-82 -98 -229 -98 q-140 0 -221 102 q-75 93 -75 238 q0 135 79 239 q86 113 217 113 q122 0 212 -79 q16 -18 36 -38 q18 -20 50 -17 l-36 -25 q42 -84 42 -193 ZM500 340 q0 80 -34 131 q-11 14 -47 17 l36 22 q-64 58 -129 58 q-75 0 -124 -79 q-41 -67 -41 -149 q0 -84 41 -146 q45 -73 124 -73 q82 0 131 71 q43 63 43 148 Z" /><glyph glyph-name="" unicode="P" d="M611 466 q0 -240 -292 -240 q-42 0 -95 6 q-1 -53 -11 -183 q-5 -25 -12 -34 q-9 -10 -31 -10 l-130 0 q35 17 41 46 q3 19 9 86 q7 103 7 212 q0 139 -8 237 q-2 10 -7 61 q-6 26 -36 44 l124 0 q25 0 36 -17 q69 18 134 18 q114 0 189 -54 q82 -62 82 -172 ZM478 466 q0 108 -147 108 q-55 0 -112 -15 q8 -152 8 -211 q41 -7 86 -7 q165 0 165 125 Z" /><glyph glyph-name="" unicode="Q" d="M680 134 q-21 -25 -63 -70 q4 5 -28 -30 q-14 -13 -28 -13 q-16 0 -52 33 q-75 -54 -180 -54 q-142 0 -222 101 q-77 92 -77 237 q0 144 77 243 q84 111 222 111 q126 0 217 -88 q14 -18 41 -46 q10 -12 50 -21 l-15 -9 q-13 -7 -22 -13 q43 -89 43 -177 q0 -101 -47 -186 q26 -22 55 -22 q13 0 29 4 ZM515 338 q0 68 -38 129 q-11 15 -55 14 l12 7 q13 8 26 15 q-31 37 -57 52 q-32 16 -74 16 q-81 0 -128 -79 q-40 -68 -40 -154 q0 -87 41 -149 q46 -74 127 -74 q45 0 86 22 q-33 30 -54 57 q-14 14 -14 29 q0 12 10 23 q9 11 92 92 q-5 -15 -5 -29 q0 -16 9 -25 q9 -12 47 -48 q15 45 15 102 Z" /><glyph glyph-name="" unicode="R" d="M664 74 q-116 -76 -134 -76 q-16 0 -32 19 q-15 17 -49 75 q-19 31 -89 166 q-11 -1 -37 -1 q-38 0 -102 7 q-3 -145 -16 -221 q-7 -37 -37 -37 l-128 0 q30 18 36 46 l8 72 q10 127 10 229 q0 128 -5 215 q-2 37 -7 85 q-4 21 -41 39 l139 0 q20 0 30 -16 q77 16 119 16 q287 0 287 -219 q0 -122 -129 -185 q77 -140 122 -190 q14 -17 55 -24 ZM490 473 q0 106 -161 106 q-33 0 -110 -16 q5 -70 5 -187 q42 -7 83 -7 q67 0 116 20 q67 27 67 84 Z" /><glyph glyph-name="" unicode="S" d="M586 616 q-23 -38 -64 -100 q-12 -16 -24 -16 q-11 0 -51 23 q-52 26 -55 29 q-61 27 -115 27 q-35 0 -64 -16 q-34 -18 -34 -52 q0 -56 56 -74 q30 -11 68 -16 q64 -11 69 -11 q200 -42 200 -201 q0 -106 -88 -162 q-73 -47 -186 -47 q-70 0 -156 24 q-112 31 -112 83 l0 131 q36 -53 121 -86 q74 -32 147 -32 q51 0 91 18 q51 23 51 68 q0 29 -31 54 q-25 18 -60 27 l-71 15 q-44 8 -70 14 q-79 20 -117 57 q-49 46 -49 134 q0 83 78 137 q69 48 157 48 q117 0 209 -46 q21 -13 51 -29 q11 -6 23 -6 q15 0 26 5 Z" /><glyph glyph-name="" unicode="T" d="M595 604 q0 -38 -41 -43 q-45 -6 -172 -9 q8 -147 8 -235 l0 -15 q-1 -174 -12 -249 q-7 -47 -50 -47 l-130 0 q18 8 29 17 q11 8 14 28 q13 104 13 317 q0 96 -7 185 q-107 0 -182 8 q-40 3 -43 45 q-2 11 -2 100 q19 -22 38 -24 q101 -12 254 -12 q94 0 170 5 q29 0 72 4 q21 2 42 30 l-1 -105 Z" /><glyph glyph-name="" unicode="U" d="M615 432 q0 -48 -4 -142 q-9 -149 -65 -214 q-64 -76 -208 -76 q-128 0 -192 71 q-65 69 -65 199 q0 30 3 90 l2 90 q0 115 -8 193 q-3 25 -28 44 l121 0 q33 0 37 -51 q5 -73 5 -181 l-2 -87 q-2 -39 -2 -87 q0 -70 27 -112 q31 -52 97 -52 q84 0 117 46 q25 38 31 128 q3 45 3 113 q0 33 -4 169 q0 26 -3 77 q-3 19 -36 37 l130 0 q31 0 36 -41 q8 -83 8 -214 Z" /><glyph glyph-name="" unicode="V" d="M662 636 q0 -46 -92 -277 q-77 -189 -124 -289 l-18 -38 q-15 -25 -29 -25 l-84 1 q-18 0 -42 73 q-68 201 -127 352 q-21 53 -57 137 q-4 10 -21 44 q-13 21 -53 27 q117 51 131 51 q21 0 38 -29 q19 -38 53 -116 q79 -184 127 -339 q173 421 173 454 q0 16 -22 38 q40 -9 121 -33 q26 -12 26 -31 Z" /><glyph glyph-name="" unicode="W" d="M731 616 q-42 -240 -136 -547 q-19 -61 -35 -61 l-51 0 q-16 0 -26 25 q-2 2 -13 39 q-30 96 -75 257 q-37 -96 -99 -265 l-12 -34 q-10 -22 -25 -22 l-45 0 q-27 0 -36 60 q-29 204 -67 366 q-11 47 -52 189 q-12 28 -44 37 q125 32 132 32 q21 0 35 -31 q25 -62 47 -152 q20 -96 34 -157 q42 116 70 227 q3 19 17 60 q12 26 54 26 l16 0 q19 0 34 -34 q9 -26 20 -74 q17 -80 60 -233 q26 90 54 219 q20 94 20 117 q0 18 -27 42 l118 -27 q34 -11 34 -39 l-2 -20 Z" /><glyph glyph-name="" unicode="X" d="M646 93 q0 -15 -14 -27 q-25 -21 -55 -41 l-57 -37 q12 21 12 38 q0 24 -170 239 q-19 -21 -94 -121 q-57 -75 -99 -117 q-17 -17 -30 -17 q-14 0 -62 39 q-35 26 -62 51 q6 -1 18 -1 q27 0 41 13 q15 14 62 68 q-9 -11 143 187 q-57 74 -149 183 l-38 38 q-14 11 -27 11 q-7 0 -27 -4 q38 38 88 83 q17 14 30 14 q15 0 34 -19 q68 -73 170 -198 q26 36 69 102 q55 86 55 96 q0 11 -13 34 q30 -15 110 -65 q14 -12 14 -26 q0 -14 -13 -37 q-69 -116 -138 -208 q76 -94 114 -140 q88 -114 88 -138 Z" /><glyph glyph-name="" unicode="Y" d="M663 614 q0 -26 -100 -156 q-82 -107 -129 -157 l2 -137 q0 -75 -3 -113 q-3 -26 -8 -33 q-9 -13 -31 -13 l-126 0 q34 17 37 46 q2 24 2 88 l-1 81 q-2 36 -2 80 q-49 69 -168 226 q-12 15 -64 74 q-21 20 -57 17 q113 75 129 75 q11 0 32 -19 q43 -45 102 -122 q106 -142 95 -128 q29 32 99 124 q78 104 78 120 q0 14 -16 43 q29 -16 114 -70 q15 -12 15 -26 Z" /><glyph glyph-name="" unicode="Z" d="M591 154 q-19 -50 -55 -122 q-8 -14 -32 -17 q-87 -11 -209 -11 q-54 0 -112 5 q-93 6 -102 14 q-29 20 -58 81 q-3 6 -3 11 q0 18 35 53 q167 168 309 369 q12 17 12 25 q0 10 -21 10 q-76 0 -218 -17 q-11 -2 -27 -2 q-24 0 -36 23 l-46 105 q33 -5 72 -5 q41 0 123 6 q95 7 122 7 q42 0 90 -3 q41 -3 63 -18 q15 -13 44 -49 q6 -9 6 -16 q0 -55 -191 -290 q-57 -64 -138 -160 q-10 -11 -10 -18 q0 -12 71 -12 q163 0 269 16 q20 3 42 15 Z" /><glyph glyph-name="" unicode="[" d="M314 -63 l-295 0 l0 813 l295 0 l0 -116 l-175 0 l0 -581 l175 0 l0 -116 Z" /><glyph glyph-name="" unicode="]" d="M314 -63 l-295 0 l0 116 l175 0 l0 581 l-175 0 l0 116 l295 0 l0 -813 Z" /><glyph glyph-name="" unicode="_" d="M500 -140 l-500 0 l0 112 l500 0 l0 -112 Z" /><glyph glyph-name="" unicode="`" d="M40 553 q0 69 47 107 q35 28 64 34 l38 -30 q-40 -18 -52 -35 q71 -9 71 -76 q0 -34 -24 -57 q-23 -23 -57 -23 q-33 0 -60 24 q-27 23 -27 56 Z" /><glyph glyph-name="" unicode="a" d="M511 232 q0 -108 -10 -180 q-9 -51 -43 -51 l-98 0 q20 18 23 43 q-59 -44 -132 -44 q-226 0 -226 173 q0 91 80 143 q69 45 165 45 q72 0 119 -5 q-18 58 -96 58 q-52 0 -136 -28 q-18 -6 -27 -6 q-12 0 -21 10 q-17 19 -38 59 q-16 28 -34 64 q32 -7 63 -7 q32 0 95 12 q62 12 94 12 q222 0 222 -220 l0 -78 ZM391 242 q-57 11 -120 11 q-41 0 -76 -20 q-40 -24 -40 -62 q0 -60 96 -60 q44 0 137 48 q0 28 3 83 Z" /><glyph glyph-name="" unicode="b" d="M556 252 q0 -114 -73 -184 q-71 -68 -187 -68 q-51 0 -105 18 q-12 -19 -32 -19 l-129 0 q30 18 42 78 q8 37 8 113 q-3 222 -3 99 q0 183 -17 347 q-3 28 -35 49 l117 0 q40 0 46 -42 q5 -34 13 -140 q57 22 109 22 q124 0 188 -76 q58 -72 58 -197 ZM432 253 q0 154 -122 154 q-55 0 -104 -26 l1 -87 q0 -89 -5 -154 q49 -23 94 -23 q56 0 96 40 q40 40 40 96 Z" /><glyph glyph-name="" unicode="c" d="M489 391 q-99 -69 -110 -69 q-17 0 -34 24 l-34 45 q-25 24 -59 24 q-55 0 -82 -53 q-23 -42 -23 -102 q0 -54 25 -95 q29 -50 80 -50 q64 0 100 86 q4 12 4 18 q0 18 -18 36 q59 -14 112 -29 q30 -12 30 -36 q0 -6 -4 -22 q-51 -168 -224 -168 q-107 0 -172 78 q-60 72 -60 182 q0 116 57 189 q62 81 175 81 q69 0 114 -28 q37 -23 81 -85 q14 -23 42 -26 Z" /><glyph glyph-name="" unicode="d" d="M529 337 q0 -73 -4 -189 l-8 -102 q-3 -25 -11 -35 q-9 -10 -31 -10 l-113 0 q22 21 24 49 q-51 -50 -130 -50 q-103 0 -168 83 q-63 77 -63 180 q0 107 64 183 q66 80 173 80 q64 0 134 -31 q-5 84 -11 150 q-3 21 -36 39 q53 3 107 3 q31 0 41 -5 q14 -7 18 -36 q14 -110 14 -309 ZM400 255 q0 155 -121 155 q-62 0 -95 -44 q-31 -40 -31 -103 q0 -58 32 -99 q35 -45 91 -45 q56 0 90 37 q34 37 34 93 l0 6 Z" /><glyph glyph-name="" unicode="e" d="M471 308 q0 -73 -73 -82 q-50 -7 -106 -7 q-49 0 -138 5 q3 -46 26 -75 q26 -36 67 -36 q38 0 59 10 q19 8 41 40 q8 13 8 19 q0 9 -8 22 q20 -6 97 -35 q24 -12 24 -31 q0 -6 -4 -18 q-52 -120 -215 -120 q-111 0 -172 76 q-57 69 -57 182 q0 113 57 189 q62 83 172 83 q101 0 161 -60 q61 -63 61 -162 ZM338 348 q0 33 -26 53 q-27 19 -60 19 q-67 0 -94 -89 q43 -4 121 -4 l27 0 q32 0 32 21 Z" /><glyph glyph-name="" unicode="f" d="M306 605 q-7 -27 -46 -27 l-8 0 q-36 0 -36 -27 q0 -13 5 -48 q50 3 62 9 q12 4 22 28 l0 -102 q0 -24 -4 -34 q-6 -10 -35 -11 q-14 -1 -40 -1 l0 -173 q-3 -101 -9 -173 q-3 -24 -10 -32 q-8 -8 -31 -8 l-122 0 q31 22 34 45 l5 89 q4 120 4 218 l0 32 q-38 0 -52 4 q-27 9 -27 38 l2 103 q27 -34 71 -32 q-3 32 -3 59 q0 87 42 112 q25 14 97 14 q70 0 106 22 l-27 -105 Z" /><glyph glyph-name="" unicode="g" d="M456 268 q-1 -43 -1 -96 q0 -128 -75 -184 q-65 -47 -197 -47 q-19 0 -30 20 q-8 16 -48 104 q27 -12 72 -12 q130 0 148 89 q-49 -36 -89 -36 q-101 0 -155 54 q-56 53 -56 154 q0 92 55 154 q54 62 145 62 q62 0 104 -36 q-3 17 -22 36 l109 0 q32 0 38 -45 q3 -30 3 -120 l-1 -97 ZM327 321 q0 95 -83 95 q-43 0 -67 -29 q-24 -30 -24 -73 q0 -43 24 -70 q24 -27 67 -27 q41 0 63 33 q20 28 20 71 Z" /><glyph glyph-name="" unicode="h" d="M493 242 q0 -38 -4 -188 q-3 -50 -39 -50 l-137 0 q44 12 47 42 q5 110 5 195 q0 68 -3 108 q-6 60 -66 60 q-24 0 -88 -22 l1 -54 q0 -141 -12 -275 q-3 -29 -10 -40 q-10 -14 -38 -14 l-119 0 q37 15 40 41 q10 105 10 236 q0 251 -20 374 q-3 14 -26 35 l115 0 q38 0 44 -42 l11 -142 q80 23 123 23 q64 0 110 -34 q45 -37 51 -101 q5 -72 5 -152 Z" /><glyph glyph-name="" unicode="i" d="M239 625 q0 -28 -22 -47 q-20 -20 -50 -20 q-30 0 -50 20 q-21 18 -21 47 q0 28 21 47 q22 20 50 20 q28 0 50 -20 q22 -20 22 -47 ZM249 242 q0 -94 -6 -193 q-3 -48 -38 -50 l-122 0 q14 7 19 12 q9 9 11 19 q9 156 9 232 q0 73 -6 169 l-4 55 q-1 8 -23 34 l110 1 q37 0 40 -43 q10 -172 10 -236 Z" /><glyph glyph-name="" unicode="j" d="M251 625 q0 -29 -20 -47 q-20 -20 -49 -20 q-29 0 -48 20 q-20 17 -20 47 q0 28 20 47 q20 20 48 20 q27 0 49 -20 q20 -20 20 -47 ZM263 230 q-1 -26 -1 -59 q0 -99 -31 -142 q-33 -44 -129 -64 q-15 -3 -20 -3 q-15 0 -24 18 q-16 33 -48 102 q12 -2 32 -2 q51 0 71 17 q20 17 24 66 q2 36 2 85 q0 216 -14 249 q-6 11 -29 24 l120 0 q30 0 36 -35 q12 -78 12 -197 l-1 -59 Z" /><glyph glyph-name="" unicode="k" d="M590 83 q-113 -83 -127 -83 q-29 0 -99 107 q-9 12 -85 138 l-66 -50 q0 -104 -13 -163 q-7 -28 -32 -28 l-128 0 q31 19 34 41 q3 23 9 114 q6 110 6 239 q0 135 -13 245 q-5 29 -29 47 l115 0 q37 0 43 -46 q7 -64 8 -143 l0 -144 q35 26 135 104 l40 31 q25 21 30 38 q2 6 2 29 q86 -97 86 -109 q0 -17 -20 -35 q-88 -73 -106 -89 q49 -83 82 -129 q65 -101 87 -110 q8 -4 41 -4 Z" /><glyph glyph-name="" unicode="l" d="M255 364 q0 -178 -17 -319 q-3 -26 -9 -32 q-9 -10 -32 -10 l-119 0 q31 22 34 44 q18 147 18 350 q0 126 -11 252 q-3 22 -31 40 l113 0 q39 0 43 -42 q11 -113 11 -283 Z" /><glyph glyph-name="" unicode="m" d="M706 213 q0 -82 -6 -148 q-6 -61 -37 -61 l-128 0 q19 11 25 17 q11 11 12 27 q6 66 6 156 q0 95 -6 152 q-6 56 -66 56 q-26 0 -61 -11 q8 -130 8 -229 q0 -66 -4 -122 q-4 -46 -38 -46 l-129 0 q37 16 40 39 q4 62 4 128 q0 106 -6 184 q-5 58 -69 58 q-25 0 -55 -9 q5 -90 5 -186 q0 -114 -7 -172 q-6 -42 -41 -42 l-123 0 q32 17 35 42 q10 92 10 203 q0 161 -15 251 q-3 14 -29 30 l120 0 q25 0 37 -21 q62 21 116 21 q59 0 104 -39 q54 39 128 39 q64 0 110 -35 q47 -37 53 -101 q7 -101 7 -181 Z" /><glyph glyph-name="" unicode="n" d="M518 208 q0 -82 -3 -151 q-3 -53 -40 -53 l-142 0 q48 13 51 44 q4 82 4 154 q0 70 -4 144 q-3 39 -17 56 q-17 20 -54 20 q-46 0 -112 -32 l1 -118 q0 -147 -8 -221 q-3 -25 -12 -36 q-8 -11 -34 -11 l-110 0 q20 12 26 27 q4 8 7 36 q5 63 5 130 q0 147 -14 292 q-3 24 -32 38 q72 3 121 3 q31 0 43 -27 q81 27 167 27 q55 0 95 -27 q46 -31 52 -82 q10 -95 10 -213 Z" /><glyph glyph-name="" unicode="o" d="M484 260 q0 -116 -58 -186 q-62 -74 -177 -74 q-107 0 -170 78 q-59 71 -59 182 q0 111 58 187 q63 83 171 83 q110 0 185 -87 q18 -22 39 -32 l-26 -12 q37 -62 37 -139 ZM359 260 q0 71 -47 82 q4 3 33 19 q-40 58 -96 58 q-51 0 -81 -57 q-24 -46 -24 -102 q0 -54 26 -97 q30 -54 79 -54 q53 0 84 51 q26 44 26 100 Z" /><glyph glyph-name="" unicode="p" d="M531 293 q0 -106 -66 -165 q-67 -60 -174 -60 q-48 0 -92 17 l-9 -100 q-8 -41 -41 -41 l-119 0 q26 17 29 38 q12 123 12 236 l0 23 q0 52 2 156 q-6 108 -48 132 l85 1 q32 0 44 -2 q21 -4 34 -25 q57 27 103 27 q108 0 175 -64 q65 -63 65 -173 ZM401 291 q0 124 -110 124 q-46 0 -93 -31 q4 -88 4 -183 q33 -21 89 -21 q48 0 79 32 q31 31 31 79 Z" /><glyph glyph-name="" unicode="q" d="M490 241 q0 -77 -9 -184 q-1 -24 -6 -73 q-6 -40 -33 -40 l-131 0 q33 19 39 38 q3 14 6 104 q-49 -18 -92 -18 q-106 0 -172 60 q-67 60 -67 165 q0 105 66 171 q65 66 171 66 q57 0 97 -39 q-2 22 -19 39 l101 0 q38 0 43 -43 q0 -16 3 -84 q3 -85 3 -162 ZM368 309 q0 48 -29 77 q-29 29 -77 29 q-54 0 -81 -35 q-27 -34 -27 -89 q0 -49 31 -79 q30 -31 79 -31 q104 0 104 128 Z" /><glyph glyph-name="" unicode="r" d="M365 478 q0 -17 -36 -122 q-15 54 -59 54 q-47 0 -74 -38 l1 -68 q0 -132 -8 -250 q-3 -29 -7 -35 q-7 -15 -30 -15 q-74 0 -109 1 q27 15 30 36 l3 64 q3 68 3 157 l0 70 q0 105 -8 156 q-5 24 -31 42 l107 0 q33 0 42 -32 q43 31 87 31 q28 0 56 -10 q33 -15 33 -41 Z" /><glyph glyph-name="" unicode="s" d="M426 158 q0 -80 -62 -122 q-54 -36 -138 -36 q-95 0 -153 19 q-40 12 -45 43 q-2 10 -7 116 q74 -62 205 -62 q23 0 44 9 q26 12 26 33 q0 31 -72 50 q-102 26 -132 43 q-72 39 -72 120 q0 74 60 119 q54 40 130 40 q48 0 89 -11 q17 -4 84 -31 q8 -4 14 -4 q11 0 26 9 q-11 -32 -42 -100 q-11 -20 -24 -20 q-8 0 -61 21 q-54 21 -86 21 q-57 0 -57 -44 q0 -27 71 -45 q93 -25 131 -46 q71 -42 71 -122 Z" /><glyph glyph-name="" unicode="t" d="M362 135 q-6 -33 -24 -104 q-8 -23 -31 -26 q-26 -5 -106 -5 q-118 0 -118 153 q0 150 8 233 q-27 2 -51 3 q-25 6 -25 39 l1 107 q6 -16 10 -20 q6 -12 16 -12 q35 -4 59 -5 q2 25 7 146 l0 5 q0 22 -41 37 l123 0 q47 0 47 -44 q0 10 -10 -145 l16 0 q30 -1 65 2 q20 2 33 25 q0 -51 -2 -97 q-3 -35 -41 -38 l-80 -3 q-8 -83 -8 -233 q0 -40 44 -40 q58 0 108 22 Z" /><glyph glyph-name="" unicode="u" d="M493 313 q0 -109 -5 -201 q-2 -33 -7 -77 q-6 -35 -36 -35 l-112 0 q10 11 20 41 q-56 -41 -131 -41 q-171 0 -171 200 q0 32 3 98 q4 88 4 99 q0 58 -5 98 q-3 17 -23 30 l109 0 q33 0 41 -28 q2 -12 2 -55 l-1 -121 q-1 -54 -1 -121 q0 -78 68 -78 q79 0 112 49 q5 140 5 187 q0 63 -4 125 q-3 24 -33 42 l80 0 q64 0 73 -11 q8 -11 10 -34 q2 -52 2 -167 Z" /><glyph glyph-name="" unicode="v" d="M556 467 q0 -35 -75 -202 q-58 -128 -100 -210 q-28 -55 -45 -55 l-56 -1 q-24 0 -39 27 q-5 6 -19 48 q-47 131 -113 271 q-23 47 -54 107 q-14 19 -45 23 q128 55 142 55 q15 0 30 -23 q62 -103 131 -302 q121 253 121 298 q0 17 -19 39 q34 -12 122 -48 q19 -11 19 -27 Z" /><glyph glyph-name="" unicode="w" d="M735 471 q0 -20 -71 -212 q-60 -160 -89 -228 q-15 -31 -28 -31 l-43 0 q-18 0 -33 42 l-79 212 q-45 -106 -94 -211 q-21 -43 -36 -43 l-45 0 q-16 0 -31 50 q-4 16 -23 79 l-32 110 q-36 111 -78 226 l-7 16 q-8 7 -36 13 q129 36 136 36 q22 0 37 -35 q25 -65 75 -229 q27 71 79 189 q20 40 37 40 l37 0 q20 0 38 -38 q5 -11 77 -197 q83 213 83 236 q0 17 -25 42 q49 -13 119 -33 q32 -12 32 -34 Z" /><glyph glyph-name="" unicode="x" d="M529 86 q0 -15 -17 -29 q-3 -3 -108 -74 q11 22 11 38 q0 21 -108 156 q-156 -175 -186 -175 q-15 0 -57 39 l-54 53 q6 -1 20 -1 q20 0 32 11 l50 49 q42 42 112 119 l-117 133 q-18 18 -45 38 q-6 2 -13 2 q-7 0 -23 -2 q48 39 63 50 q49 37 63 37 q14 0 32 -18 q11 -11 125 -144 q20 22 64 81 q49 67 49 80 q0 5 -4 23 l94 -68 q16 -14 16 -26 q0 -13 -15 -33 q-39 -52 -121 -152 q39 -48 78 -93 q59 -76 59 -94 Z" /><glyph glyph-name="" unicode="y" d="M472 474 q0 -6 -7 -27 q-123 -305 -241 -485 q-19 -25 -34 -25 q-9 0 -127 59 l24 6 q14 3 20 11 q26 29 81 137 q-40 115 -90 220 q-13 30 -43 86 q-12 18 -45 24 q118 50 131 50 q19 0 34 -24 q26 -47 91 -201 q84 186 84 203 q0 12 -16 38 q39 -12 114 -42 q24 -12 24 -30 Z" /><glyph glyph-name="" unicode="z" d="M514 161 q-21 -43 -68 -124 q-12 -20 -42 -23 q-104 -13 -194 -13 q-120 0 -150 30 q-9 8 -25 35 q-15 26 -15 38 q0 14 40 55 q10 10 109 121 q35 38 101 113 l2 3 q0 5 -11 5 q-23 0 -68 -9 q-41 -8 -69 -8 q-22 0 -34 22 q-7 12 -60 111 q61 -10 89 -10 q25 0 99 11 q87 12 152 12 q40 0 64 -19 q18 -16 37 -58 l2 -7 q0 -20 -46 -71 q-207 -223 -207 -242 q0 -9 24 -9 q137 0 270 37 Z" /><glyph glyph-name="" unicode="{" d="M295 -54 q-179 10 -179 264 q0 69 -20 100 q-14 20 -46 32 q46 16 60 59 q4 17 7 94 q5 126 45 177 q48 63 132 72 q4 -18 31 -105 q-40 -3 -61 -26 q-34 -37 -41 -97 q-3 -24 -3 -107 q0 -44 -28 -66 q18 -25 24 -44 q3 -15 3 -49 q0 -93 25 -149 q18 -44 83 -52 l-32 -103 Z" /><glyph glyph-name="" unicode="|" d="M172 -138 l-112 0 l0 998 l112 0 l0 -998 Z" /><glyph glyph-name="" unicode="}" d="M327 342 q-23 -8 -28 -12 q-7 -4 -18 -20 q-20 -29 -20 -100 q0 -253 -179 -264 q-30 95 -32 103 q64 8 83 52 q25 59 25 167 q0 42 27 75 q-24 18 -27 51 l0 61 q0 110 -45 158 q-23 23 -61 26 q-2 -5 31 105 q83 -9 132 -72 q39 -51 45 -177 q-2 -35 7 -94 q12 -43 60 -59 Z" /><glyph glyph-name="" unicode="&#x3001;" d="M294 -5 q-76 88 -181 187 l93 76 q91 -86 181 -186 l-93 -77 Z" /><glyph glyph-name="" unicode="&#x3002;" d="M395 145 q0 -59 -43 -102 q-43 -43 -102 -43 q-60 0 -102 42 q-42 42 -42 103 q0 60 42 102 q41 42 102 42 q59 0 102 -42 q43 -43 43 -102 ZM332 145 q0 34 -24 58 q-24 24 -58 24 q-35 0 -58 -24 q-24 -24 -24 -58 q0 -34 24 -58 q23 -24 58 -24 q34 0 58 24 q24 24 24 58 Z" /><glyph glyph-name="" unicode="Ñ&#x2014;" d="M1000 304 l-1000 0 l0 112 l1000 0 l0 -112 Z" /><glyph glyph-name="" unicode="&#xff5e;" d="M928 308 q-116 -79 -229 -79 q-66 0 -158 34 q-14 5 -76 30 q-46 17 -75 29 q-55 18 -89 18 q-79 0 -183 -60 l-45 115 q129 63 228 63 q66 0 160 -34 q89 -37 153 -62 q50 -19 85 -19 q70 0 171 71 l58 -106 Z" /><glyph glyph-name="" unicode="É&#x2026;&#x22ef;" d="M923 360 q0 -36 -26 -64 q-26 -26 -63 -26 q-38 0 -64 26 q-27 27 -27 64 q0 37 27 64 q28 26 64 26 q35 0 63 -26 q26 -28 26 -64 ZM590 360 q0 -36 -26 -64 q-26 -26 -63 -26 q-38 0 -64 26 q-27 27 -27 64 q0 37 27 64 q28 26 64 26 q35 0 63 -26 q26 -28 26 -64 ZM257 360 q0 -36 -26 -64 q-26 -26 -63 -26 q-38 0 -64 26 q-27 27 -27 64 q0 37 27 64 q28 26 64 26 q35 0 63 -26 q26 -28 26 -64 Z" /><glyph glyph-name="" unicode="Õ&#x2019;" d="M343 744 q0 -77 -52 -120 q-39 -30 -71 -36 l-42 32 q43 19 58 39 q-79 7 -79 85 q0 38 26 63 q27 25 64 25 q36 0 67 -26 q29 -27 29 -62 Z" /><glyph glyph-name="" unicode="&#x300a;" d="M993 -43 l-101 -45 l-214 449 l214 452 l101 -45 l-195 -407 l195 -404 ZM822 -43 l-101 -45 l-214 449 l214 452 l101 -45 l-195 -407 l195 -404 Z" /><glyph glyph-name="" unicode="&#x300b;" d="M493 361 l-213 -449 l-102 45 l196 404 l-196 407 l102 45 l213 -452 ZM322 361 l-213 -449 l-102 45 l196 404 l-196 407 l102 45 l213 -452 Z" /><glyph glyph-name="" unicode="&#x300c;" d="M934 697 l-244 0 l0 -791 l-123 0 l0 908 l367 0 l0 -117 Z" /><glyph glyph-name="" unicode="&#x300d;" d="M434 -94 l-367 0 l0 117 l244 0 l0 791 l123 0 l0 -908 Z" /><glyph glyph-name="" unicode="&#x2220;" d="M885 36 l-770 0 l647 652 l82 -83 l-435 -452 l476 0 l0 -117 Z" /><glyph glyph-name="" unicode="&#x2160;" d="M595 354 q0 -228 -15 -315 q-5 -25 -15 -31 q-11 -7 -37 -7 q-93 0 -123 1 q23 9 29 32 q1 3 7 76 q11 163 11 225 l0 140 q0 172 -19 259 q-6 20 -21 29 l130 0 q28 0 36 -37 q17 -90 17 -269 l0 -103 Z" /><glyph glyph-name="" unicode="&#x2161;" d="M752 354 q0 -228 -15 -315 q-6 -25 -15 -31 q-11 -7 -37 -7 q-94 0 -123 1 q23 9 29 32 q1 3 7 76 q10 173 10 225 l0 140 q0 177 -18 259 q-6 20 -21 29 l130 0 q27 0 36 -37 q17 -90 17 -269 l0 -103 ZM439 354 q0 -228 -15 -315 q-6 -25 -16 -31 q-10 -7 -36 -7 q-94 0 -123 1 q23 9 29 32 q1 3 7 76 q10 173 10 225 l0 140 q0 177 -18 259 q-6 20 -21 29 l130 0 q27 0 36 -37 q17 -90 17 -269 l0 -103 Z" /><glyph glyph-name="" unicode="&#x2162;" d="M860 354 q0 -228 -15 -315 q-5 -25 -15 -31 q-11 -7 -37 -7 q-93 0 -123 1 q23 9 29 32 q1 3 7 76 q11 163 11 225 l0 140 q0 172 -19 259 q-6 20 -21 29 l130 0 q28 0 36 -37 q17 -90 17 -270 l0 -102 ZM598 354 q0 -228 -15 -315 q-5 -25 -15 -31 q-11 -7 -37 -7 q-93 0 -123 1 q23 9 29 32 q1 3 7 76 q11 163 11 225 l0 140 q0 172 -19 259 q-6 20 -21 29 l130 0 q28 0 36 -37 q17 -90 17 -269 l0 -103 ZM330 354 q0 -228 -15 -315 q-5 -25 -15 -31 q-11 -7 -37 -7 q-93 0 -123 1 q23 9 29 32 q1 3 7 76 q11 163 11 225 l0 140 q0 172 -19 259 q-6 20 -21 29 l130 0 q28 0 36 -37 q17 -90 17 -269 l0 -103 Z" /><glyph glyph-name="" unicode="&#x2163;" d="M900 698 q0 -54 -90 -333 q-84 -262 -121 -340 q-13 -25 -24 -25 l-74 1 q-17 0 -38 81 q-64 231 -114 390 q-18 51 -33 102 q-21 63 -37 99 q-11 20 -14 24 q-8 10 -23 13 q108 57 124 57 q17 0 32 -32 q8 -19 49 -138 q60 -186 99 -333 q44 135 99 336 q33 120 33 142 q0 15 -9 30 q20 -6 60 -16 q37 -11 59 -24 q22 -14 22 -34 ZM291 354 q0 -228 -15 -315 q-6 -25 -16 -31 q-10 -7 -36 -7 q-93 0 -123 1 q23 9 29 32 q1 3 7 76 q10 173 10 225 l0 140 q0 177 -18 259 q-6 20 -21 29 l130 0 q27 0 36 -37 q17 -90 17 -270 l0 -102 Z" /><glyph glyph-name="" unicode="&#x2164;" d="M854 696 q0 -49 -114 -334 q-112 -281 -148 -338 q-16 -25 -31 -25 l-92 1 q-22 0 -49 82 q-45 131 -141 390 q-28 68 -41 102 q-21 49 -46 98 q-21 34 -45 37 q116 51 134 51 q21 0 42 -33 q13 -22 60 -131 q95 -223 140 -372 q192 465 192 512 q0 15 -11 29 q41 -9 120 -33 q30 -15 30 -36 Z" /><glyph glyph-name="" unicode="&#x2165;" d="M906 354 q0 -228 -15 -315 q-5 -25 -15 -31 q-11 -7 -37 -7 q-93 0 -123 1 q23 9 29 32 q1 3 7 76 q11 163 11 225 l0 140 q0 172 -19 259 q-6 20 -21 29 l130 0 q28 0 36 -37 q17 -90 17 -270 l0 -102 ZM661 698 q0 -54 -90 -333 q-87 -272 -121 -340 q-12 -25 -24 -25 l-74 1 q-17 0 -38 81 q-64 233 -114 390 q-15 47 -70 201 l-13 24 q-8 10 -23 13 q112 56 128 56 q17 0 32 -32 q15 -32 53 -156 q16 -54 88 -323 q47 141 102 342 q33 120 33 143 q0 15 -9 30 q20 -6 60 -16 q33 -8 59 -22 q21 -12 21 -34 Z" /><glyph glyph-name="" unicode="&#x2166;" d="M957 301 q0 -178 -14 -259 q-4 -25 -15 -34 q-12 -9 -38 -9 q-62 0 -116 3 q20 8 26 37 q2 11 7 85 q9 143 9 228 q0 249 -17 376 q-5 25 -17 34 l121 0 q29 0 38 -41 q16 -93 16 -266 l0 -154 ZM724 426 q0 -275 -14 -384 q-5 -30 -20 -38 q-9 -4 -45 -4 q-77 0 -104 2 q21 9 27 37 l7 85 q9 143 9 256 q0 231 -17 348 q-5 25 -18 34 l122 0 q29 0 37 -41 q16 -102 16 -295 ZM523 704 q0 -10 -6 -37 q-63 -282 -160 -594 q-24 -72 -32 -72 l-83 0 q-11 0 -26 71 q-54 246 -91 402 l-27 115 q-17 68 -36 112 q-9 18 -19 25 q99 39 114 39 q17 0 31 -25 q13 -24 34 -109 q25 -107 70 -351 q69 252 101 447 q2 16 2 22 q0 12 -3 21 q31 -8 103 -30 q28 -14 28 -36 Z" /><glyph glyph-name="" unicode="&#xff01;" d="M298 764 l-88 -541 l-117 0 l33 541 l172 0 ZM225 90 q0 -36 -26 -64 q-26 -26 -64 -26 q-39 0 -64 26 q-26 26 -26 64 q0 37 26 63 q26 26 64 26 q36 0 64 -26 q26 -28 26 -63 Z" /><glyph glyph-name="" unicode="&#xff08;" d="M828 -88 q-243 177 -243 464 q0 259 243 437 l87 -82 q-96 -62 -150 -151 q-57 -96 -57 -204 q0 -237 207 -381 l-87 -83 Z" /><glyph glyph-name="" unicode="&#xff09;" d="M415 376 q0 -288 -242 -464 l-88 83 q207 144 207 381 q0 108 -57 204 q-55 89 -150 151 l88 82 q242 -177 242 -437 Z" /><glyph glyph-name="" unicode="&#xff0c;" d="M343 84 q0 -76 -52 -119 q-41 -31 -71 -37 l-42 33 q43 21 58 39 q-79 7 -79 84 q0 38 26 64 q27 25 64 25 q37 0 67 -27 q29 -27 29 -62 Z" /><glyph glyph-name="" unicode="&#xff1a;" d="M340 458 q0 -37 -27 -63 q-26 -26 -63 -26 q-39 0 -64 26 q-25 25 -25 63 q0 38 25 64 q26 26 64 26 q36 0 64 -26 q26 -28 26 -64 ZM340 89 q0 -37 -27 -63 q-26 -26 -63 -26 q-39 0 -64 26 q-25 25 -25 63 q0 38 25 64 q26 26 64 26 q37 0 64 -27 q26 -28 26 -63 Z" /><glyph glyph-name="" unicode="&#xff1b;" d="M340 458 q0 -37 -27 -63 q-26 -26 -63 -26 q-39 0 -64 26 q-25 25 -25 63 q0 38 25 64 q26 26 64 26 q36 0 64 -26 q26 -28 26 -64 ZM343 88 q0 -76 -52 -119 q-41 -31 -71 -37 l-42 33 q43 21 58 39 q-79 7 -79 84 q0 38 26 64 q27 25 64 25 q37 0 67 -27 q29 -27 29 -62 Z" /><glyph glyph-name="" unicode="&#xff1f;" d="M437 574 q0 -96 -72 -171 l-37 -37 q-21 -25 -30 -43 q-13 -25 -13 -62 q0 -19 2 -39 l-120 0 l0 24 q0 79 21 119 q9 21 81 99 q53 58 53 110 q0 26 -16 50 q-18 23 -44 23 q-53 0 -91 -22 q-23 -13 -30 -13 q-16 0 -78 98 q16 3 45 16 q74 37 154 37 q78 0 127 -55 q48 -54 48 -134 ZM313 90 q0 -37 -27 -64 q-26 -26 -63 -26 q-38 0 -63 26 q-27 27 -27 64 q0 36 27 63 q26 26 63 26 q35 0 63 -26 q27 -27 27 -63 Z" /><glyph glyph-name="" unicode="&#x3044;" d="M908 180 q0 -22 -19 -33 q-17 -10 -65 -19 l-70 -14 q18 14 18 43 q0 61 -47 213 q-47 147 -82 203 q-15 24 -38 30 q123 43 139 43 q14 0 28 -20 q35 -53 85 -218 q51 -168 51 -228 ZM512 141 l-1 -19 q-5 -46 -85 -91 q-75 -42 -125 -42 q-186 0 -186 278 q0 78 25 222 q25 153 25 217 q0 28 -18 43 q54 -8 124 -23 q30 -10 30 -41 q0 -41 -16 -127 q-18 -97 -21 -127 q-9 -97 -9 -166 q0 -138 67 -138 q46 0 108 61 q47 47 82 101 l0 -148 Z" /><glyph glyph-name="" unicode="&#x3057;" d="M856 221 q-1 -58 -8 -83 q-7 -22 -37 -43 q-185 -131 -411 -131 q-54 0 -104 22 q-53 24 -80 68 q-41 62 -41 205 q0 80 21 242 q21 161 21 239 q0 16 -13 29 q29 0 109 -5 q21 -3 30 -9 q12 -9 12 -28 l-2 -18 q-34 -228 -34 -460 q0 -82 16 -111 q23 -45 96 -45 q97 0 231 70 q128 65 195 145 l-1 -87 Z" /><glyph glyph-name="" unicode="&#x3059;" d="M906 642 q0 -30 -8 -36 q-9 -8 -40 -14 q-78 -17 -187 -23 l1 -41 q0 -42 -5 -95 q76 -78 76 -166 q0 -111 -88 -199 q-73 -72 -191 -117 q-21 -7 -30 -7 q-17 0 -31 18 q-8 11 -63 105 q10 -5 28 -5 q69 0 156 63 q91 67 91 133 q0 19 -9 37 q-33 -64 -100 -101 q-69 -36 -143 -36 q-74 0 -122 38 q-56 41 -56 112 q0 83 79 140 q71 51 159 51 l39 0 q35 0 73 -8 q0 14 1 27 l1 29 l-1 18 q-105 -5 -227 -5 q-103 0 -172 6 q-29 3 -38 9 q-12 8 -12 36 l0 84 q7 -13 37 -16 q61 -8 208 -8 q57 0 98 1 l97 2 q-6 34 -8 52 q-9 32 -24 44 q131 8 124 8 q26 0 37 -37 q2 -8 7 -59 q62 4 110 8 q59 6 108 20 q19 5 25 16 l0 -84 ZM508 373 q-30 11 -66 11 q-44 0 -80 -13 q-47 -18 -47 -56 q0 -19 17 -29 q14 -9 33 -9 q44 0 87 29 q44 28 56 67 Z" /><glyph glyph-name="" unicode="&#x3066;" d="M866 637 q0 -11 -26 -20 q-144 -57 -262 -142 q-163 -120 -163 -225 q0 -93 130 -133 q81 -26 206 -26 q68 0 110 9 l-33 -68 q-23 -45 -36 -62 q-15 -15 -35 -15 q-168 0 -307 64 q-176 81 -176 233 q0 95 80 187 q52 59 158 138 q-131 -23 -332 -23 q-51 0 -51 40 l0 97 q13 -17 37 -17 q112 0 241 8 q173 10 286 27 q42 6 59 9 q37 7 58 16 q27 10 40 26 l16 -123 Z" /><glyph glyph-name="" unicode="&#x3067;" d="M901 441 q0 -11 -49 -51 l1 9 q0 9 -31 45 q-27 31 -43 43 q-8 4 -22 4 q46 38 60 38 q12 0 49 -37 q35 -38 35 -51 ZM823 374 q0 -9 -22 -28 q-25 -18 -31 -23 l1 8 q0 8 -33 47 q-22 24 -42 44 q-14 7 -24 7 q2 1 29 23 q21 15 31 15 q10 0 52 -40 q39 -40 39 -53 ZM866 637 q0 -11 -26 -20 q-145 -58 -261 -142 q-163 -118 -163 -225 q0 -92 129 -133 q81 -26 206 -26 q68 0 110 9 l-33 -68 q-23 -45 -36 -62 q-15 -15 -35 -15 q-172 0 -307 63 q-175 81 -175 234 q0 95 80 187 q52 59 158 138 q-132 -23 -332 -23 q-51 0 -51 40 l0 97 q13 -17 36 -17 q113 0 241 8 q173 10 286 27 q40 5 116 24 q26 9 42 27 q15 -108 15 -123 Z" /><glyph glyph-name="" unicode="&#x306e;" d="M912 354 q0 -299 -279 -380 q-20 -5 -27 -5 q-24 0 -100 110 q6 -1 14 -1 q24 0 40 5 q213 54 213 288 q0 84 -48 144 q-48 60 -130 78 q-40 -205 -44 -221 q-40 -158 -92 -239 q-72 -111 -173 -111 q-97 0 -151 85 q-46 71 -46 175 q0 185 122 313 q122 129 305 129 q176 0 284 -96 q112 -101 112 -274 ZM454 599 q-108 -21 -174 -120 q-62 -92 -62 -207 q0 -41 14 -69 q18 -39 53 -39 q61 0 118 188 q48 156 51 247 Z" /><glyph glyph-name="" unicode="&#x306f;" d="M925 72 q0 -13 -89 -119 l0 3 q0 29 -34 62 q-5 5 -60 46 q-72 -107 -217 -107 q-77 0 -130 39 q-59 41 -59 118 q0 87 62 134 q57 45 145 45 q17 0 107 -21 q4 80 4 103 l-3 114 q-117 -13 -215 -13 q-50 0 -59 10 q-10 9 -10 59 q0 46 1 62 q9 -17 36 -17 q115 0 241 13 q-4 79 -17 123 q-10 26 -29 37 l128 5 q31 0 40 -35 q5 -20 13 -116 q88 9 112 45 q9 -87 9 -107 q0 -24 -46 -39 q-16 -5 -67 -15 q5 -127 5 -147 q0 -75 -8 -150 q39 -26 81 -61 q59 -51 59 -71 ZM277 724 q0 -11 -5 -43 q-38 -218 -38 -397 q0 -158 18 -269 q3 -18 3 -25 q0 -30 -41 -39 l-108 -12 q10 17 10 37 q0 40 -10 153 q-9 102 -9 154 q0 191 41 434 l2 18 q0 23 -13 39 q30 -2 121 -14 q17 -4 24 -11 q5 -8 5 -25 ZM621 138 q-48 33 -104 33 q-56 0 -56 -49 q0 -42 57 -42 q69 0 103 58 Z" /><glyph glyph-name="" unicode="&#x307e;" d="M884 74 q0 -8 -67 -124 q-5 26 -34 47 q-108 78 -191 106 q-34 -70 -108 -111 q-75 -40 -154 -40 q-69 0 -125 34 q-64 39 -64 106 q0 89 80 139 q69 42 163 42 q43 0 92 -11 l-1 40 q-1 13 -1 31 q-72 -4 -123 -4 q-69 0 -112 5 q-35 3 -40 7 q-14 6 -16 36 q-1 9 -1 47 l0 47 q18 -24 123 -24 q98 0 167 3 q-2 36 -2 82 l-127 0 q-103 0 -157 9 q-32 5 -40 13 q-10 9 -10 38 l0 23 q0 48 1 65 q15 -22 49 -26 q52 -8 197 -8 q53 0 78 1 l0 2 q0 89 -29 110 q80 2 119 4 q31 0 37 -35 q3 -19 6 -75 q115 9 236 33 q17 3 25 6 q14 6 19 17 q5 -90 5 -100 q0 -19 -13 -29 q-10 -7 -32 -11 q-107 -23 -232 -31 q0 -28 3 -82 q103 7 170 20 q37 6 47 27 q5 -85 5 -106 q0 -29 -36 -38 q-36 -10 -90 -15 l-92 -6 l0 -103 q71 -25 156 -67 q119 -62 119 -94 ZM455 141 q-34 12 -94 12 q-30 0 -56 -13 q-31 -16 -31 -45 q0 -24 61 -24 q77 0 120 70 Z" /><glyph glyph-name="" unicode="&#x30c1;" d="M905 391 q0 -22 -14 -28 q-7 -5 -32 -8 q-136 -17 -263 -22 q-31 -251 -204 -379 q-12 -9 -20 -9 q-10 0 -139 81 q5 0 15 4 q28 12 82 69 q50 51 69 84 q34 56 52 144 q-141 0 -177 2 q-142 3 -160 12 q-15 6 -15 18 l-1 125 q13 -19 43 -22 q68 -8 315 -10 l0 3 q0 49 -27 146 l-107 -1 q-78 0 -114 9 q-23 6 -23 26 q0 57 3 124 q9 -22 25 -22 q11 0 95 -4 q56 -4 95 -4 q85 0 179 7 q128 9 169 26 q17 6 23 26 l16 -126 q0 -26 -214 -52 q12 -57 23 -153 q47 2 141 8 q98 6 136 20 q17 5 27 24 q2 -68 2 -118 Z" /><glyph glyph-name="" unicode="&#x30df;" d="M849 645 q0 -20 -7 -60 q-5 -20 -13 -60 q-9 13 -22 21 q-37 23 -261 54 q-148 20 -283 20 q-31 0 -45 -18 l7 68 q5 45 13 65 q5 14 10 17 q5 3 20 3 q120 0 289 -18 q211 -24 270 -58 q22 -14 22 -34 ZM830 366 q0 -33 -21 -123 q-7 23 -39 35 q-187 65 -546 65 q-18 0 -29 -16 l5 66 q3 41 10 61 q6 16 13 19 q6 3 23 3 q91 0 287 -19 q221 -24 267 -50 q30 -18 30 -41 ZM869 74 q0 -29 -27 -122 q-6 24 -41 36 q-113 38 -317 64 q-189 24 -325 24 q-19 0 -28 -17 q4 62 14 124 q9 23 34 23 q129 0 346 -25 q250 -31 322 -74 q22 -16 22 -33 Z" /><glyph glyph-name="" unicode="&#x30e5;" d="M842 7 q0 -23 -25 -31 q-8 -2 -86 -5 l-121 -7 q-100 -4 -122 -4 q-125 0 -271 11 q-57 5 -57 26 l0 108 q12 -17 34 -20 q76 -16 252 -16 l152 0 q23 69 39 165 q16 101 16 165 q0 60 -27 87 q-28 26 -87 26 q-79 0 -204 -41 q-12 -5 -23 -5 q-16 0 -48 47 l-42 62 q6 -2 20 -2 q11 0 20 2 l155 27 q90 15 156 15 q101 0 153 -44 q52 -49 52 -149 q0 -134 -47 -346 q21 0 61 2 q38 4 50 26 l0 -99 Z" /><glyph glyph-name="" unicode="&#x30e9;" d="M743 729 q-1 -26 -1 -61 q0 -26 -43 -26 l-397 0 q-39 0 -39 25 q0 68 1 116 q12 -21 40 -23 q59 -4 158 -4 l78 0 q110 0 167 6 q25 3 37 27 l-1 -60 ZM878 445 q0 -91 -72 -198 q-58 -85 -144 -161 q-172 -149 -222 -149 q-16 0 -39 24 l-99 105 q5 -1 15 -1 q71 0 206 111 q59 50 107 105 q68 79 68 125 q0 48 -85 48 q-71 0 -185 -19 q-109 -20 -182 -45 q-27 -10 -37 -10 q-16 0 -34 30 q-6 9 -28 47 l-39 66 l51 -7 q40 0 91 10 q66 11 91 16 q195 29 335 29 q202 0 202 -126 Z" /><glyph glyph-name="" unicode="&#x30f3;" d="M493 676 q0 -13 -37 -133 q-2 15 -19 24 q-48 21 -159 42 q-109 20 -161 17 q5 28 28 108 q9 22 31 22 q35 0 159 -22 q125 -24 147 -39 q11 -9 11 -19 ZM903 622 q0 -6 -2 -14 q-89 -254 -259 -417 q-177 -171 -431 -233 q-12 -3 -21 -3 q-15 0 -27 24 q-18 39 -50 112 q15 -11 35 -11 q50 0 151 40 q168 68 294 222 q109 133 179 324 q3 8 3 14 q0 13 -9 25 q48 -20 126 -59 q11 -11 11 -24 Z" /><glyph glyph-name="" unicode="&#x437;" d="M719 173 q0 -84 -69 -135 q-62 -47 -150 -47 q-50 0 -109 24 q-55 21 -97 57 q-13 10 -13 19 q0 7 78 112 l0 -7 q0 -33 55 -63 q50 -27 86 -27 q37 0 65 18 q33 21 33 56 q0 49 -40 67 q-27 12 -83 12 q-29 0 -29 30 l0 98 q17 -13 38 -13 q92 0 92 67 q0 16 -22 25 q-19 7 -35 7 q-38 0 -80 -33 q-41 -32 -47 -32 q-12 0 -106 70 q22 0 39 17 q55 51 87 68 q48 25 107 25 q66 0 119 -32 q60 -37 60 -100 q0 -76 -86 -138 q107 -51 107 -145 Z" /><glyph glyph-name="" unicode="&#x7231;" d="M106 777 q137 0 298 7 q200 5 355 16 q129 8 138 24 q29 -105 29 -113 q0 -11 -63 -17 l18 -10 q24 -16 24 -29 q0 -10 -9 -24 q-33 -51 -66 -90 l13 -4 q62 -24 89 -61 q25 -44 25 -111 q0 -67 -14 -90 q-12 -32 -34 -32 l-119 24 q21 5 27 27 q11 19 11 71 q0 26 -9 47 q-13 22 -50 31 q-50 8 -123 8 q-68 0 -145 -5 l22 -9 q25 -11 25 -27 q0 -17 -20 -48 q148 0 218 7 q26 3 48 17 l0 -82 q0 -25 -16 -31 q-34 -10 -268 -10 l-60 0 q-16 -18 -52 -52 l51 5 q140 13 237 13 q80 0 110 -15 q27 -16 27 -39 q0 -43 -81 -90 q-26 -16 -59 -30 q197 -46 235 -46 q8 0 18 11 q-25 -62 -38 -98 q-6 -18 -26 -18 q-21 0 -239 61 l-103 31 l-111 -33 q-207 -57 -268 -57 q-22 0 -25 27 l-22 86 q8 -18 22 -18 q25 0 152 27 q37 7 97 22 q-53 20 -114 47 q-57 -42 -83 -42 q-23 0 -110 75 q11 -3 19 -3 q18 0 63 33 q75 54 135 107 q-28 0 -48 4 q-15 9 -15 32 l0 81 q21 -14 59 -15 q69 -4 101 -5 q41 51 51 75 q-31 -3 -79 -11 q-129 -34 -151 -34 q-5 0 -7 1 l0 -79 q0 -64 -35 -64 l-118 0 q24 9 24 54 l0 185 q0 50 -24 66 l104 0 q45 0 49 -42 q17 0 50 5 q-4 3 -6 6 q-18 20 -51 63 q-23 29 -23 36 q0 16 45 38 q-40 -1 -101 -1 q-36 0 -36 33 l0 101 q13 -19 32 -19 ZM294 525 q35 4 85 12 q60 6 111 12 q-22 22 -50 54 q-22 25 -22 30 q0 16 43 37 l-173 -5 q0 -3 2 -3 q19 -32 53 -77 q10 -13 31 -13 l-80 -47 ZM546 553 q74 4 100 4 l20 0 q8 8 12 13 q48 56 86 111 l2 3 q1 1 1 2 q-100 -8 -227 -13 q25 -35 52 -62 q10 -13 31 -13 l-77 -45 ZM410 126 q61 -19 115 -32 q127 44 127 53 q0 7 -14 7 q-91 0 -204 -23 l-24 -5 Z" /><glyph glyph-name="" unicode="&#x5b89;" d="M110 411 q63 -4 114 -5 q2 9 7 24 q5 17 6 23 q16 56 16 63 q0 10 -16 29 l116 -15 q33 -3 33 -33 q0 -13 -22 -93 q42 -1 136 -1 q231 1 405 17 q31 0 44 28 l0 -118 q0 -45 -50 -45 q-62 -8 -132 -11 q6 -57 6 -136 l0 -45 q81 11 147 31 l-35 -115 q-11 -23 -45 -35 q-46 -2 -70 -4 l-4 -35 q-9 -32 -37 -32 l-116 0 q23 9 26 60 q-69 -2 -102 -4 q-154 -4 -182 -4 q-41 0 -103 20 q-47 19 -71 73 q-13 27 -13 60 q0 45 16 131 l7 33 q-40 1 -90 5 q-50 1 -50 44 l0 115 q12 -25 59 -25 ZM317 214 q-12 -58 -12 -83 q0 -67 91 -67 q121 0 245 13 l0 33 q0 66 -8 159 q-42 -1 -133 -1 q-119 0 -171 1 l-12 -55 ZM148 745 q36 0 45 -26 q39 0 188 13 q36 2 52 4 q-9 15 -9 21 q0 26 35 38 l113 31 q-18 -15 -18 -28 q0 -8 17 -36 l10 -19 l61 1 q136 0 193 -19 q61 -21 88 -54 q25 -41 25 -101 q0 -58 -10 -81 q-9 -28 -26 -28 l-119 24 q15 4 19 22 q7 21 7 63 q0 17 -8 33 q-13 17 -50 23 q-50 5 -119 5 q-143 0 -284 -16 q-126 -24 -145 -24 q-10 0 -16 5 l0 -63 q0 -65 -35 -65 l-118 0 q24 11 24 55 l0 155 q0 49 -24 67 l104 0 Z" /><glyph glyph-name="" unicode="&#x6309;" d="M460 751 q35 0 45 -27 q28 0 101 9 q-9 23 -9 28 q0 25 34 37 l110 31 q-16 -13 -16 -27 q0 -8 14 -42 q2 -7 7 -17 l21 0 q85 0 123 -16 q38 -16 55 -45 q16 -34 16 -83 q0 -50 -14 -67 q-13 -24 -36 -24 l-122 25 q22 3 28 17 q11 14 11 49 q0 14 -3 23 q-6 11 -17 14 q-22 4 -41 4 q-79 0 -160 -13 q-66 -20 -81 -20 q-9 0 -18 6 l0 -46 q0 -62 -34 -62 l-116 0 q24 9 24 53 l0 128 q0 49 -24 65 l102 0 ZM665 425 q157 0 238 9 q23 3 48 23 l0 -108 q0 -31 -20 -40 q-20 -7 -85 -8 q7 -72 7 -146 l0 -53 q55 16 88 35 l-37 -120 q-10 -23 -48 -37 l-7 -1 q-2 -30 -4 -38 q-9 -30 -35 -30 l-110 0 q21 9 24 51 q-13 0 -29 -2 q-68 -5 -96 -5 q-40 0 -93 21 q-44 20 -64 72 q-11 28 -11 63 q0 42 18 129 l17 61 q-50 1 -70 6 q-21 11 -21 42 l0 106 q21 -18 61 -21 q48 -4 72 -4 q4 14 7 21 q18 53 18 62 q0 11 -15 27 l111 -15 q31 -3 31 -31 q0 -10 -19 -69 l24 0 ZM727 128 q0 77 -9 170 l-118 0 l-23 -83 q-15 -57 -15 -80 q0 -64 76 -64 q43 0 89 6 l0 51 ZM153 674 q-3 38 -8 71 q-6 45 -23 64 l119 0 q29 0 37 -64 q4 -38 6 -71 q34 2 56 6 q13 3 25 23 l0 -108 q0 -31 -20 -40 q-12 -8 -55 -9 l1 -125 l4 2 q23 9 28 39 l36 -92 q6 -18 6 -28 q0 -23 -25 -42 l-51 -26 q-6 -254 -30 -308 q-26 -59 -98 -59 q-24 0 -61 10 q-27 6 -31 26 l-26 83 q14 -9 34 -12 q15 -2 41 -2 q23 0 29 43 q6 48 9 156 l-10 -5 q-34 -15 -40 -15 q-23 0 -33 28 l-36 104 q14 -12 20 -12 q9 0 26 8 q36 15 76 33 l-1 193 q-59 1 -77 8 q-20 10 -20 42 l0 106 q10 -18 32 -21 q30 -4 60 -6 Z" /><glyph glyph-name="" unicode="&#x6848;" d="M498 559 q168 0 243 8 q24 3 49 20 l0 -91 q0 -28 -17 -34 q-12 -4 -44 -6 l0 -54 q73 16 123 41 l-33 -104 q-9 -22 -41 -32 l-49 -8 q-3 -50 -33 -50 l-112 0 q19 6 22 36 q-6 -1 -14 -1 q-22 -2 -29 -2 l0 -51 q193 0 298 9 q34 3 72 22 l0 -102 q0 -29 -20 -38 q-20 -5 -108 -8 q43 -57 101 -120 q10 -15 37 -16 l-61 -36 q-60 -36 -77 -36 q-10 0 -34 30 q-36 42 -96 132 q-23 32 -29 43 q-27 -1 -83 -1 l0 -136 q0 -67 -37 -67 l-124 0 q26 12 26 57 l0 146 q-59 0 -84 1 q-16 -35 -83 -148 q-30 -56 -54 -56 q-17 0 -133 61 q28 4 57 44 l66 101 q-80 3 -106 7 q-20 10 -20 40 l0 100 q31 -17 91 -20 q141 -8 266 -8 l0 25 q0 11 -2 25 q-36 3 -81 14 q-62 15 -93 59 q-17 23 -17 51 q0 18 9 51 q-16 0 -25 3 q-17 9 -17 36 l0 89 q22 -15 62 -18 q7 -1 21 -1 l7 15 q13 29 13 32 l0 3 q-64 -16 -80 -16 q-18 0 -37 23 l0 -94 q0 -62 -33 -62 l-112 0 q23 9 23 52 l0 168 q0 47 -23 64 l100 0 q39 0 44 -37 l9 0 q48 0 199 19 l48 5 q-10 17 -10 23 q0 24 32 36 q9 2 106 29 q-16 -13 -16 -26 q0 -5 18 -34 q6 -12 10 -16 q52 2 71 2 q134 0 189 -19 q58 -19 86 -53 q24 -37 24 -98 q0 -57 -10 -79 q-10 -29 -27 -29 l-116 24 q15 4 19 22 q8 18 8 62 q0 22 -9 38 q-12 18 -47 26 q-45 6 -117 6 q-152 0 -284 -21 q-3 -1 -6 -1 l36 -5 q32 -3 32 -32 q0 -5 -14 -33 q27 -1 80 -1 ZM607 452 q-33 -1 -109 -1 q-91 0 -126 1 q-6 -18 -6 -25 q0 -49 153 -49 q51 0 88 5 l0 69 Z" /><glyph glyph-name="" unicode="&#x6fb3;" d="M169 809 q22 0 91 -77 q25 -31 25 -54 q0 -12 -12 -27 l-75 -92 l4 13 q0 20 -34 54 q-79 79 -88 79 q-6 0 -17 -3 l71 85 q20 22 35 22 ZM179 543 q10 0 37 -44 q34 -57 49 -98 q14 -48 14 -87 q0 -57 -15 -149 q-16 -105 -38 -177 q-17 -77 -30 -77 q-7 0 -86 32 l-59 24 q18 0 33 17 q25 99 46 216 q15 78 15 114 q0 23 -19 63 q-16 30 -39 60 q-12 9 -34 9 l60 54 q49 43 66 43 ZM610 796 q28 -3 28 -28 q0 -3 -3 -11 q60 5 111 5 q47 0 79 -8 q38 -13 60 -35 q29 -24 35 -63 q11 -55 11 -173 q0 -95 -2 -205 q-3 -63 -8 -71 q-7 -13 -18 -13 l-112 4 q6 6 9 12 q3 3 6 58 l1 20 q-18 -9 -36 -15 q-18 -6 -28 -6 q-7 0 -16 23 q-27 52 -40 97 l-6 18 l-8 0 q-1 -101 -6 -122 q-7 -24 -27 -24 l-86 0 q15 7 18 50 q0 40 2 96 l-13 0 q-3 -6 -3 -10 q-16 -49 -43 -111 q-9 -19 -18 -19 q-10 0 -25 5 l-37 9 l-4 -52 q-9 -29 -35 -29 l-104 0 q20 12 23 73 q2 142 2 187 q0 99 -9 222 q-6 57 -22 67 l104 0 q24 0 33 -19 q6 -2 17 -2 q12 0 60 9 q5 9 9 21 q8 22 8 24 q0 14 -13 27 l106 -11 ZM763 410 q5 -17 13 -34 q20 -53 32 -71 q2 94 2 178 q0 106 -6 133 q-3 24 -20 35 q-18 10 -64 10 q-56 0 -118 -10 q-68 -10 -94 -17 q-27 -9 -42 -9 q-18 0 -33 34 q5 -83 5 -175 q0 -95 -2 -181 q24 51 40 97 l3 9 q-8 0 -12 2 q-13 6 -13 26 l0 67 q11 -11 34 -13 q47 -5 85 -5 q-4 70 -7 103 q-4 39 -17 45 l84 0 q24 0 30 -24 q8 -48 10 -124 q47 0 82 5 q13 1 27 14 l0 -68 q0 -19 -12 -25 q-4 -2 -7 -2 ZM543 595 q-10 -7 -10 -15 q0 -5 9 -26 q9 -28 16 -35 q2 -3 7 -3 q-32 -8 -46 -10 q-28 -6 -33 -6 q-4 0 -6 3 q-6 4 -14 29 q-8 16 -8 24 q0 15 20 22 l65 17 ZM719 612 l61 -30 q15 -10 15 -21 q0 -6 -26 -46 q-9 -15 -16 -15 q-12 0 -68 31 q5 0 13 14 q25 50 25 55 l-4 12 ZM530 175 q40 49 40 59 q0 2 -7 16 l105 -29 q20 -8 20 -21 q0 -8 -20 -39 q127 0 218 7 q26 3 53 18 l0 -87 q0 -26 -16 -32 q-19 -5 -98 -7 q35 -27 76 -55 q8 -11 33 -11 l-33 -30 q-50 -52 -72 -52 q-7 0 -29 16 q-48 41 -97 87 q-38 29 -41 42 l-76 0 q-44 -47 -104 -101 q-39 -39 -55 -39 q-16 0 -31 12 l-86 68 l13 0 q13 0 42 23 q32 26 47 39 q-80 2 -107 6 q-17 9 -17 34 l0 85 q23 -13 68 -16 q81 -4 163 -6 l11 13 Z" /><glyph glyph-name="" unicode="&#x5427;" d="M609 666 q-30 -6 -60 -15 q1 11 -5 -99 q-3 -60 -3 -114 q46 -4 68 -5 l0 233 ZM554 760 q109 28 183 28 q81 0 126 -30 q47 -30 47 -167 q0 -76 -11 -139 q-2 -8 -2 -12 q16 6 32 22 l0 -103 q0 -29 -20 -38 q-27 -12 -205 -12 q-118 0 -165 4 l0 -83 q0 -143 13 -165 q12 -26 40 -35 q25 -7 56 -7 q52 0 136 15 q88 12 166 48 l-53 -118 q-12 -22 -38 -28 q-193 -30 -255 -30 q-44 0 -92 21 q-44 24 -71 75 q-25 49 -25 224 q0 231 7 385 l5 150 q0 11 -18 23 l97 0 q44 0 47 -28 ZM766 435 q18 78 18 153 q0 67 -17 82 q-13 8 -45 8 l-3 0 l0 -248 q31 0 45 1 l2 4 ZM152 755 q25 0 32 -15 q33 5 54 5 q71 0 108 -27 q40 -29 40 -153 q0 -190 -6 -343 q-4 -85 -5 -91 q12 3 22 22 l0 -103 q0 -28 -19 -38 q-14 -11 -114 -11 q-51 0 -68 2 l-2 -20 q-9 -29 -34 -29 l-106 0 q20 17 23 106 q2 206 2 273 q0 125 -10 325 q-6 82 -21 97 l104 0 ZM266 207 q12 180 12 353 q0 63 -14 75 q-12 9 -39 9 q-9 0 -29 -2 q6 -120 6 -283 q0 -114 -2 -234 q30 -3 57 -3 l9 85 Z" /><glyph glyph-name="" unicode="&#x628a;" d="M168 674 q-4 43 -9 71 q-6 44 -22 64 l119 0 q28 0 37 -64 q4 -38 6 -71 q41 0 68 6 q12 3 28 23 l0 -108 q0 -31 -21 -40 q-11 -7 -69 -10 l1 -135 l25 13 q26 9 32 39 l36 -92 q6 -18 6 -28 q0 -24 -29 -42 l-72 -32 q-6 -247 -32 -302 q-26 -59 -100 -59 q-24 0 -66 10 q-25 6 -31 26 q-13 33 -27 83 q14 -9 37 -12 q16 -2 44 -2 q23 0 32 43 q7 60 10 159 l-19 -8 q-39 -15 -46 -15 q-23 0 -33 28 l-36 104 q14 -12 20 -12 q11 0 31 8 q50 18 86 33 l-1 193 q-71 0 -90 8 q-21 11 -21 42 l0 106 q12 -18 36 -21 q36 -5 70 -6 ZM612 666 l-2 0 q-27 -6 -57 -15 q1 11 -5 -99 q-3 -60 -3 -114 q47 -4 67 -5 l0 233 ZM557 760 q107 28 180 28 q81 0 126 -30 q47 -30 47 -167 q0 -76 -11 -139 q-2 -8 -2 -11 q17 6 32 21 l0 -103 q0 -29 -20 -38 q-27 -12 -203 -12 q-118 0 -163 4 l0 -83 q0 -143 13 -165 q12 -26 39 -35 q25 -7 56 -7 q52 0 134 15 q87 12 165 48 l-53 -118 q-12 -22 -38 -28 q-192 -30 -252 -30 q-44 0 -91 21 q-44 24 -71 75 q-25 49 -25 224 q0 220 6 385 l5 150 q0 11 -18 23 l97 0 q44 0 47 -28 ZM767 435 q17 80 17 153 q0 67 -17 82 q-13 8 -45 8 l0 -248 q29 0 43 1 l2 4 Z" /><glyph glyph-name="" unicode="&#x2f69;&#x767d;" d="M332 818 q55 -5 126 -14 q32 -5 32 -33 q0 -11 -28 -76 l-4 -8 q7 0 23 2 q255 23 307 23 q31 0 52 -9 q24 -11 40 -34 q16 -28 24 -80 q5 -45 5 -225 q0 -113 -6 -227 l-4 -62 q18 8 27 14 l0 -106 q0 -30 -20 -39 q-48 -12 -354 -12 q-229 0 -319 6 q-1 -2 -1 -7 q-9 -32 -38 -32 l-117 0 q24 18 27 108 l1 278 q0 129 -10 332 q-6 83 -24 98 l117 0 q35 0 41 -33 l1 -13 q11 0 67 4 q12 22 28 58 q22 50 22 55 q0 17 -15 32 ZM239 66 q4 -1 11 -1 q150 -9 302 -9 q123 0 210 3 q6 95 7 133 q0 25 2 67 q-67 -5 -261 -5 q-200 0 -269 5 q0 -93 -2 -193 ZM241 386 q120 -8 269 -8 q175 0 263 7 q-2 104 -7 145 q-6 32 -16 43 q-12 7 -33 7 q-41 0 -242 -17 q-161 -17 -217 -17 q-12 0 -21 9 q2 -56 4 -169 Z" /><glyph glyph-name="" unicode="&#x8d25;" d="M144 783 q24 0 30 -15 q24 1 84 11 q102 13 116 13 q21 0 42 -7 q19 -11 32 -30 q14 -25 20 -67 q4 -46 4 -192 l0 -19 q34 104 60 218 q18 78 18 94 q1 9 -13 23 l103 -14 q27 -4 27 -29 q0 -5 -5 -35 q41 -4 94 -4 q93 0 141 9 q14 3 29 21 l0 -99 q0 -31 -19 -37 q-7 -5 -40 -8 q-6 -111 -44 -246 q-25 -94 -62 -189 q59 -90 152 -186 q13 -13 35 -13 q-32 -20 -83 -54 q-26 -16 -37 -16 q-16 0 -56 52 q-46 56 -69 88 q-18 -36 -43 -81 q-34 -60 -60 -60 q-25 0 -123 50 q27 0 58 48 q42 76 88 172 q-20 35 -32 63 q-43 86 -57 148 q-8 1 -17 5 l-47 11 l-6 -106 q-9 -92 -13 -106 q-6 -20 -20 -20 l-110 6 q19 6 24 32 q7 49 11 135 q6 95 6 147 q0 108 -6 153 q-3 31 -11 39 q-7 7 -24 7 q-13 0 -70 -9 q-51 -9 -63 -9 q-4 0 -5 1 q4 -114 4 -198 q0 -214 -5 -277 l7 39 q39 195 39 328 q0 20 -17 34 l89 -11 q34 -5 34 -29 q0 -98 -21 -254 q-28 -186 -84 -336 q-24 -61 -52 -61 q-8 0 -112 29 q41 10 70 98 q26 69 43 142 q-9 -18 -28 -18 l-95 0 q17 11 20 82 q2 160 2 211 q0 104 -8 251 q-6 63 -19 75 l94 0 ZM594 469 q36 0 73 3 q-19 -10 -19 -25 q0 -30 26 -104 q2 -7 8 -19 q20 55 29 86 q30 122 36 202 q-79 0 -111 4 q-19 -76 -42 -147 ZM414 154 q-13 -9 -13 -22 q27 -109 57 -179 q1 -8 26 -19 l-72 -14 q-42 -10 -51 -10 q-7 0 -13 6 q-11 13 -32 90 q-24 84 -24 104 q0 17 45 26 l77 18 Z" /><glyph glyph-name="" unicode="&#x822c;" d="M313 808 q27 -3 27 -27 q0 -5 -5 -28 q26 3 40 3 q46 0 74 -22 q27 -19 40 -73 q12 -90 12 -301 q0 -244 -8 -337 q-10 -66 -38 -95 q-27 -22 -56 -22 q-51 0 -80 6 q-11 4 -17 22 l-31 84 q36 -8 72 -8 q26 0 35 36 q5 63 7 246 q-48 -3 -134 -3 l-49 0 q-1 -288 -8 -350 q-9 -28 -33 -28 l-103 0 q20 18 23 111 q2 208 2 273 q-15 0 -21 3 q-20 10 -20 42 l0 103 q14 -17 40 -20 q-3 105 -9 222 q-6 86 -21 102 l101 0 q27 0 34 -21 q12 2 18 4 l7 26 q8 35 8 38 q0 11 -13 26 l106 -12 ZM385 418 q-3 186 -16 213 q-10 18 -31 18 q-52 0 -142 -18 q4 -96 6 -217 q16 -1 49 -1 q90 0 134 5 ZM298 610 q7 0 37 -32 q30 -38 37 -59 q0 -13 -14 -24 q-10 -8 -38 -28 l-38 -28 q7 11 7 16 q-11 28 -40 62 q-22 31 -38 31 q30 29 54 46 q24 16 33 16 ZM604 809 q31 0 42 -23 q23 1 63 11 q78 12 96 12 q24 0 45 -9 q27 -19 27 -51 q0 -12 -6 -72 q-8 -64 -8 -98 q0 -10 6 -18 q3 -8 16 -8 q30 0 79 10 l-65 -98 q-18 -18 -79 -18 q-34 0 -55 21 q-13 17 -13 43 q0 27 6 78 q6 68 6 96 q0 20 -17 20 q-20 0 -50 -10 q-22 -7 -47 -11 l0 -192 q0 -62 -33 -62 l-112 0 q23 9 23 52 l0 264 q0 48 -23 63 l99 0 ZM786 429 q58 0 95 -25 q39 -27 39 -76 q0 -55 -66 -145 q-16 -25 -56 -83 q53 -45 90 -68 q40 -26 50 -26 q7 0 25 6 l-62 -62 q-36 -39 -54 -39 q-27 0 -76 38 q-26 18 -56 45 q-19 -19 -27 -29 q-54 -54 -73 -54 q-30 0 -70 37 q-23 17 -46 44 q39 0 126 91 q-1 0 -3 3 q-84 78 -85 100 q0 19 48 56 l49 40 q-6 -10 -6 -20 q0 -11 65 -70 q8 -8 12 -11 q61 85 61 113 q0 23 -29 23 q-29 0 -97 -20 q-43 -15 -53 -15 q-26 0 -32 28 q-10 24 -35 93 q17 -9 41 -9 q28 0 85 17 q69 18 140 18 ZM298 256 q5 0 36 -37 q30 -40 37 -64 q0 -15 -14 -24 q-10 -8 -38 -28 l-38 -28 q7 11 7 15 q-10 29 -39 70 q-22 34 -38 34 q22 21 54 46 q24 16 33 16 Z" /><glyph glyph-name="" unicode="&#x677f;" d="M237 700 q-6 93 -22 109 l107 0 q33 0 39 -31 l6 -102 q21 2 31 4 q15 5 30 24 l0 -106 q0 -30 -20 -39 q-8 -5 -37 -7 q2 -118 2 -189 l0 -36 q22 -20 33 -29 q41 -34 47 -37 q11 332 11 499 q0 16 -18 31 l108 -6 q32 -3 35 -24 q2 -1 6 -1 q52 0 111 11 q65 6 133 25 q47 9 52 34 q30 -111 30 -122 q0 -16 -37 -25 q-69 -17 -147 -25 q-87 -10 -138 -10 q-9 0 -11 1 q-2 -60 -2 -99 q41 0 93 13 q64 16 128 16 q64 0 97 -27 q32 -29 32 -77 q0 -57 -67 -214 q-27 -61 -57 -120 q68 -99 110 -141 q10 -8 38 -8 q-34 -26 -75 -59 q-31 -23 -46 -23 q-19 0 -45 31 q-25 27 -57 74 q-17 -24 -27 -40 q-45 -68 -69 -68 q-4 1 -27 14 l-29 15 q-19 10 -28 14 q-15 -43 -41 -43 q-6 0 -119 15 q45 44 48 150 l6 141 l-18 -20 q-35 -44 -50 -44 q-6 0 -11 4 q-2 -174 -7 -212 q-9 -30 -35 -30 l-109 0 q21 18 24 119 q0 91 2 227 q-29 22 -42 37 q-11 -155 -22 -282 q-9 -90 -38 -90 q-9 0 -108 9 q23 23 29 110 q32 287 35 513 l-13 3 q-20 10 -20 42 l0 103 q14 -19 38 -22 q70 -8 132 -8 l-1 28 ZM569 7 q30 35 65 93 l23 37 q-12 18 -24 39 q-38 66 -53 94 l-7 -212 q-2 -35 -4 -51 ZM631 427 q39 -67 88 -143 q13 -19 11 -17 l19 42 q48 105 48 128 q0 23 -30 26 q-40 0 -101 -26 q-27 -10 -35 -10 ZM230 477 q0 -17 16 -32 l-3 103 l-28 0 q0 -29 -2 -93 l17 22 Z" /><glyph glyph-name="" unicode="&#x7248;" d="M158 795 q35 0 41 -34 q6 -81 9 -186 q44 -4 68 -4 l0 211 q0 15 -14 31 l88 0 q46 0 49 -41 l0 -196 q20 2 28 4 q12 3 26 22 l0 -102 q0 -30 -19 -38 q-19 -12 -138 -12 q-64 0 -86 2 l1 -81 l35 7 q64 11 76 11 q28 0 44 -6 q22 -7 34 -22 q15 -20 21 -52 q5 -30 5 -149 q0 -76 -6 -151 q-7 -66 -11 -83 q-6 -15 -17 -15 l-117 6 q17 6 20 24 q5 30 10 105 q5 82 5 114 q0 59 -7 90 q-5 17 -14 23 q-12 4 -28 4 q-2 0 -25 -7 q-15 -7 -21 -7 q-3 0 -4 1 q-1 -261 -8 -320 q-9 -32 -37 -32 l-115 0 q22 19 25 117 q2 228 2 301 q0 138 -10 358 q-6 90 -23 107 l113 0 ZM573 785 q32 -3 35 -24 q2 -1 5 -1 q49 0 107 11 q62 6 127 25 q46 9 49 34 q31 -115 31 -122 q0 -16 -35 -25 q-66 -17 -142 -25 q-84 -10 -133 -10 q-7 0 -10 1 l-1 -99 q38 0 87 13 q61 16 119 16 q65 0 98 -27 q31 -29 31 -77 q0 -58 -62 -214 q-30 -70 -56 -122 q59 -91 104 -139 q10 -8 38 -8 q-34 -26 -75 -59 q-31 -23 -46 -23 q-18 0 -43 31 q-21 23 -51 69 q-13 -19 -22 -35 q-44 -68 -67 -68 l-55 29 q-19 10 -28 14 q-15 -43 -41 -43 q-7 0 -118 15 q44 44 47 150 q17 467 17 688 q0 16 -17 31 l107 -6 ZM590 11 q22 29 58 89 l22 37 q-16 26 -23 39 q-33 60 -48 89 l-6 -207 q-1 -22 -3 -47 ZM651 427 q33 -61 82 -143 l8 -14 l17 39 q45 105 45 128 q0 23 -31 26 q-34 0 -89 -26 q-26 -10 -32 -10 Z" /><glyph glyph-name="" unicode="&#x74e3;" d="M129 718 q-10 29 -10 38 q0 24 31 34 l101 28 q-16 -13 -16 -24 q0 -8 12 -46 q4 -18 9 -31 q28 2 46 6 q9 3 22 20 l0 -91 q0 -26 -16 -34 q-6 -5 -19 -6 q-3 -76 -16 -170 q16 2 22 4 q11 3 22 19 l0 -90 q0 -27 -16 -35 q-10 -6 -54 -9 l-5 -94 q19 0 36 5 q9 3 20 19 l0 -90 q0 -27 -17 -35 q-9 -7 -52 -9 q-9 -75 -24 -156 q-12 -60 -48 -60 l-104 8 q29 15 39 74 q15 71 24 135 q-32 1 -43 6 q-16 9 -16 37 l0 88 q7 -14 25 -17 q25 -5 47 -6 q4 49 6 95 q-51 1 -67 8 q-16 9 -16 36 l0 89 q9 -15 27 -18 q10 -2 15 -2 l-13 170 q-3 0 -7 2 q-16 9 -16 36 l0 89 q9 -15 28 -18 q27 -4 43 -5 ZM194 438 q15 93 18 169 l-54 0 q7 -110 13 -169 l23 0 ZM425 668 q-5 -273 -37 -643 q-9 -114 -43 -114 q-7 0 -82 6 q25 26 34 137 q40 403 40 707 q0 17 -16 27 l78 -2 q19 -2 23 -16 q80 16 154 35 q25 6 28 20 q41 -84 41 -97 q0 -8 -20 -14 q3 -97 24 -275 q33 -274 84 -501 q3 -10 15 -15 l-49 -11 q-13 -3 -18 -3 q-22 0 -31 35 q-41 129 -77 483 q-20 209 -22 267 q-7 -3 -12 -3 l-14 -112 q-17 -149 -26 -338 q-7 -134 -7 -195 q0 -26 18 -26 q15 0 29 5 q-10 79 -14 117 q-15 138 -15 174 q0 11 15 17 l52 14 q-8 -7 -8 -12 q0 -34 20 -164 q22 -177 38 -218 q3 -12 18 -21 l-81 -17 q-7 0 -10 19 l-5 22 l-6 -3 q-46 -11 -64 -11 q-30 0 -48 24 q-13 20 -13 64 q0 254 29 518 l15 127 l-17 -4 q-15 -3 -20 -3 ZM765 331 q-63 0 -81 8 q-17 9 -17 36 l0 89 q10 -15 29 -18 q12 -2 16 -2 l-5 60 q-7 82 -8 108 q-14 2 -19 4 q-17 9 -17 36 l0 89 q10 -15 29 -18 q27 -4 56 -6 q-10 30 -10 39 q0 24 32 34 l100 28 q-16 -13 -16 -24 q0 -10 13 -46 q5 -20 10 -30 q19 1 40 5 q11 3 22 20 l0 -91 q0 -26 -16 -34 q-6 -4 -12 -4 q-3 -78 -16 -172 q13 0 29 4 q10 2 23 19 l0 -90 q0 -27 -16 -35 q-12 -7 -63 -9 l0 -97 q29 0 50 6 q9 3 20 20 l0 -93 q0 -28 -18 -36 q-9 -7 -52 -9 l0 -163 q0 -52 -28 -52 l-95 0 q20 9 20 44 l0 171 q-39 1 -50 8 q-18 9 -18 37 l0 91 q9 -15 26 -18 q25 -5 42 -5 l0 96 ZM816 438 q15 93 18 169 l-58 0 q7 -112 14 -168 q6 -1 19 -1 l7 0 Z" /><glyph glyph-name="" unicode="&#x534a;" d="M754 772 l96 -48 q23 -15 23 -31 q0 -15 -64 -137 q-21 -46 -38 -46 q-20 0 -120 56 q19 3 38 37 q72 134 72 151 l-7 18 ZM147 473 q124 -7 292 -7 q-4 155 -8 233 q-6 92 -24 109 l114 0 q35 0 41 -33 q8 -117 10 -308 q176 3 293 13 q29 0 41 27 l0 -110 q0 -42 -46 -42 q-110 -13 -287 -14 l0 -110 q200 3 334 13 q29 0 42 27 l0 -113 q0 -43 -47 -43 q-125 -13 -330 -14 q-3 -128 -7 -159 q-9 -32 -37 -32 l-115 0 q22 18 25 119 q0 49 1 72 q-213 0 -341 8 q-47 1 -47 42 l0 109 q12 -23 56 -23 q142 -7 333 -7 l0 111 q-186 0 -301 8 q-46 1 -46 41 l0 107 q11 -24 54 -24 ZM229 767 q-7 -13 -9 -24 q0 -11 39 -71 q0 -3 55 -83 q3 -10 29 -12 l-56 -26 q-53 -28 -66 -28 q-24 0 -71 81 q-41 63 -41 84 q0 18 67 52 l53 27 Z" /><glyph glyph-name="" unicode="&#x5e2e;" d="M811 808 q62 0 90 -22 q25 -22 25 -53 q0 -32 -58 -117 q24 -7 38 -17 q32 -24 32 -105 q0 -69 -18 -117 q-12 -35 -38 -47 q-23 -10 -85 -10 q-95 0 -119 17 l-2 -17 q-9 -30 -35 -30 l-65 0 q3 -9 3 -16 l0 -23 q76 4 85 4 q73 0 125 -10 q74 -14 100 -34 q29 -23 29 -110 q0 -91 -14 -121 q-18 -27 -55 -38 q-31 -9 -79 -9 q-65 0 -103 6 q-20 6 -30 41 q-13 33 -33 81 q24 -15 60 -21 q31 -10 57 -10 q37 0 47 5 q18 9 18 66 q0 41 -38 50 q-30 6 -121 6 l-48 -1 l0 -186 q0 -67 -37 -67 l-124 0 q25 13 25 58 l0 184 q-4 -1 -10 -1 q-131 -22 -160 -22 q-14 0 -26 19 l0 -142 q0 -65 -35 -65 l-118 0 q24 12 24 55 l0 199 q0 49 -24 67 l104 0 q39 0 47 -34 q58 0 192 16 q4 0 6 1 l0 14 q0 50 -25 69 l109 0 q14 0 23 -3 q4 16 6 41 q2 132 2 176 q0 81 -10 211 q-6 52 -23 62 l108 0 q25 0 34 -17 l39 7 q52 10 105 10 ZM680 700 q2 -30 4 -92 q21 0 58 7 l3 0 l5 6 q57 63 57 79 q0 14 -27 14 q-42 0 -90 -12 l-10 -2 ZM683 430 q42 -6 82 -6 q21 0 29 4 q24 14 24 64 q0 38 -34 40 q-35 0 -82 -11 q-12 -3 -18 -3 l-1 -88 ZM256 779 q0 25 -21 41 l109 -14 q41 -5 41 -34 q62 2 96 7 q20 3 38 21 l0 -96 q0 -30 -19 -36 q-18 -8 -122 -10 q-1 -15 -3 -27 q55 1 91 6 q16 3 32 21 l0 -94 q0 -27 -18 -35 q-21 -10 -123 -11 l-7 -31 q88 1 139 9 q21 3 39 21 l0 -99 q0 -31 -18 -37 q-27 -12 -193 -12 q-7 -22 -23 -62 q-22 -48 -46 -48 q-13 0 -128 34 q35 6 59 75 l1 3 q-73 1 -99 8 q-19 9 -19 39 l0 97 q17 -16 49 -19 q48 -5 106 -7 l6 30 q-77 1 -100 8 q-18 9 -18 37 l0 92 q15 -16 41 -19 q50 -5 97 -6 q2 18 4 26 q-123 2 -153 9 q-19 9 -19 38 l0 94 q16 -16 47 -19 q77 -7 134 -7 l0 7 Z" /><glyph glyph-name="" unicode="&#x5305;" d="M750 91 q-66 0 -111 7 q-20 1 -49 51 l-38 54 q52 -10 92 -13 q31 -2 73 -2 q34 0 49 12 q12 12 15 56 q3 72 3 193 q0 154 -11 190 q-6 25 -31 38 q-20 10 -56 10 q-34 0 -101 -10 q-78 -10 -132 -23 q-99 -27 -128 -27 q-11 0 -20 9 l-41 -78 l35 -5 q20 -3 25 -10 q25 1 72 8 q84 12 133 12 q48 0 88 -10 q33 -9 49 -41 q17 -29 17 -104 l-1 -51 q14 5 25 16 l0 -94 q0 -27 -18 -35 q-26 -11 -212 -11 q-128 0 -176 4 l-5 -46 q-7 -62 -7 -95 q0 -78 120 -78 q133 0 270 20 q175 21 271 58 l-34 -112 q-13 -22 -45 -34 q-201 -25 -314 -32 q-128 -8 -189 -8 q-48 0 -119 22 q-56 22 -82 76 q-15 33 -15 66 q0 49 9 149 q12 112 24 202 q-11 -10 -23 -10 q-20 0 -123 56 q33 6 66 66 q126 233 126 262 q0 5 -6 20 l97 -49 q16 -10 22 -21 q12 2 19 4 q92 18 196 31 q93 13 151 13 q65 0 102 -14 q38 -16 65 -46 q27 -30 33 -75 q9 -48 9 -213 q0 -141 -5 -244 q-13 -77 -53 -95 q-48 -19 -111 -19 ZM555 345 q2 36 2 63 q0 35 -6 51 q-6 11 -22 11 q-69 0 -119 -13 q-72 -23 -85 -23 l-2 0 l-10 -83 q77 -7 164 -7 q54 0 78 1 Z" /><glyph glyph-name="" unicode="&#x4fdd;" d="M471 810 q32 0 43 -22 q41 4 85 10 q93 12 145 12 q51 0 87 -17 q45 -18 64 -53 q13 -32 13 -100 q0 -26 -5 -108 l-2 -15 q14 7 22 14 l0 -88 q0 -25 -17 -33 q-30 -10 -196 -10 q4 -42 6 -77 q109 1 183 8 q25 3 50 20 l0 -94 q0 -27 -17 -35 q-13 -4 -60 -7 q30 -148 66 -248 q0 -8 24 -17 l-68 -15 q-36 -9 -48 -9 q-9 0 -18 9 q-12 21 -39 144 q-21 88 -27 133 l-43 0 l0 -13 q0 -214 -8 -256 q-9 -31 -36 -31 l-113 0 q23 12 26 73 q2 140 2 186 l0 41 q-35 0 -50 1 l-7 -33 q-21 -114 -54 -217 q-12 -36 -24 -36 q-10 0 -40 8 q-38 12 -86 21 q18 6 25 35 q33 91 60 193 l8 31 q-39 1 -61 5 q-17 9 -17 37 l0 92 q23 -15 63 -18 q105 -7 178 -7 l-6 77 q-31 0 -63 2 q-9 -30 -32 -30 l-118 0 q25 9 25 54 l0 317 q0 49 -25 66 l105 0 ZM520 510 q70 -5 168 -5 q55 0 79 1 l4 40 q8 69 8 94 q0 40 -19 56 q-17 11 -48 11 q-34 0 -101 -10 q-66 -13 -76 -13 q-10 0 -15 4 l0 -178 ZM350 752 q23 -17 23 -28 q0 -16 -13 -49 q-38 -78 -69 -134 q8 -112 11 -296 q0 -248 -5 -300 q-6 -33 -47 -33 l-101 0 q22 19 22 57 q2 158 2 276 q0 36 -3 117 q-2 -1 -5 -1 q-19 0 -123 69 q23 0 56 57 q64 97 131 225 q25 58 25 72 q0 14 -3 24 l99 -56 Z" /><glyph glyph-name="" unicode="&#x62b1;" d="M168 674 q-4 43 -9 71 q-6 44 -22 64 l119 0 q28 0 37 -64 q4 -38 6 -71 q41 0 68 6 q12 3 28 23 l0 -108 q0 -31 -21 -40 q-11 -7 -69 -10 l1 -135 l25 13 q26 9 32 39 l36 -92 q6 -18 6 -28 q0 -24 -29 -42 l-72 -32 q-6 -247 -32 -302 q-26 -59 -100 -59 q-24 0 -66 10 q-25 6 -31 26 q-13 33 -27 83 q14 -9 37 -12 q16 -2 44 -2 q23 0 32 43 q7 60 10 159 l-19 -8 q-39 -15 -46 -15 q-23 0 -33 28 l-36 104 q14 -12 20 -12 q11 0 31 8 q50 18 86 33 l-1 193 q-71 0 -90 8 q-21 11 -21 42 l0 106 q12 -18 36 -21 q36 -5 70 -6 ZM792 110 q-105 0 -124 11 q-13 10 -17 20 l-45 95 q75 -26 136 -26 q37 0 50 34 q13 39 13 314 q0 72 -19 88 q-15 12 -54 12 q-70 0 -177 -18 l-22 -71 l3 0 q16 -3 23 -9 q14 0 33 3 q50 5 71 5 q25 0 46 -13 q23 -12 33 -39 q7 -26 7 -75 q0 -24 -6 -75 l3 1 q12 3 25 19 l0 -88 q0 -25 -17 -33 q-18 -9 -130 -9 q-52 0 -71 1 l-3 -58 q-3 -69 -3 -98 q0 -81 87 -81 q73 0 157 15 q101 15 158 45 l-35 -115 q-11 -23 -45 -35 q-106 -11 -172 -15 q-86 -4 -102 -4 q-39 0 -99 22 q-46 22 -67 78 q-13 32 -13 67 q0 62 4 153 q14 219 16 243 l-4 1 q-32 6 -81 17 q21 11 29 28 q27 65 57 156 q29 96 29 106 q0 13 -13 26 l107 -11 q26 -3 26 -28 q0 -7 -3 -22 q107 16 188 16 q52 0 88 -11 q46 -18 59 -48 q16 -45 16 -146 q0 -215 -10 -318 q-12 -70 -36 -94 q-36 -36 -96 -36 ZM633 360 q0 4 2 10 q11 52 11 71 q0 20 -2 34 q-3 6 -8 6 q-8 0 -32 -4 q-19 -4 -23 -4 q-10 0 -16 6 l-5 -88 q-2 -20 -2 -29 q22 -2 66 -2 l9 0 Z" /><glyph glyph-name="" unicode="&#x676f;" d="M239 700 q-6 93 -22 109 l107 0 q33 0 39 -31 l6 -102 q20 2 30 4 q16 5 31 24 l0 -106 q0 -30 -20 -39 q-8 -5 -37 -7 q2 -118 2 -189 l0 -35 l36 -30 q20 -17 36 -28 q61 146 110 302 l21 64 q-90 3 -117 9 q-20 10 -20 42 l0 103 q21 -19 53 -22 q102 -9 202 -9 q136 0 208 9 q21 5 42 24 l0 -106 q0 -29 -19 -39 q-30 -12 -215 -12 l-28 -95 l27 0 q34 0 40 -33 l3 -31 l35 20 l53 27 q-7 -15 -9 -24 q0 -29 47 -152 q0 -4 66 -177 q3 -10 29 -12 l-55 -26 q-51 -27 -65 -27 q-29 0 -84 167 q-6 16 -8 24 l0 -62 q0 -248 -8 -296 q-9 -31 -36 -31 l-113 0 q23 14 26 84 q2 162 2 215 q0 71 -5 174 q-36 -96 -84 -210 q-24 -59 -44 -59 q-13 0 -96 46 q-9 -8 -15 -8 q-5 0 -16 6 q-2 -174 -7 -214 q-9 -30 -35 -30 l-109 0 q21 18 24 119 q0 92 2 228 q-26 21 -43 37 q-11 -163 -23 -283 q-9 -90 -38 -90 q-9 0 -108 9 q24 22 30 110 q32 287 35 513 l-14 3 q-20 10 -20 42 l0 103 q14 -19 38 -22 q60 -8 134 -8 l-1 28 ZM231 477 q0 -19 17 -33 l-3 104 l-29 0 q0 -29 -2 -93 l17 22 Z" /><glyph glyph-name="" unicode="&#x5907;" d="M356 763 q264 36 383 36 q55 0 86 -24 q29 -26 29 -63 q0 -42 -37 -84 q-49 -49 -166 -113 q44 -15 75 -23 q169 -46 202 -46 q12 0 27 16 l-24 -69 q-21 -70 -41 -70 q-17 0 -60 11 q23 -32 25 -96 l0 -58 q0 -57 -5 -132 q21 3 44 17 l0 -91 q0 -25 -17 -34 q-44 -11 -315 -11 q-180 0 -270 5 q-9 -22 -29 -22 l-118 0 q24 11 24 54 l0 334 l-1 8 q-15 -3 -22 -3 q-18 0 -31 14 l-79 92 q14 -7 24 -7 q28 0 198 61 q24 8 68 26 l-23 9 q-43 14 -64 25 q-39 -54 -70 -54 q-20 0 -126 59 q36 5 74 53 q139 190 139 214 q0 4 -8 20 l108 -54 ZM298 202 q77 -6 154 -6 l0 55 q-101 -10 -132 -10 q-14 0 -22 6 l0 -45 ZM298 46 q78 -6 154 -6 l0 53 q-86 0 -154 4 l0 -51 ZM578 38 q105 0 147 2 q2 34 2 56 q-57 -3 -149 -3 l0 -55 ZM578 195 q68 0 148 4 q-2 62 -29 65 q-35 0 -119 -4 l0 -65 ZM290 339 q78 0 217 13 q116 10 203 13 q-37 9 -49 13 q-80 21 -173 54 q-96 -45 -181 -78 q-4 -2 -22 -8 l5 -7 ZM317 630 q107 -40 182 -66 q63 30 104 54 q91 49 91 65 q0 14 -21 14 q-85 0 -340 -44 q-10 -13 -16 -23 Z" /><glyph glyph-name="" unicode="&#x88ab;" d="M330 718 q34 0 59 -20 q22 -25 22 -54 q0 -47 -48 -140 q-42 -81 -88 -150 l1 -25 l12 -12 q49 86 49 98 q0 2 -5 14 l74 -37 q18 -12 18 -23 q0 -13 -53 -110 l-7 -14 q23 -21 42 -33 l7 -5 l15 133 q19 225 19 372 q-3 19 -20 33 l112 -7 q24 -3 27 -24 q27 0 81 6 l0 24 q0 50 -24 66 l105 0 q45 0 48 -45 l0 -38 l9 0 q76 0 110 -16 q35 -18 48 -48 q15 -33 15 -89 q0 -53 -15 -71 q-13 -26 -37 -26 l-116 24 q22 3 30 19 q12 15 12 54 q0 14 -2 32 q-5 17 -14 23 q-16 4 -31 4 l-9 0 l0 -180 l36 1 q58 0 95 -23 q39 -24 39 -70 q0 -59 -66 -155 q-30 -51 -60 -93 q41 -50 71 -79 q35 -35 45 -35 q6 0 22 6 l-57 -57 q-33 -36 -49 -36 q-25 0 -72 48 q-21 21 -41 45 q-5 -5 -15 -17 l-14 -17 q-56 -58 -73 -58 q-31 0 -71 37 q-24 19 -45 44 q41 0 140 114 l-18 26 q-79 100 -80 129 q0 20 50 58 l17 14 q-2 -1 -4 -1 q-59 -14 -74 -14 l-2 0 q-14 -171 -43 -363 q-6 -31 -22 -31 q-4 0 -120 25 q15 6 23 59 q2 19 10 70 q6 44 9 71 l-3 -3 q-29 -32 -45 -32 q-17 0 -46 23 q-12 8 -31 27 q0 -184 -5 -222 q-6 -32 -46 -32 l-97 0 q20 14 20 44 q2 120 2 211 l-2 46 q-3 -2 -7 -2 q-12 0 -28 10 q-39 27 -84 57 q39 0 130 126 q107 158 107 181 q0 15 -8 15 q-26 0 -77 -30 q-35 -19 -55 -19 q-20 0 -34 20 q-19 31 -53 81 q61 0 129 25 q-5 11 -10 26 q-16 39 -16 52 q0 25 36 37 l113 31 q-19 -15 -19 -27 q0 -10 16 -54 q5 -17 9 -26 q20 2 27 2 ZM658 339 q6 -21 58 -90 l22 -31 q54 84 54 113 q0 20 -28 20 q-37 0 -106 -12 ZM556 424 q27 2 80 14 q3 0 11 2 l0 183 q-61 -16 -72 -16 q-7 0 -9 2 q-2 -47 -10 -185 Z" /><glyph glyph-name="" unicode="&#x672c;" d="M422 700 q-6 92 -24 109 l117 0 q36 0 42 -33 l5 -101 q188 0 293 9 q38 5 71 25 l0 -111 q0 -32 -21 -41 q-27 -6 -124 -9 q6 -64 29 -175 q44 -216 112 -390 q4 -17 25 -23 q-54 -14 -82 -20 q-22 -6 -30 -6 q-29 0 -41 29 q-26 49 -50 136 l0 -23 q0 -31 -20 -40 q-25 -10 -159 -12 l-5 -81 q-11 -32 -39 -32 l-117 0 q22 18 27 113 q-133 2 -164 10 q-21 11 -21 42 l0 26 l-37 -113 q-21 -63 -37 -63 q-18 0 -125 55 q17 0 37 55 q78 214 126 412 l25 99 q-114 3 -144 8 q-21 12 -21 44 l0 108 q34 -20 90 -23 q141 -8 263 -8 l-1 24 ZM726 170 q-20 78 -37 182 q-23 144 -28 194 q-30 -1 -95 -1 q2 -112 2 -180 l-1 -212 q80 1 136 8 q11 1 23 9 ZM433 336 q0 61 -4 209 l-64 0 l-26 -120 q-31 -124 -72 -257 q12 -5 31 -7 q73 -7 134 -8 l1 183 Z" /><glyph glyph-name="" unicode="&#x2f50;&#x6bd4;" d="M310 47 q41 0 93 11 q62 12 117 41 l-59 -130 q-14 -26 -43 -32 q-128 -16 -157 -16 q-39 0 -82 17 q-39 20 -63 60 q-22 38 -22 178 q0 257 20 436 q15 153 15 171 q0 13 -20 25 l110 0 q52 0 52 -36 q0 -9 -26 -229 l0 -4 q37 -4 82 -4 q90 0 138 9 q14 3 27 24 l0 -110 q0 -33 -20 -41 q-19 -13 -145 -13 q-66 0 -89 2 q-6 -126 -6 -230 q0 -88 9 -103 q9 -17 29 -23 q18 -3 40 -3 ZM748 34 q35 0 90 13 q58 12 110 42 l-56 -128 q-14 -26 -42 -32 q-114 -18 -150 -18 q-38 0 -86 16 q-41 20 -65 59 q-24 38 -24 174 q0 265 23 449 q16 170 16 176 q0 11 -19 24 l104 0 q51 0 51 -35 q0 -5 -28 -237 q-1 -6 -1 -16 q105 36 192 78 q31 15 35 44 q51 -105 51 -123 q0 -21 -35 -38 q-101 -46 -215 -84 q-24 -9 -33 -9 l-2 0 q-6 -126 -6 -229 q0 -89 11 -101 q10 -15 32 -21 q20 -4 47 -4 Z" /><glyph glyph-name="" unicode="&#x7b14;" d="M352 739 q90 0 129 8 q14 3 27 21 l0 -96 q0 -29 -19 -37 q-14 -8 -95 -10 q0 -3 2 -7 q21 -73 35 -90 q1 -5 15 -8 q-36 -9 -71 -15 q-40 -10 -48 -10 q-8 0 -12 8 q-9 10 -27 80 q-11 33 -13 43 q-26 0 -46 4 q-19 -54 -37 -94 q-12 -30 -26 -30 q-14 0 -38 8 l-82 19 q18 3 27 28 q39 88 64 160 q16 56 16 64 q1 8 -12 23 l100 -13 q27 -4 27 -29 l-4 -23 q39 -4 88 -4 ZM784 738 q94 0 137 8 q14 3 27 21 l0 -96 q0 -29 -18 -37 q-17 -8 -107 -10 l3 -7 q25 -71 41 -87 q2 -5 20 -8 q-32 -8 -46 -10 q18 -69 18 -77 q0 -20 -81 -32 q-141 -21 -289 -30 l-7 -29 q162 15 250 26 q91 7 97 20 l39 -93 q6 -15 6 -23 q0 -10 -57 -16 q-184 -23 -359 -37 q-4 -26 -5 -38 q173 14 342 35 q109 11 115 27 l40 -96 q6 -15 6 -23 q0 -11 -66 -20 q-211 -28 -439 -47 q6 -23 24 -29 q29 -12 97 -12 q82 0 196 18 q88 12 171 41 l-49 -120 q-12 -29 -35 -35 q-106 -8 -222 -13 l-119 -2 q-45 0 -99 15 q-50 16 -75 47 q-19 29 -22 79 l-5 0 q-150 -12 -175 -12 q-32 0 -36 31 l-19 106 q12 -13 27 -13 q25 0 161 9 q34 2 49 4 q2 24 4 38 q-116 -10 -142 -10 q-30 0 -36 30 l-18 105 q11 -14 26 -14 q29 0 135 7 q34 2 53 4 l6 30 q-120 -7 -202 -7 q-38 0 -38 34 l0 104 q15 -19 34 -19 q122 0 259 11 q167 8 310 24 q24 2 35 4 q-10 17 -28 68 q-10 21 -16 43 q-38 2 -50 4 q-16 -46 -36 -90 q-12 -30 -26 -30 q-13 0 -37 8 l-80 19 q15 3 24 28 q26 63 56 159 q15 53 15 64 q2 9 -12 24 q32 -5 107 -14 q28 -6 28 -31 l-4 -23 q40 -5 97 -5 Z" /><glyph glyph-name="" unicode="&#x5fc5;" d="M206 738 q39 -3 39 -55 q0 -186 -38 -482 q-9 -76 -43 -76 q-20 0 -116 8 q22 18 31 93 q35 269 35 477 q0 26 -21 38 l113 -3 ZM563 35 q65 0 153 14 q100 15 187 49 l-56 -128 q-14 -25 -42 -31 q-220 -27 -289 -27 q-53 0 -120 19 q-56 23 -89 69 q-4 4 -4 6 q-23 -19 -69 -61 q-45 -34 -63 -34 q-11 0 -32 15 q-1 0 -87 80 q9 -1 22 -1 q15 0 76 51 q88 79 123 112 l0 35 q0 236 22 406 q16 154 16 159 q0 14 -21 26 l107 0 q52 0 52 -37 q0 -8 -26 -213 q-10 -125 -13 -244 q134 132 240 255 l5 6 l-38 -8 q-40 -10 -55 -10 q-8 0 -13 5 q-11 15 -30 101 q-24 96 -24 116 q0 18 49 30 l86 19 q-14 -11 -14 -24 q23 -118 53 -201 q0 -3 5 -6 q153 183 153 205 q0 6 -5 21 l116 -71 q12 -9 12 -24 q0 -22 -95 -134 q-59 -71 -103 -120 l105 24 q-14 -11 -14 -25 q34 -183 71 -290 q2 -10 28 -20 l-78 -17 q-40 -9 -54 -9 q-11 0 -19 8 q-14 20 -42 139 q-29 117 -32 151 q-150 -165 -303 -312 q4 -30 14 -40 q17 -22 55 -28 q38 -6 80 -6 Z" /><glyph glyph-name="" unicode="&#x907f;" d="M168 795 q25 0 97 -60 q26 -24 26 -42 q0 -12 -11 -26 l-73 -89 l4 11 q0 17 -36 42 q-85 62 -94 62 q-7 0 -16 -3 l69 82 q20 23 34 23 ZM218 517 q34 0 51 -26 q17 -32 17 -147 l0 -114 q0 -92 -9 -143 q6 -2 8 -2 q127 -25 319 -40 q172 -14 322 -14 q11 0 23 16 l-6 -64 q-4 -50 -13 -59 q-10 -9 -20 -9 q-99 0 -273 13 q-222 20 -341 46 q-39 13 -59 13 q-3 0 -29 -38 q-31 -37 -46 -37 q-14 0 -57 31 l-62 46 q25 0 44 22 l69 58 q14 64 14 161 l0 121 q0 57 -8 57 q-12 0 -25 -10 q-12 -6 -22 -6 q-18 0 -27 17 l-48 75 q57 0 98 16 q45 17 80 17 ZM521 798 q40 0 67 -16 q25 -24 28 -81 l0 -44 q0 -44 -10 -101 q11 8 19 19 l0 -84 q0 -25 -16 -31 q-13 -10 -103 -10 q-55 0 -79 3 q-1 -10 -1 -28 l65 0 q22 0 31 -15 q6 0 20 2 q36 4 44 4 q34 0 56 -16 q20 -19 23 -72 l0 -40 q0 -40 -8 -86 l3 1 q8 3 17 18 l0 -82 q0 -24 -16 -30 q-11 -10 -82 -10 q-43 0 -55 2 q-6 -20 -22 -20 l-87 0 q18 8 18 40 l0 256 q0 24 -8 38 l-17 -209 q-7 -87 -33 -87 q-13 0 -91 7 q18 20 24 105 q26 307 26 541 q0 21 -17 30 l89 -3 q16 -2 23 -10 q9 0 33 4 q42 5 59 5 ZM527 199 q21 -3 43 -3 q3 24 3 56 l-1 38 q0 41 -20 44 q-7 0 -15 -3 l-10 -3 l0 -129 ZM437 694 q-2 -95 -4 -141 q31 -4 68 -4 q5 30 5 65 l-1 41 q0 45 -26 48 q-9 0 -24 -5 q-13 -4 -18 -4 ZM725 746 q-3 11 -3 14 q0 22 30 34 l101 27 q-16 -12 -16 -23 q0 -9 11 -39 q1 -6 5 -14 q46 2 70 7 q13 3 26 19 l0 -90 q0 -25 -16 -33 q-6 -4 -21 -6 l0 -14 q0 -53 -9 -122 q12 0 22 3 q13 3 25 21 l0 -95 q0 -28 -17 -36 q-11 -8 -72 -10 l5 -57 q28 2 47 6 q10 3 22 19 l0 -90 q0 -25 -17 -33 q-10 -7 -51 -9 q-2 -106 -7 -125 q-7 -27 -32 -27 l-99 0 q19 8 22 50 q2 74 2 101 q-46 1 -61 8 q-16 9 -16 35 l0 88 q9 -16 27 -17 q27 -5 47 -5 l-5 56 q-68 0 -89 8 q-17 9 -17 38 l0 93 q10 -16 32 -19 q4 -1 13 -1 q-2 16 -2 29 q-5 55 -5 104 q-18 1 -29 5 q-16 9 -16 35 l0 88 q11 -14 33 -17 q30 -4 60 -6 ZM774 503 q8 -1 22 -1 l16 0 q8 62 8 94 l-1 41 l-49 0 q0 -74 4 -131 l0 -3 Z" /><glyph glyph-name="" unicode="&#x8fb9;" d="M168 795 q25 0 97 -60 q26 -24 26 -42 q0 -12 -11 -26 l-73 -89 l4 11 q0 17 -36 42 q-85 62 -94 62 q-7 0 -16 -3 l69 82 q20 23 34 23 ZM223 517 q35 0 50 -26 q18 -31 18 -147 l0 -114 q0 -89 -8 -145 l2 0 q127 -25 319 -40 q172 -14 322 -14 q11 0 23 16 l-6 -64 q-4 -50 -13 -59 q-10 -9 -20 -9 q-99 0 -273 13 q-222 20 -341 46 q-39 13 -59 13 q-3 0 -29 -38 q-31 -37 -46 -37 q-14 0 -57 31 l-62 46 q25 0 44 22 l48 40 q14 13 29 24 q11 66 11 155 l0 121 q0 57 -8 57 q-15 -2 -28 -13 q-12 -8 -24 -8 q-18 0 -27 17 l-48 75 q59 0 101 18 q46 20 82 20 ZM748 72 q-60 0 -96 7 q-30 0 -41 33 l-58 107 q50 -27 146 -27 q36 0 47 10 q14 8 15 31 l0 141 q0 156 -19 194 q-6 12 -35 12 q-23 0 -59 -2 q-56 -220 -128 -412 q-31 -75 -60 -75 q-12 0 -42 9 q-42 9 -90 21 q39 9 57 75 q68 185 118 365 q-34 -5 -61 -5 q-27 0 -42 24 q-33 58 -68 106 q15 -7 43 -7 q67 0 161 10 q16 72 16 87 q2 11 -15 27 q65 -9 118 -15 q32 -6 32 -33 q0 -13 -9 -52 q45 3 80 3 q51 0 84 -24 q29 -24 38 -81 q16 -106 16 -227 l0 -120 q-6 -125 -41 -154 q-31 -28 -107 -28 Z" /><glyph glyph-name="" unicode="&#x7f16;" d="M216 288 q32 0 66 9 q47 8 76 37 l-16 -100 q-4 -20 -35 -26 q-65 -25 -111 -25 q-69 0 -99 34 q-26 27 -26 58 q0 29 43 103 q22 38 40 63 l-8 0 q-39 0 -65 24 q-25 26 -25 66 q0 33 35 88 q46 69 119 141 q31 31 31 43 l-4 15 l63 -55 q10 -13 10 -26 q0 -17 -14 -34 q-69 -84 -93 -126 q-13 -20 -13 -30 q0 -10 15 -10 q15 0 23 1 l20 23 q57 59 57 68 q0 4 -5 17 l76 -50 q22 -16 22 -30 q0 -17 -39 -53 q-75 -76 -139 -165 q-20 -30 -20 -45 q0 -15 16 -15 ZM114 -56 q-18 0 -29 30 l-35 92 q14 -12 20 -12 q9 0 24 5 q108 36 192 76 q25 12 31 37 q45 -93 45 -109 q0 -18 -31 -34 q-82 -38 -187 -77 q-24 -8 -30 -8 ZM505 313 q-8 -117 -23 -298 q-9 -103 -40 -103 l-101 8 q23 24 30 126 q35 364 35 645 q0 23 -18 32 l96 -3 q23 -1 30 -21 q3 0 96 13 l-2 5 q-12 33 -12 41 q0 23 30 33 q42 12 99 27 q-16 -12 -16 -23 q0 -7 15 -42 q8 -21 11 -27 q45 3 76 3 q36 0 55 -9 q30 -12 43 -31 q17 -20 17 -60 q0 -36 -2 -72 q8 3 18 11 l0 -80 q0 -24 -14 -30 q-30 -10 -228 -10 q-137 0 -188 4 q-2 -34 -2 -48 l61 0 q25 0 31 -22 q30 3 87 15 q95 19 120 19 q41 0 70 -16 q40 -20 55 -53 q16 -37 16 -173 q0 -143 -8 -191 q-9 -45 -29 -59 q-17 -14 -41 -14 q-31 0 -63 4 q-11 3 -19 26 l-2 7 l-63 0 q12 9 15 57 l1 100 l-25 0 q-1 -108 -5 -138 q-6 -19 -23 -19 l-70 0 q13 9 16 54 l1 104 l-23 1 q-1 -142 -6 -172 q-6 -24 -28 -24 l-89 0 q17 10 20 65 q2 128 2 168 q0 77 -6 170 ZM822 105 q-1 -89 -3 -121 q13 3 19 12 q11 19 14 111 q-20 -2 -30 -2 ZM612 199 q7 -1 22 -1 q-1 31 -5 104 q-11 -4 -17 -4 q-3 0 -3 1 q2 -50 3 -100 ZM709 327 q5 -48 7 -133 l24 0 l-6 137 q-18 -2 -25 -4 ZM816 331 q5 -57 6 -135 q11 0 31 2 q-3 100 -18 121 q-8 8 -19 12 ZM518 612 q-2 -44 -2 -64 q78 -5 184 -5 q77 0 109 1 l1 55 q0 32 -14 38 q-12 2 -34 2 q-33 0 -120 -9 q-106 -18 -122 -18 l-2 0 Z" /><glyph glyph-name="" unicode="&#x4fbf;" d="M303 752 q23 -17 23 -28 q0 -18 -11 -49 q-34 -83 -58 -135 q8 -111 11 -295 q0 -248 -5 -300 q-6 -33 -47 -33 l-101 0 q22 19 22 57 q2 158 2 276 l-4 122 q-33 15 -105 63 q19 0 46 57 q61 109 110 225 q21 56 21 72 q0 14 -3 24 l99 -56 ZM644 767 q172 0 247 8 q25 3 49 21 l0 -94 q0 -29 -17 -35 q-35 -11 -218 -11 l0 -28 q32 2 43 2 q56 0 96 -20 q49 -22 68 -59 q16 -35 16 -112 q0 -31 -5 -121 q-2 -14 -2 -18 l15 9 l0 -85 q0 -26 -16 -32 q-29 -10 -223 -10 q-4 -30 -9 -51 q-8 -29 -21 -49 q95 -33 176 -49 q57 -12 77 -12 q15 0 28 19 l-16 -79 q-8 -50 -30 -50 q-40 0 -126 20 q-88 23 -165 51 q-9 4 -27 10 q-40 -28 -88 -53 q-64 -32 -88 -32 q-24 0 -99 84 q15 -3 20 -3 q16 0 64 21 q26 13 64 37 q-17 6 -34 15 q-49 21 -49 39 q0 17 17 62 l2 7 l-44 0 q20 9 23 60 q2 118 2 155 q0 73 -10 186 q-6 47 -21 56 l101 0 q31 0 37 -30 q24 2 95 14 l0 46 q-174 0 -218 9 q-17 9 -17 37 l0 92 q22 -16 62 -19 q107 -8 241 -8 ZM547 130 q15 26 20 53 q-55 0 -87 3 q-7 -14 -20 -16 l87 -40 ZM492 290 q56 -4 84 -4 l0 62 q-53 0 -83 3 l-1 -61 ZM704 284 q64 0 91 1 q3 20 6 48 q0 6 2 18 q-37 -3 -98 -3 l-1 -64 ZM493 453 q56 -4 83 -5 l0 58 q-57 -12 -64 -12 q-13 0 -21 8 q0 -17 2 -49 ZM705 526 l0 -79 q59 0 104 5 q-5 44 -28 60 q-22 14 -65 14 l-11 0 Z" /><glyph glyph-name="" unicode="&#x53d8;" d="M100 744 q123 -6 341 -6 q-10 34 -10 45 q0 16 45 26 l77 18 q-13 -9 -13 -22 q10 -41 19 -66 q213 2 353 10 q24 0 36 24 l0 -97 q0 -37 -40 -37 q-89 -7 -201 -8 l0 -227 q0 -62 -33 -62 l-112 0 q23 9 23 52 l0 227 l-1 8 l-154 0 l0 -225 q0 -62 -34 -62 l-112 0 q24 9 24 52 l0 236 q-123 0 -216 5 q-40 1 -40 37 l0 91 q9 -19 48 -19 ZM849 598 q-7 -15 -8 -23 q0 -12 36 -72 q0 -1 51 -84 q3 -10 26 -12 l-53 -25 q-48 -26 -62 -26 q-23 0 -66 83 q-37 64 -37 85 q0 15 63 48 l50 26 ZM159 602 l84 -54 q22 -14 22 -32 q0 -18 -51 -108 q-39 -69 -54 -69 q-14 0 -32 14 l-80 55 q16 0 37 34 q75 116 75 142 l-1 18 ZM212 -87 q-22 0 -38 22 l-84 95 q10 -5 29 -5 q31 0 182 47 q-113 39 -116 54 q0 19 51 59 l10 8 q-16 -1 -42 -1 q-22 0 -33 20 l-58 86 q18 -5 55 -5 q114 0 222 12 q182 14 344 14 q55 -3 83 -25 q32 -32 32 -66 q0 -43 -94 -98 q-46 -28 -93 -50 q91 -27 157 -41 q81 -20 105 -20 q9 0 24 7 l-61 -62 q-37 -40 -55 -40 q-51 0 -160 28 q-85 22 -179 53 q-28 -10 -84 -32 q-160 -60 -197 -60 ZM299 197 q27 -12 118 -41 q40 -14 73 -24 q173 57 173 74 q0 12 -18 12 q-150 0 -273 -14 q-36 -5 -73 -7 Z" /><glyph glyph-name="" unicode="&#x6807;" d="M235 700 q-6 93 -22 109 l107 0 q33 0 39 -31 q4 -56 6 -101 q15 0 27 3 q14 5 29 24 l0 -106 q0 -30 -20 -39 q-8 -4 -32 -7 q2 -116 2 -189 l0 -51 l2 -2 q41 -39 45 -39 q12 0 27 4 l-75 -85 q-3 -207 -7 -249 q-9 -30 -35 -30 l-109 0 q21 18 24 119 q0 89 2 221 l-14 14 q-16 15 -28 28 q-11 -156 -22 -281 q-9 -90 -38 -90 q-9 0 -108 9 q23 23 29 110 q32 287 35 513 q-11 0 -17 3 q-20 10 -20 42 l0 103 q14 -19 38 -22 q61 -8 136 -8 l-1 28 ZM230 472 q0 -16 14 -30 l-3 106 l-28 0 q0 -31 -2 -101 l19 25 ZM690 779 q114 0 174 9 q18 3 35 22 l0 -102 q0 -30 -19 -38 q-27 -12 -190 -12 q-160 0 -193 10 q-19 9 -19 40 l0 100 q14 -17 43 -20 q84 -9 169 -9 ZM685 529 q143 0 218 9 q22 3 44 22 l0 -102 q0 -30 -19 -38 q-28 -10 -189 -12 q9 -63 9 -173 q0 -244 -30 -288 q-24 -36 -91 -36 q-23 0 -63 10 q-25 6 -30 27 q-15 47 -19 63 q-10 -21 -19 -21 q-9 0 -38 8 q-34 7 -82 18 q17 5 24 34 q32 94 56 192 q16 67 16 76 q1 9 -13 23 q21 -2 52 -6 l49 -7 q26 -5 26 -29 q0 -7 -11 -60 q-23 -115 -55 -213 q9 -5 23 -7 q21 -3 41 -3 q20 0 27 23 q12 45 12 196 q0 116 -10 173 q-144 2 -176 10 q-20 9 -20 40 l0 100 q20 -17 56 -20 q105 -9 212 -9 ZM902 350 q-14 -11 -14 -22 q0 -24 19 -131 q21 -141 35 -175 q3 -10 18 -16 q-21 -5 -67 -14 q-43 -10 -46 -10 q-9 0 -14 15 q-12 24 -33 162 q-20 101 -20 135 q0 21 29 30 q53 16 93 26 Z" /><glyph glyph-name="" unicode="&#x8868;" d="M427 755 q-6 44 -24 53 l117 0 q36 0 42 -33 l5 -35 q192 0 300 9 q36 3 72 21 l0 -99 q0 -30 -18 -38 q-53 -11 -348 -11 l0 -42 q166 0 270 8 q34 3 67 21 l0 -97 q0 -28 -18 -36 q-49 -11 -321 -11 q-3 -27 -3 -41 q197 0 306 9 q36 3 74 22 l0 -100 q0 -29 -18 -37 q-18 -4 -87 -7 l69 -59 q11 -13 11 -23 q0 -14 -32 -40 q-21 -19 -95 -77 l20 -19 q94 -85 109 -85 q23 0 27 6 q-39 -49 -75 -83 q-25 -23 -45 -23 q-24 0 -118 100 q-138 132 -255 298 l-24 0 l-8 -30 q-7 -27 -11 -40 q-9 -33 -26 -119 q-9 -43 -9 -61 q0 -37 41 -37 q48 0 100 15 q66 15 102 45 l-35 -115 q-11 -23 -45 -35 q-63 -10 -102 -15 q-52 -4 -61 -4 q-30 0 -76 16 q-34 15 -51 58 q-10 23 -10 49 q0 39 11 99 q-28 -25 -55 -46 q-39 -32 -55 -32 q-16 0 -30 15 l-70 80 l18 0 q25 1 142 108 q35 31 53 51 q-141 1 -190 8 q-18 11 -18 39 l0 98 q31 -17 95 -20 q144 -7 291 -9 l0 4 q0 25 1 37 q-262 0 -325 9 q-18 9 -18 38 l0 95 q29 -17 86 -19 q151 -7 258 -7 l-1 41 q-284 0 -352 9 q-19 10 -19 40 l0 97 q32 -16 92 -19 q144 -8 270 -8 l-1 14 ZM615 306 q50 -61 91 -103 q33 26 36 29 q84 60 84 75 l0 3 q-108 -4 -211 -4 Z" /><glyph glyph-name="" unicode="&#x522b;" d="M170 809 q45 0 49 -42 q23 3 57 12 q75 18 118 18 q43 0 72 -17 q37 -17 53 -49 q11 -30 11 -95 q0 -11 -4 -93 q10 8 14 12 l0 -99 q0 -31 -19 -37 q-22 -12 -171 -12 l-7 0 q8 -10 8 -14 l-1 -17 l25 2 q54 0 88 -14 q51 -20 69 -49 q21 -33 21 -159 q0 -134 -12 -176 q-16 -41 -44 -55 q-24 -12 -62 -12 q-63 0 -112 7 q-20 3 -32 41 q-23 58 -35 85 q16 -13 49 -20 q24 -10 46 -10 q36 0 47 10 q20 18 20 130 q0 86 -20 103 q-15 12 -63 12 l-15 -1 q-59 -172 -120 -301 q-29 -65 -42 -65 q-15 0 -119 67 q22 0 52 77 q31 69 79 187 q-29 -10 -39 -10 q-19 0 -36 33 q-14 23 -49 89 q21 -12 52 -12 q36 0 117 17 l16 58 q-13 0 -18 1 q-9 -24 -29 -24 l-119 0 q25 11 25 55 l0 301 q0 49 -25 66 l105 0 ZM219 532 q60 -7 131 -7 l42 0 l3 23 q6 60 6 88 q0 29 -11 42 q-13 8 -31 8 q-27 0 -69 -14 q-47 -16 -52 -16 q-11 0 -19 6 l0 -130 ZM695 727 q32 0 38 -30 q12 -102 12 -266 q0 -240 -8 -286 q-9 -29 -34 -29 l-106 0 q20 12 23 81 q2 158 2 208 q0 95 -10 248 q-6 62 -21 74 l104 0 ZM779 -89 q-36 0 -88 11 q-35 6 -43 29 q-15 36 -37 92 q22 -22 59 -31 q39 -6 70 -6 q31 0 41 45 q17 96 17 397 q0 224 -15 299 q-6 46 -21 62 l116 0 q27 0 36 -62 q13 -109 13 -299 q0 -408 -36 -477 q-30 -60 -112 -60 Z" /><glyph glyph-name="" unicode="&#x5175;" d="M772 165 q-7 -19 -8 -27 q0 -12 54 -72 q0 -1 78 -84 q3 -11 30 -14 l-59 -26 q-55 -30 -70 -30 q-32 0 -95 84 q-55 64 -55 86 q0 18 71 53 l54 30 ZM287 632 q2 -44 2 -69 q6 -2 16 -2 q119 -8 270 -8 q195 0 280 8 q28 3 57 22 l0 -97 q0 -28 -18 -36 q-25 -7 -128 -9 l0 -144 q95 4 143 7 q28 0 40 27 l0 -108 q0 -41 -45 -41 q-136 -13 -407 -13 q-274 0 -401 7 q-45 2 -45 40 l0 104 q10 -22 53 -22 q34 -2 55 -2 l0 4 q2 140 2 185 q0 86 -10 221 q-6 55 -23 65 l110 0 q28 0 37 -23 q81 0 199 11 q136 7 257 27 q94 12 101 37 q29 -108 29 -116 q0 -19 -68 -31 q-142 -23 -273 -31 q-140 -11 -233 -13 ZM286 293 q63 -2 211 -2 q50 0 140 2 l0 139 l-1 7 l-61 0 q-217 0 -285 5 q-2 -116 -4 -151 ZM336 101 q23 -14 23 -34 q0 -18 -81 -96 q-66 -61 -87 -61 q-10 0 -36 16 l-89 61 q28 0 60 29 q120 102 120 124 q0 9 -2 21 l92 -60 Z" /><glyph glyph-name="" unicode="&#x51b0;" d="M558 -85 q-30 0 -68 9 q-27 6 -33 28 q-13 33 -28 86 q15 -14 40 -19 q23 -4 48 -4 q26 0 35 44 q13 88 14 353 q-10 -28 -32 -81 q-61 -145 -154 -283 q-45 -67 -68 -67 q-8 3 -26 13 q-31 16 -77 41 q-14 -42 -21 -56 q-9 -19 -29 -19 l-119 40 q20 1 29 16 q38 97 65 209 q24 117 24 176 q0 60 -22 146 q-24 66 -69 144 q-9 15 -32 15 l61 32 q43 26 51 26 q20 0 38 -33 q32 -46 62 -125 q37 -105 37 -194 q0 -45 -12 -114 q-9 -84 -39 -183 q-6 -18 -19 -63 q35 27 91 119 q66 101 112 207 q46 104 46 126 q0 22 -30 25 q-19 0 -50 -17 q-15 -6 -19 -6 q-14 0 -25 11 l-84 114 q21 -6 59 -6 q36 0 71 7 q41 9 87 9 q61 0 91 -24 q-3 85 -11 130 q-8 46 -24 62 l122 0 q30 0 38 -62 q9 -81 12 -219 q71 74 113 134 q33 45 33 55 l-4 26 l98 -84 q18 -15 18 -28 q0 -14 -31 -48 q-76 -91 -172 -170 l17 -37 q82 -180 132 -260 q29 -42 34 -42 q9 0 27 7 l-66 -66 q-37 -42 -57 -42 q-17 0 -51 61 q-34 55 -93 205 q-7 -216 -32 -265 q-27 -59 -108 -59 Z" /><glyph glyph-name="" unicode="&#x75c5;" d="M641 587 q169 0 249 7 q24 3 49 22 l0 -97 q0 -28 -18 -36 q-32 -10 -199 -11 l-5 -40 l35 1 q60 0 97 -15 q56 -21 77 -56 q22 -38 22 -180 q0 -149 -14 -199 q-20 -46 -59 -61 q-33 -15 -83 -15 q-58 0 -98 5 q-17 4 -29 35 q-15 38 -30 70 q24 -10 67 -13 q42 -7 64 -7 q31 0 43 13 q13 20 16 112 l-29 -33 q-30 -37 -42 -37 q-17 0 -99 94 q-12 10 -19 19 q-23 -53 -43 -88 q-20 -38 -37 -38 q-21 0 -94 37 q-3 -106 -8 -137 q-9 -28 -33 -28 l-104 0 q21 12 24 68 q2 132 2 173 q0 81 -10 208 q-6 52 -21 62 l101 0 q23 0 32 -17 q49 2 136 13 q5 0 13 2 q4 18 8 52 q-201 0 -248 9 q-18 9 -18 38 l0 95 q21 -17 63 -20 q112 -7 242 -7 ZM681 285 q42 -48 99 -105 q37 -38 42 -38 l4 0 l0 40 q0 118 -26 141 q-22 16 -83 16 l-20 -1 q-3 -6 -3 -9 l-13 -44 ZM462 96 q8 8 15 19 q63 119 93 211 q-88 -18 -105 -18 q-5 0 -7 2 q4 -80 4 -132 l0 -82 ZM520 746 q-2 4 -2 10 q0 25 35 37 l113 31 q-19 -15 -19 -27 q0 -7 18 -42 l4 -10 q130 0 213 8 q30 3 56 20 l0 -94 q0 -27 -18 -35 q-38 -11 -316 -11 q-218 0 -283 5 q-9 -262 -58 -620 q-15 -111 -69 -111 q-8 0 -107 9 q41 27 54 135 q7 46 19 134 q-14 -14 -21 -20 q-21 -18 -24 -18 q-23 0 -35 29 l-38 110 q14 -12 20 -12 q5 0 18 9 q64 44 100 76 q9 94 11 124 l-38 -45 q4 8 4 11 q0 13 -28 38 q-66 57 -73 57 q-6 0 -15 -3 l61 73 q17 19 30 19 q16 0 65 -44 q4 108 4 157 q0 22 -19 35 l104 -3 q23 -1 32 -23 q12 -2 19 -2 q107 -7 183 -7 Z" /><glyph glyph-name="" unicode="&#x5e76;" d="M145 612 q115 -7 353 -7 q71 0 137 3 q-25 10 -74 37 q20 3 41 28 q78 102 78 115 q0 4 -8 20 l106 -52 q27 -18 27 -36 q0 -10 -76 -98 l-9 -11 q97 4 144 8 q29 0 42 27 l0 -113 q0 -43 -47 -43 q-48 -6 -109 -9 q6 -75 9 -176 q99 4 148 8 q29 0 42 27 l0 -113 q0 -43 -47 -43 q-59 -6 -142 -9 q-1 -185 -8 -228 q-10 -33 -39 -33 l-120 0 q23 12 26 84 q2 128 2 174 q-39 -1 -123 -1 q-96 0 -138 1 q-24 -112 -67 -239 q-13 -22 -39 -22 q-6 0 -138 28 q28 6 40 44 q34 95 59 191 q-53 0 -117 4 q-47 1 -47 42 l0 110 q12 -24 56 -24 q71 -4 136 -5 q18 99 21 178 q-61 1 -129 5 q-47 1 -47 42 l0 109 q12 -23 57 -23 ZM619 301 q-3 78 -9 165 l-1 11 q-35 -1 -111 -1 l-99 0 q-3 -87 -17 -177 l116 0 q43 0 121 2 ZM326 809 q-7 -15 -9 -26 q0 -8 33 -47 q0 -1 45 -55 q3 -12 28 -13 l-57 -26 q-52 -29 -68 -29 q-22 0 -62 56 q-35 42 -35 57 q0 18 70 54 l55 29 Z" /><glyph glyph-name="" unicode="&#x535a;" d="M136 700 q-6 92 -24 109 l114 0 q35 0 41 -33 q3 -48 7 -137 q26 2 44 6 q13 5 25 24 l0 -106 q0 -30 -20 -39 q-8 -7 -46 -10 l1 -150 q0 -346 -7 -421 q-9 -32 -38 -32 l-115 0 q23 18 26 119 q2 232 2 306 q0 84 -3 177 q-55 2 -72 9 q-19 10 -19 42 l0 103 q10 -19 30 -22 q27 -5 57 -7 l-3 62 ZM594 745 q0 49 -24 64 l102 0 q45 0 48 -44 l0 -27 q30 0 76 2 q-41 23 -46 23 l-9 -1 l38 46 q11 12 19 12 q17 0 69 -33 q19 -14 19 -24 q0 -8 -6 -14 l-5 -6 q11 0 25 2 q26 3 50 18 l0 -80 q0 -24 -14 -30 q-37 -10 -216 -10 l0 -27 l36 1 q54 0 97 -19 q47 -18 69 -55 q16 -35 16 -107 l-4 -114 q-4 -55 -9 -67 q-7 -19 -15 -19 l-118 4 q9 6 13 16 q2 6 3 24 q-24 -2 -88 -2 q0 -64 -34 -64 l-116 0 q24 11 24 54 l0 10 q-59 0 -94 3 q-4 -50 -34 -50 l-115 0 q23 11 23 54 l0 267 q0 48 -23 65 l101 0 q30 0 40 -18 l102 8 l0 36 q-182 0 -230 8 q-14 8 -14 32 l0 78 q21 -13 62 -16 q92 -6 182 -6 l0 6 ZM594 517 q-72 -8 -89 -8 q-5 0 -5 1 l0 -29 q62 -4 94 -4 l0 40 ZM814 364 q2 24 2 32 q-26 -2 -96 -2 l0 -34 q42 0 94 4 ZM812 480 q-6 18 -20 31 q-21 15 -64 15 l-8 0 l0 -50 q40 0 92 4 ZM500 365 q64 -4 94 -4 l0 33 q-59 0 -94 3 l0 -32 ZM646 190 q69 0 99 1 l-5 13 q-6 17 -22 23 l119 0 q28 0 37 -23 q1 -4 3 -8 q14 0 20 1 q27 3 51 18 l0 -84 q0 -27 -15 -33 q-14 -4 -46 -5 q0 -138 -35 -162 q-29 -20 -108 -20 q-34 0 -76 9 q-30 5 -36 24 q-17 37 -32 75 q18 -12 48 -15 q33 -3 59 -3 q25 0 34 9 q14 20 14 80 q-33 -1 -109 -1 q-118 0 -161 1 q34 -20 62 -41 q27 -21 27 -38 q0 -8 -9 -20 l-56 -69 q3 6 3 9 q0 16 -36 37 q-86 56 -95 56 q-3 0 -13 -2 l57 67 l3 2 q-50 1 -75 5 q-16 9 -16 35 l0 83 q21 -14 64 -17 q113 -7 245 -7 Z" /><glyph glyph-name="" unicode="&#x4e0d;" d="M447 632 q-213 0 -343 8 q-44 1 -44 40 l0 104 q10 -23 53 -23 q135 -6 383 -6 q220 0 400 13 q28 0 41 27 l0 -108 q0 -41 -45 -41 q-103 -11 -288 -13 q-8 -34 -66 -112 q9 -9 12 -23 q12 -102 12 -263 q0 -237 -7 -290 q-10 -33 -39 -33 l-120 0 q23 12 26 82 q2 160 2 211 q0 68 -5 170 q-6 -6 -14 -16 l-12 -14 q-167 -188 -228 -188 q-15 0 -41 18 l-101 69 q75 0 156 91 q201 203 268 297 ZM758 532 q-8 -10 -8 -13 q-5 -5 -5 -14 q0 -5 20 -36 q69 -114 159 -228 q11 -16 39 -16 q-43 -26 -65 -38 q-60 -38 -81 -38 q-11 0 -40 39 q-42 51 -111 165 q-53 78 -53 97 q0 20 63 48 l82 34 Z" /><glyph glyph-name="" unicode="&#x5e03;" d="M816 -31 q-75 0 -123 8 q-21 6 -36 51 q-20 58 -38 103 q22 -22 54 -29 q29 -13 52 -13 q35 0 46 10 q19 19 19 136 q0 92 -41 110 q-32 13 -128 13 l-13 0 l1 -110 q0 -253 -7 -309 q-9 -32 -38 -32 l-115 0 q23 15 26 88 q2 170 2 224 q0 62 -3 131 l-36 -3 q-115 -15 -129 -16 l0 -293 q0 -65 -36 -65 l-118 0 q25 13 25 55 l0 248 q-23 -26 -38 -26 q-19 0 -120 67 q36 0 85 77 q81 111 145 213 q-91 2 -152 6 q-45 2 -45 40 l0 103 q10 -22 53 -22 q84 -4 214 -6 q27 56 27 73 q0 15 -3 24 l92 -53 q23 -17 23 -26 q0 -7 -2 -19 l39 0 q231 1 408 14 q28 0 40 26 l0 -107 q0 -41 -45 -41 q-130 -14 -403 -14 l-98 0 q-43 -77 -91 -151 q66 4 132 10 q11 0 27 2 l-1 21 q-6 68 -24 80 l114 0 q35 0 41 -33 l5 -59 l63 2 q78 0 126 -15 q75 -21 101 -53 q29 -35 29 -174 q0 -142 -10 -192 q-13 -44 -40 -59 q-21 -15 -56 -15 Z" /><glyph glyph-name="" unicode="&#x6b65;" d="M565 808 q49 0 52 -47 l0 -48 q44 -5 107 -5 q97 0 141 8 q13 3 29 23 l0 -103 q0 -29 -20 -38 q-19 -11 -150 -11 q-68 0 -107 3 l0 -99 q155 0 257 8 q36 3 74 22 l0 -102 q0 -30 -19 -38 q-49 -12 -335 -12 l0 -138 q0 -64 -35 -64 l-119 0 q25 9 25 54 l0 148 q-312 0 -392 10 q-19 9 -19 40 l0 100 q31 -17 93 -20 q38 -2 57 -2 l0 148 q0 50 -25 69 l107 0 q47 0 50 -46 l0 -175 q72 -3 145 -3 l0 249 q0 50 -25 69 l109 0 ZM284 358 l74 -68 q13 -18 13 -26 q0 -14 -28 -37 q-76 -62 -149 -103 q-33 -20 -47 -20 q-16 0 -28 15 l-68 77 l15 0 q19 0 119 65 q99 66 99 82 l0 15 ZM184 -90 q-25 0 -31 27 l-25 100 q10 -7 18 -7 q42 0 157 28 q236 67 415 168 q93 57 93 80 q0 5 -4 17 l106 -38 q20 -8 20 -23 q0 -24 -47 -63 q-102 -85 -219 -137 q-117 -59 -319 -116 q-132 -36 -164 -36 Z" /><glyph glyph-name="" unicode="&#x90e8;" d="M824 810 q69 0 98 -23 q26 -24 26 -58 q0 -67 -69 -253 l-8 -19 q17 -5 33 -16 q33 -27 33 -108 q0 -143 -17 -254 q-12 -76 -37 -102 q-24 -22 -81 -22 q-66 0 -78 21 l-28 66 q-3 -87 -5 -100 q-9 -30 -35 -30 l-109 0 q21 18 24 119 q2 232 2 306 q0 141 -10 364 q-4 93 -22 109 l107 0 q27 0 36 -20 q20 3 44 9 q44 11 96 11 ZM693 698 q5 -109 6 -249 q18 0 41 5 q13 27 24 61 q55 154 55 187 q0 13 -28 13 q-38 0 -80 -12 q-16 -5 -18 -5 ZM699 350 q0 -149 -2 -285 q36 -15 72 -15 q17 0 24 17 q20 54 20 253 q0 43 -34 45 q-29 0 -64 -12 q-10 -3 -16 -3 ZM239 729 q-6 18 -6 24 q0 23 33 35 l106 29 q-17 -13 -17 -25 q0 -9 10 -43 q3 -13 6 -20 q73 1 124 8 q20 5 38 23 l0 -105 q0 -29 -19 -39 q-9 -4 -20 -5 l-17 -99 q-6 -33 -12 -57 q20 1 47 5 q20 3 42 23 l0 -105 q0 -31 -20 -39 q-30 -12 -229 -12 q-194 0 -234 10 q-19 9 -19 42 l0 102 q18 -18 52 -21 q18 -3 37 -3 l-11 56 q-15 71 -18 97 q-16 2 -21 4 q-20 10 -20 42 l0 102 q18 -18 49 -21 q67 -7 119 -8 ZM346 451 q13 65 20 105 q6 30 9 49 q-22 -1 -71 -1 l-71 0 q1 -9 10 -53 q14 -77 20 -99 q14 -1 42 -1 l41 0 ZM168 305 q43 0 49 -37 q20 2 79 14 q87 12 132 12 q27 0 44 -11 q21 -13 33 -35 q13 -26 13 -70 q0 -58 -2 -108 q11 6 23 19 l0 -106 q0 -29 -19 -39 q-24 -12 -178 -12 q-84 0 -129 3 q-9 -27 -31 -27 l-121 0 q25 13 25 56 l0 273 q0 49 -25 68 l107 0 ZM218 62 q62 -6 124 -6 l42 0 l1 89 q0 26 -6 32 l-14 1 q-18 0 -66 -6 q-60 -15 -69 -15 q-7 0 -12 3 l0 -98 Z" /><glyph glyph-name="" unicode="&#x624d;" d="M563 -88 q-56 0 -128 12 q-53 9 -64 38 q-24 44 -55 112 q37 -28 91 -38 q53 -8 109 -8 q46 0 62 43 q26 92 26 380 l-1 102 l-26 0 q-11 -46 -59 -130 q-82 -156 -258 -342 q-77 -83 -113 -83 q-23 0 -112 76 q12 -3 20 -3 q22 0 74 56 q178 186 269 343 q18 32 43 82 q-192 0 -310 8 q-45 2 -45 40 l0 104 q12 -23 54 -23 q120 -7 366 -7 q62 0 92 1 q-4 48 -9 75 q-8 46 -24 62 l123 0 q29 0 38 -62 q4 -38 6 -71 q85 3 157 9 q27 0 40 26 l0 -107 q0 -41 -45 -41 q-56 -7 -147 -10 l1 -105 q0 -407 -43 -479 q-33 -60 -132 -60 Z" /><glyph glyph-name="" unicode="&#x91c7;" d="M115 761 q122 0 288 9 q169 5 344 22 q125 9 135 30 q30 -108 30 -119 q0 -16 -90 -25 q-182 -19 -362 -26 q-217 -10 -341 -10 q-37 0 -37 34 l0 104 q15 -19 33 -19 ZM252 635 q-7 -7 -7 -11 q-5 -5 -5 -13 q0 -4 8 -17 q26 -50 63 -106 q9 -14 34 -14 q-38 -23 -58 -34 q-54 -33 -71 -33 q-6 0 -19 19 q-16 24 -51 86 q-23 39 -23 50 q0 19 56 43 l73 30 ZM515 645 q-7 -9 -7 -12 q-5 -5 -5 -13 q0 -3 8 -16 q32 -54 67 -102 q9 -15 36 -15 q-40 -24 -60 -35 q-55 -35 -75 -35 q-6 0 -19 19 q-18 24 -53 85 q-24 41 -24 49 q0 19 56 44 l76 31 ZM857 612 q25 -17 25 -33 q0 -15 -73 -140 q-23 -47 -43 -47 q-21 0 -133 62 q21 3 45 38 q85 137 85 151 q0 3 -7 20 l101 -51 ZM428 334 q0 50 -26 68 l110 0 q48 0 51 -47 l0 -22 q186 0 298 8 q35 3 72 23 l0 -103 q0 -29 -20 -38 q-28 -6 -131 -9 q49 -99 124 -220 q10 -15 37 -16 l-61 -36 q-60 -36 -77 -36 q-9 0 -34 43 q-36 57 -96 183 q-29 57 -37 80 l-75 0 l0 -238 q0 -67 -37 -67 l-124 0 q26 12 26 57 l0 248 l-81 0 q-18 -61 -86 -224 q-30 -81 -54 -81 q-17 0 -133 61 q28 6 57 65 q58 125 81 182 q-88 2 -121 6 q-20 10 -20 40 l0 101 q33 -18 91 -21 q154 -7 266 -7 Z" /><glyph glyph-name="" unicode="&#x5f69;" d="M104 762 q83 0 168 8 q114 6 201 19 q72 8 78 25 q26 -98 26 -104 q0 -18 -54 -27 q-9 -3 -15 -3 l65 -37 q21 -13 21 -23 q0 -11 -8 -30 q-44 -92 -87 -155 q-18 -28 -26 -28 q-16 0 -103 57 q13 0 31 34 q38 58 75 131 q14 34 14 42 l0 6 q-92 -17 -169 -22 q-2 -4 -2 -8 l6 -16 q19 -47 45 -100 q10 -13 31 -13 l-51 -30 q-49 -30 -65 -30 q-5 0 -14 18 q-11 20 -37 81 q-17 37 -17 47 q0 17 49 38 l24 10 l-120 -8 q-3 -4 -3 -6 q-4 -4 -4 -10 l6 -18 q19 -54 47 -110 q10 -13 31 -13 l-52 -30 q-49 -31 -64 -31 q-5 0 -14 21 q-16 32 -38 87 q-18 42 -18 51 q0 16 48 38 l52 21 q-21 -1 -53 -1 q-37 0 -37 34 l0 104 q15 -19 33 -19 ZM252 354 q-2 18 -2 27 q-6 55 -22 65 l107 0 q33 0 39 -31 l6 -61 q90 0 148 8 q20 3 42 22 l0 -103 q0 -29 -19 -39 q-10 -4 -38 -6 q5 -25 17 -74 q27 -121 48 -183 q5 -13 29 -13 q-38 -16 -93 -37 q-24 -7 -35 -7 q-6 0 -23 61 q-22 87 -43 190 q-4 20 -10 57 l-17 0 l0 -41 q0 -210 -8 -252 q-9 -30 -35 -30 l-110 0 q22 13 25 71 q2 140 2 184 l-1 68 l-21 0 l-3 -19 q-2 -14 -4 -23 q-20 -122 -49 -228 q-12 -38 -22 -38 q-6 0 -34 7 q-31 8 -74 18 q13 7 19 37 q24 92 46 206 l8 45 q-26 1 -40 5 q-20 10 -20 41 l0 101 q18 -17 53 -20 q75 -7 134 -8 ZM688 465 q-18 0 -30 12 l-84 81 q13 -2 27 -2 q5 0 25 19 q87 81 145 159 q28 34 28 45 q0 9 -6 22 l87 -67 q26 -21 26 -37 q0 -13 -33 -52 q-61 -77 -141 -149 q-34 -31 -44 -31 ZM694 208 q-18 0 -29 11 l-87 84 q13 -2 27 -2 q8 0 32 21 q105 90 177 183 q36 39 36 51 q0 8 -6 23 l87 -68 q26 -21 26 -37 q0 -13 -40 -59 q-70 -85 -169 -173 q-41 -34 -54 -34 ZM698 -81 q-16 0 -29 11 l-87 84 q13 -2 27 -2 q8 0 33 21 q108 88 182 177 q36 38 36 50 q0 9 -6 22 l85 -66 q26 -21 26 -36 q0 -12 -40 -58 q-68 -81 -172 -169 q-43 -34 -55 -34 Z" /><glyph glyph-name="" unicode="&#x83dc;" d="M99 754 q84 -4 153 -4 q-3 45 -25 60 l107 0 q47 0 50 -46 l0 -16 l110 0 q48 0 134 2 q-3 43 -24 58 l104 0 q46 0 49 -45 l0 -11 l156 6 q24 0 36 25 l0 -97 q0 -37 -40 -37 q-59 -5 -153 -7 q-6 -45 -34 -45 l-118 0 q20 9 23 42 q-42 -1 -133 -1 l-110 0 q-3 -54 -36 -54 l-121 0 q25 9 25 56 q-78 1 -161 5 q-40 1 -40 36 l0 92 q10 -19 48 -19 ZM126 550 q120 0 283 9 q166 6 338 22 q123 9 133 29 q28 -109 28 -115 q0 -15 -89 -24 q-18 -1 -33 -3 l72 -37 q24 -15 24 -31 q0 -11 -79 -93 q-27 -31 -48 -31 q-18 0 -118 55 q24 3 47 25 q87 92 87 104 l-1 6 q-131 -12 -268 -18 q24 -33 57 -66 q8 -12 32 -12 q-36 -22 -54 -32 q-49 -32 -67 -32 q-6 0 -17 14 q-18 18 -48 57 q-22 26 -22 33 q0 15 40 34 q-109 -4 -186 -6 l-1 -3 q0 -1 9 -13 q32 -41 71 -79 q9 -12 33 -12 l-54 -33 q-50 -31 -67 -31 q-7 0 -20 16 q-20 21 -55 67 q-26 30 -26 39 q0 18 53 40 l18 8 q-26 -1 -69 -1 q-35 0 -35 33 l0 99 q12 -18 32 -18 ZM430 234 q-3 42 -25 58 l106 0 q47 0 50 -46 l0 -13 q186 0 300 8 q36 3 72 21 l0 -97 q0 -31 -19 -37 q-22 -5 -120 -8 q48 -63 105 -126 q9 -13 37 -15 q-40 -22 -60 -34 q-58 -35 -74 -35 q-10 0 -33 29 q-41 48 -92 126 q-26 35 -34 52 l-82 0 l0 -142 q0 -65 -36 -65 l-120 0 q25 13 25 55 l0 152 q-61 0 -87 1 q-15 -36 -86 -153 q-31 -55 -55 -55 q-17 0 -128 58 q29 4 58 45 q46 67 70 107 q-82 2 -112 6 q-19 9 -19 39 l0 95 q32 -16 91 -19 q156 -7 268 -7 Z" /><glyph glyph-name="" unicode="&#x53c2;" d="M308 639 q107 0 248 18 q62 8 106 19 q-19 31 -19 45 q0 16 62 48 l50 27 q-7 -17 -8 -24 q0 -15 47 -77 q0 -4 65 -91 q3 -10 27 -12 l-51 -23 q-48 -26 -62 -26 q-23 0 -60 53 q-6 -3 -11 -3 q-130 -20 -210 -28 l4 -3 q17 -14 17 -28 q0 -6 -6 -15 q227 1 407 11 q24 0 36 24 l0 -96 q0 -37 -40 -37 l-107 -6 q44 -37 87 -69 q35 -26 44 -26 q11 0 22 7 q-34 -43 -70 -81 q-13 -18 -31 -18 q-16 0 -86 64 q-71 59 -128 119 l-24 0 q33 -70 33 -82 q0 -22 -49 -37 q-153 -48 -299 -82 q-34 -9 -47 -9 q-17 0 -26 27 l-10 27 q-58 -37 -76 -37 q-14 0 -29 15 l-73 81 q15 -4 25 -4 q19 0 106 57 q35 25 59 45 q-68 1 -139 5 q-40 1 -40 36 l0 92 q9 -20 48 -20 q107 -5 248 -5 l12 12 q11 11 20 23 q-79 -6 -143 -6 q-58 0 -81 29 q-22 26 -22 60 q0 21 42 54 q67 47 190 96 q35 11 35 18 l0 17 l66 -75 q10 -18 10 -29 q0 -6 -33 -15 q-66 -16 -134 -40 q-31 -10 -31 -13 q0 -12 29 -12 ZM414 410 l-34 -31 q-33 -30 -72 -60 q135 33 252 69 q30 9 40 23 q-34 -1 -105 -1 l-81 0 ZM230 59 q-18 0 -27 29 l-33 86 q12 -11 18 -11 q14 0 47 6 q205 43 391 98 q53 15 62 49 q42 -87 42 -102 q0 -27 -62 -45 q-177 -53 -379 -99 q-40 -11 -59 -11 ZM174 -91 q-19 0 -28 28 l-33 87 q14 -12 19 -12 q20 0 60 8 q270 55 503 119 q69 20 81 60 q45 -93 45 -110 q0 -30 -81 -51 q-241 -65 -490 -116 q-62 -13 -76 -13 Z" /><glyph glyph-name="" unicode="&#x60ed;" d="M128 718 q28 -3 28 -40 l-1 -141 l12 16 q0 -15 13 -25 l-6 172 q-4 92 -18 109 l85 0 q27 0 31 -24 q10 -182 10 -428 l0 -8 q4 -8 12 -20 q36 -60 41 -60 q11 0 23 4 l-47 -55 q-19 -23 -29 -30 q-3 -204 -6 -253 q-6 -24 -28 -24 l-87 0 q16 17 19 119 q2 204 2 274 l-31 49 q-1 -47 -8 -230 q-3 -88 -16 -88 q-12 0 -90 7 q8 17 11 106 q13 328 13 545 q0 19 -16 27 l83 -2 ZM407 692 q10 20 16 30 q40 71 40 79 q0 4 -5 16 l67 -43 q20 -14 20 -26 q0 -20 -18 -56 q42 2 69 6 q14 3 27 18 l0 -85 q0 -26 -16 -32 q-20 -10 -126 -10 q-15 -34 -31 -80 l67 0 q25 0 31 -25 q4 -35 7 -98 q42 9 72 30 l-15 -90 q-4 -18 -32 -24 l-23 -6 l1 -91 q42 15 45 47 q25 -97 25 -102 q0 -24 -33 -39 q-21 -10 -37 -15 q-3 -128 -6 -160 q-7 -24 -29 -24 l-88 0 q16 12 19 79 l1 78 q-79 -16 -122 -16 q-32 0 -32 30 l0 89 q10 -16 28 -16 q43 0 103 15 q16 2 24 4 l-1 103 q-12 -2 -33 -2 q-69 0 -98 41 q-24 33 -24 70 q0 33 30 120 q13 39 32 84 q-38 2 -50 6 q-16 9 -16 34 l0 83 q11 -13 34 -16 q40 -5 77 -6 ZM441 487 q-10 -23 -15 -41 q-13 -42 -13 -62 q0 -13 14 -13 q16 0 24 1 l-3 65 q-3 35 -7 50 ZM761 643 q-5 0 -7 1 q-2 -76 -2 -118 q32 -4 74 -4 q69 0 101 7 q10 3 20 19 l0 -85 q0 -27 -15 -33 q-6 -4 -27 -6 l0 -461 q0 -52 -28 -52 l-95 0 q20 9 20 44 l0 466 q-29 0 -53 2 q-6 -181 -18 -399 q-6 -114 -26 -114 q7 0 -93 7 q14 27 18 138 q20 405 20 708 q0 21 -16 31 l90 -3 q28 -1 31 -37 q65 16 127 36 q20 6 23 20 q44 -93 44 -106 q0 -10 -23 -18 q-73 -22 -143 -39 q-15 -4 -22 -4 Z" /><glyph glyph-name="" unicode="&#x4ed3;" d="M321 768 q8 -5 17 -14 q9 3 20 8 q139 52 216 52 q67 0 125 -49 q70 -61 176 -219 q57 -81 85 -81 q-102 -59 -119 -59 q-22 0 -43 27 q8 -45 8 -115 q0 -131 -18 -170 q-21 -39 -68 -53 q-37 -12 -98 -12 q-91 0 -145 6 q-28 3 -43 38 l-46 77 q49 -13 118 -17 q57 -8 112 -8 q33 0 44 10 q19 19 19 129 q0 93 -24 109 q-19 13 -75 13 q-39 0 -132 -17 q-87 -29 -107 -29 q-3 0 -3 1 q-13 -70 -17 -132 q-7 -73 -7 -150 q0 -54 31 -78 q27 -23 127 -23 q114 0 218 14 q139 21 224 45 l-58 -114 q-12 -18 -32 -24 q-168 -13 -255 -17 q-108 -3 -169 -3 q-48 0 -99 19 q-56 23 -83 71 q-28 41 -28 137 q0 153 22 282 l10 73 q-39 -79 -71 -79 q-19 0 -116 53 q34 6 68 66 q127 234 127 263 q0 3 -6 18 l95 -48 ZM351 494 q30 2 102 16 q123 24 164 24 q57 0 93 -14 q21 -6 40 -17 q-79 112 -128 166 q-46 48 -84 48 q-63 0 -189 -54 q-24 -10 -42 -16 q-19 -39 -65 -121 l73 -11 q30 -6 36 -21 Z" /><glyph glyph-name="" unicode="&#x69fd;" d="M230 672 l-1 28 q-6 92 -21 109 l98 0 q30 0 36 -28 l5 -102 q6 0 8 1 q13 3 27 23 l0 -104 q0 -30 -20 -39 q-6 -4 -12 -4 q2 -116 2 -187 l7 -4 q40 -22 45 -22 q9 0 14 1 l1 87 q0 60 -8 145 q-6 36 -19 43 l93 0 q18 0 27 -11 q19 0 49 3 l-1 32 q-107 0 -144 7 q-17 9 -17 35 l0 86 q22 -16 58 -17 q63 -4 97 -5 l0 2 q-5 49 -18 58 l85 0 q25 0 31 -24 q2 -26 4 -38 l28 0 l0 4 q-5 49 -18 58 l85 0 q25 0 31 -24 q2 -26 4 -37 q71 2 116 6 q24 3 46 19 l0 -88 q0 -25 -16 -33 q-24 -7 -141 -9 l1 -21 q34 -3 63 -14 q45 -16 64 -46 q15 -27 15 -88 q0 -30 -3 -93 l0 -4 q4 1 17 10 l0 -77 q0 -23 -14 -29 q-30 -9 -222 -9 q-145 0 -196 4 q-10 -13 -24 -13 l-96 0 q18 6 21 47 q0 15 1 23 q-26 -30 -40 -45 q-14 -18 -26 -28 q-2 -271 -7 -322 q-9 -27 -33 -27 l-99 0 q19 19 22 119 q2 202 2 269 q-4 2 -12 8 q-20 11 -28 17 q-11 -182 -23 -312 q-7 -90 -34 -90 l-97 8 q18 22 24 110 q25 277 28 515 q-7 1 -10 3 q-20 10 -20 41 l0 102 q12 -18 34 -21 q55 -8 126 -8 l5 0 ZM689 642 l-27 0 l0 -23 q10 0 28 2 l-1 21 ZM527 371 q20 -2 32 -2 l1 36 q-23 0 -32 1 l-1 -35 ZM660 403 l-2 -38 q10 -1 29 -1 q2 16 2 28 l0 11 l-29 0 ZM787 365 q21 0 31 1 q0 8 2 26 l1 14 q-10 -1 -31 -1 l-3 -40 ZM528 490 q24 -2 34 -2 l0 35 q-15 -2 -26 -2 q-8 0 -10 2 q0 -11 2 -33 ZM662 485 l29 0 l0 50 q-20 -2 -29 -2 l0 -48 ZM792 529 l0 -42 q11 0 31 2 q-4 25 -24 37 l-7 3 ZM219 467 q0 -16 14 -29 q2 -2 3 -2 q0 36 -2 112 l-30 0 q0 -33 -2 -103 l17 22 ZM526 254 q29 0 40 -19 q22 1 77 8 q83 12 129 12 q45 0 78 -15 q39 -15 54 -43 q13 -26 13 -82 q0 -28 -3 -88 l0 -3 q10 3 19 11 l0 -74 q0 -23 -14 -29 q-27 -9 -198 -9 q-107 0 -158 3 q-9 -15 -24 -15 l-112 0 q23 11 23 52 l0 227 q0 47 -23 64 l99 0 ZM572 17 q63 -5 149 -5 q51 0 73 1 l4 37 q-28 -2 -106 -2 q-92 0 -120 2 l0 -33 ZM572 135 q53 -4 120 -4 q78 0 108 2 q-3 20 -15 29 q-13 9 -39 9 q-38 0 -94 -9 q-58 -11 -70 -11 q-8 0 -10 2 l0 -18 Z" /><glyph glyph-name="" unicode="&#x518c;" d="M514 414 q-1 132 -9 285 q-6 92 -24 109 l114 0 q22 0 31 -12 q99 13 120 13 q47 0 78 -22 q28 -22 43 -77 q11 -90 12 -288 q35 4 71 23 l0 -107 q0 -32 -20 -40 q-15 -3 -51 -6 q-3 -200 -8 -257 q-11 -71 -37 -100 q-25 -24 -55 -24 q-51 0 -90 7 q-13 3 -19 21 l-27 68 l-3 -65 q-9 -32 -37 -32 l-116 0 q23 18 26 119 q2 192 2 257 l-44 0 q-3 -182 -9 -254 q-12 -70 -43 -100 q-28 -24 -62 -24 q-48 0 -75 6 q-12 4 -16 22 l-21 59 q-1 -37 -3 -56 q-9 -29 -34 -29 l-106 0 q20 18 23 120 q2 196 2 262 q-41 2 -55 4 q-20 9 -20 42 l0 105 q31 -16 74 -19 q-3 131 -9 277 q-6 92 -21 109 l104 0 q23 0 33 -16 q84 15 112 15 q46 0 74 -23 q25 -21 40 -77 q11 -92 12 -295 l43 0 ZM644 25 q39 -7 76 -7 q21 0 30 37 q5 68 6 232 q-33 -1 -109 -1 q-1 -174 -3 -261 ZM756 417 q-1 227 -17 260 q-11 20 -32 20 q-23 0 -66 -5 q5 -119 6 -277 q76 0 109 2 ZM354 416 q-1 234 -15 267 q-11 20 -31 20 q-26 0 -65 -6 q5 -108 7 -278 q53 -3 104 -3 ZM246 17 q27 -8 55 -8 q33 0 45 39 q5 55 8 238 q-44 0 -104 2 q-2 -202 -4 -271 Z" /><glyph glyph-name="" unicode="&#x6d4b;" d="M150 809 q10 0 56 -55 q48 -67 57 -101 q0 -18 -17 -30 l-94 -69 q8 13 8 20 q-15 46 -58 108 q-35 53 -58 53 q21 19 65 55 q32 19 41 19 ZM158 522 q13 0 41 -48 q42 -69 55 -106 q16 -54 16 -94 q0 -48 -17 -135 q-19 -99 -40 -158 q-18 -69 -31 -69 q-8 0 -78 29 l-55 23 q15 0 30 15 q32 100 52 193 q16 74 16 102 q0 30 -23 78 q-19 39 -48 75 q-13 8 -31 8 l55 48 q42 39 58 39 ZM737 722 q30 0 34 -27 q10 -115 10 -268 q0 -236 -7 -285 q-7 -26 -31 -26 l-97 0 q19 12 22 81 q2 156 2 206 q0 110 -9 246 q-4 63 -19 73 l95 0 ZM806 -89 q-31 0 -78 10 q-33 6 -39 27 q-16 39 -33 85 q19 -14 50 -19 q29 -4 60 -4 q23 0 32 44 q13 98 13 388 q0 226 -14 304 q-6 45 -22 63 l113 0 q26 0 35 -63 q12 -102 12 -304 q0 -403 -33 -472 q-24 -59 -96 -59 ZM354 798 q26 0 32 -18 q20 1 67 8 q75 9 93 9 q21 0 42 -7 q21 -13 32 -31 q14 -24 20 -66 q4 -46 4 -192 q0 -86 -5 -194 q-6 -91 -9 -106 q-3 -20 -14 -20 l-109 6 q12 6 15 31 q5 53 8 136 q4 126 4 147 q0 105 -6 150 q-4 28 -11 38 q-10 7 -26 7 q-5 0 -47 -5 q-33 -6 -42 -6 q-6 0 -8 2 q4 -108 4 -184 q0 -102 -2 -194 q28 159 28 263 q0 18 -16 32 l84 -11 q31 -3 31 -27 q0 -93 -20 -255 q-27 -188 -81 -337 q-26 -61 -52 -61 q-10 0 -115 30 q43 11 73 98 q27 71 47 155 q-7 -3 -14 -3 l-94 0 q17 11 20 80 q2 156 2 206 q0 100 -8 246 q-6 63 -19 73 l92 0 ZM597 159 q-12 -9 -12 -21 q18 -112 42 -186 q2 -9 24 -18 l-70 -14 q-40 -10 -49 -10 q-5 0 -10 6 q-8 13 -23 92 q-19 88 -19 109 q0 16 42 25 l75 17 Z" /><glyph glyph-name="" unicode="&#x63d2;" d="M438 759 q83 0 171 8 q104 4 206 17 q75 8 81 24 q26 -99 26 -107 q0 -14 -55 -22 q-74 -12 -154 -18 l3 -60 q111 1 185 8 q23 3 49 22 l0 -97 q0 -28 -18 -36 q-33 -10 -211 -11 q0 -39 1 -58 q20 0 56 6 q51 7 68 7 q42 0 66 -26 q25 -35 28 -124 l0 -69 q0 -84 -6 -171 q8 3 14 9 l0 -94 q0 -26 -17 -35 q-35 -10 -234 -10 q-122 0 -202 4 q-10 -15 -27 -15 l-102 0 q20 12 23 71 q2 138 2 182 q0 97 -9 217 q-6 55 -22 65 l99 0 q24 0 33 -20 q37 14 73 33 q10 4 13 16 l29 -63 q-2 48 -2 75 q-180 0 -225 9 q-19 9 -19 38 l0 95 q21 -17 62 -20 q103 -7 178 -7 l-3 51 q-102 -6 -157 -6 q-35 0 -35 32 l0 98 q14 -18 32 -18 ZM722 345 q0 -225 -5 -312 q78 0 110 2 q2 29 4 88 q-7 -1 -19 -1 q-46 0 -57 9 q-18 9 -18 37 l0 91 q6 -15 16 -18 q25 -8 59 -8 l18 0 l0 23 q0 86 -24 89 q-17 0 -35 -6 q-16 -5 -23 -5 q-20 0 -26 11 ZM604 35 q2 22 2 38 q2 192 2 253 l0 40 l-4 -2 q-45 -21 -80 -32 q-8 -4 -12 -4 q-7 0 -9 2 q2 -29 4 -91 q3 -1 11 -1 q41 0 60 8 q7 4 13 20 l0 -94 q0 -27 -18 -35 q-9 -10 -55 -10 l-11 0 l-1 -87 q55 -5 98 -5 ZM153 674 q-3 38 -8 71 q-6 45 -23 64 l119 0 q29 0 37 -64 l6 -70 q21 1 41 5 q13 3 25 23 l0 -108 q0 -31 -21 -40 q-10 -7 -39 -8 l1 -140 q12 6 18 10 q23 9 29 37 l34 -88 q6 -15 6 -26 q0 -23 -26 -41 q-28 -15 -63 -30 q-6 -247 -31 -303 q-27 -59 -102 -59 q-22 0 -59 10 q-26 6 -30 26 q-9 25 -25 83 q12 -9 32 -12 q14 -2 39 -2 q24 0 33 43 q7 58 10 154 q-3 -3 -6 -3 q-34 -15 -41 -15 q-21 0 -32 27 l-35 101 q11 -11 19 -11 q9 0 28 8 q48 18 70 28 l-1 201 q-60 0 -78 8 q-20 10 -20 42 l0 106 q9 -18 30 -21 q32 -4 63 -6 Z" /><glyph glyph-name="" unicode="&#x8336;" d="M620 621 q5 9 7 27 q-42 -1 -133 -1 l-111 0 q-6 -44 -35 -44 l-58 0 l63 -43 q11 2 35 10 q168 51 225 51 l7 0 ZM350 472 q-29 -43 -76 -103 l-20 -23 q18 -7 34 -7 q89 -7 153 -7 q-2 13 -4 39 q-6 41 -21 59 l114 0 q26 0 33 -15 q7 -18 11 -83 q87 0 153 7 q4 0 14 4 l-108 121 q-46 44 -67 44 q-31 0 -144 -24 q-46 -12 -72 -12 ZM231 320 q-60 -66 -77 -66 q-14 0 -34 15 l-77 61 q29 0 73 50 q160 193 160 214 l-1 9 l-48 0 q22 9 25 46 q-78 1 -161 5 q-40 1 -40 36 l0 92 q10 -20 48 -20 q84 -4 152 -4 q-4 37 -24 52 l107 0 q47 0 50 -46 l0 -8 l110 0 q49 0 133 2 q-3 36 -23 50 l104 0 q46 0 49 -45 l0 -2 l156 6 q24 0 36 25 l0 -97 q0 -37 -40 -37 q-59 -5 -153 -7 q-6 -45 -34 -45 l-56 0 q16 -10 29 -20 q56 -52 214 -234 q21 -27 47 -27 q-95 -74 -116 -74 q-21 0 -53 39 q-6 6 -16 18 l0 -47 q0 -29 -18 -37 q-29 -10 -175 -11 l0 -103 q0 -133 -29 -167 q-33 -33 -122 -33 q-60 0 -87 6 q-31 6 -35 21 l-39 75 l-4 -5 q-58 -66 -78 -66 q-12 0 -33 15 l-80 54 q25 0 52 34 q105 113 105 137 q0 7 -2 19 l87 -56 q22 -14 22 -32 q0 -17 -60 -89 q7 -5 17 -8 q32 -9 81 -9 q44 0 57 12 q16 11 16 83 l0 112 q-157 0 -196 9 q-19 10 -19 39 l0 59 ZM735 195 q-1 -3 -4 -23 q0 -4 35 -36 q45 -48 105 -93 q8 -12 34 -12 l-34 -31 q-54 -56 -76 -56 q-8 0 -28 18 q-34 29 -92 90 q-41 37 -41 49 q0 15 41 47 l60 47 Z" /><glyph glyph-name="" unicode="&#x67e5;" d="M509 314 q142 0 220 6 q-6 24 -18 36 q-25 19 -82 19 q-115 0 -196 -14 q-119 -22 -139 -22 q-5 0 -10 4 l0 -22 q104 -7 225 -7 ZM274 442 q50 0 147 11 q138 11 208 11 q76 0 133 -11 q51 -12 74 -50 q24 -34 24 -126 q0 -47 -2 -89 q14 4 35 14 l0 -85 q0 -26 -16 -32 q-40 -10 -317 -10 q-215 0 -283 5 q-9 -22 -28 -22 l-118 0 q24 11 24 55 l0 278 q0 49 -24 67 l104 0 q26 0 39 -16 ZM732 217 q-59 -4 -223 -4 q-156 0 -225 3 l0 -32 q3 -1 8 -1 q125 -7 268 -7 q121 0 169 2 l3 39 ZM504 33 q258 0 371 8 q38 3 74 21 l0 -97 q0 -27 -18 -36 q-63 -10 -427 -10 q-352 0 -435 8 q-18 11 -18 38 l0 95 q32 -16 95 -19 q157 -8 358 -8 ZM432 740 q0 51 -26 69 l110 0 q48 0 51 -47 l0 -22 q173 0 272 9 q33 3 68 22 l0 -102 q0 -30 -19 -38 q-18 -5 -93 -8 q30 -41 69 -85 q9 -14 34 -14 q-36 -22 -55 -32 q-54 -33 -71 -33 q-7 0 -28 25 q-28 33 -78 108 q-13 17 -19 28 q-26 -1 -80 -1 l0 -79 q0 -68 -37 -68 l-124 0 q26 12 26 58 l0 89 q-66 0 -94 1 q-21 -31 -81 -109 q-29 -44 -55 -44 q-17 0 -116 54 q27 3 54 36 l49 66 q-64 1 -91 6 q-20 9 -20 40 l0 100 q28 -17 87 -20 q135 -7 267 -9 Z" /><glyph glyph-name="" unicode="&#x5dee;" d="M599 252 q168 0 246 7 q23 3 49 21 l0 -94 q0 -27 -18 -35 q-35 -11 -230 -11 l0 -90 q152 1 241 9 q31 3 63 22 l0 -100 q0 -28 -18 -37 q-48 -12 -360 -12 q-293 0 -366 10 q-18 12 -18 39 l0 98 q27 -17 80 -20 q125 -7 249 -9 l0 90 q-160 1 -202 9 q-17 9 -17 37 l0 17 q-19 -24 -59 -72 q-39 -46 -64 -46 q-23 0 -129 64 q30 0 58 31 q66 69 117 140 q-119 2 -154 7 q-16 9 -16 36 l0 89 q33 -15 95 -18 q98 -4 147 -5 l26 46 q-158 2 -199 7 q-16 9 -16 34 l0 83 q29 -13 83 -16 q92 -4 183 -6 q11 23 19 46 q-239 0 -305 8 q-17 7 -17 35 l0 86 q33 -15 90 -18 q42 -3 82 -3 q-10 34 -10 45 q0 17 44 26 l78 18 q-13 -9 -13 -22 q10 -40 21 -70 q48 -1 142 -1 l107 0 q2 8 8 24 q11 38 11 41 q0 13 -12 25 q113 -13 101 -11 q25 -3 25 -26 q0 -7 -11 -51 q60 1 126 5 q35 3 72 20 l0 -88 q0 -26 -17 -34 q-52 -9 -387 -9 q-4 -14 -15 -47 q211 0 312 7 q32 3 65 18 l0 -85 q0 -26 -16 -32 q-47 -10 -372 -10 l-33 0 l-23 -48 l62 0 q258 0 371 8 q37 3 74 20 l0 -91 q0 -26 -16 -34 q-52 -11 -429 -11 l-125 0 q-16 -26 -38 -57 q12 -2 19 -2 q111 -7 239 -7 Z" /><glyph glyph-name="" unicode="&#x4ea7;" d="M427 731 q-6 12 -6 16 q0 22 32 34 l104 28 q-17 -11 -17 -24 q0 -8 19 -43 l5 -12 q182 0 292 8 q35 3 71 20 l0 -93 q0 -29 -18 -35 q-22 -5 -100 -7 q-5 -42 -8 -59 l-12 -48 q35 0 83 4 q31 3 66 22 l0 -97 q0 -28 -19 -36 q-45 -11 -372 -11 q-254 0 -333 5 q-7 -194 -26 -412 q-9 -79 -33 -79 q-8 0 -116 9 q18 18 24 96 q28 286 28 494 q0 25 -21 37 l108 -3 q23 -1 32 -23 q14 -2 22 -2 q28 -2 44 -2 l-5 19 q-16 59 -21 84 q-119 2 -154 7 q-18 9 -18 37 l0 91 q31 -15 89 -18 q151 -7 260 -7 ZM419 513 q43 -1 128 -1 l95 0 q12 28 17 46 q7 28 13 62 q-49 -1 -166 -1 l-120 0 q16 -63 33 -106 Z" /><glyph glyph-name="" unicode="&#x5e38;" d="M301 807 q-8 -15 -9 -25 q0 -10 30 -61 q0 -4 38 -62 l71 11 l0 110 q0 19 -18 35 l99 0 q51 0 54 -45 l0 -86 q23 2 75 4 q3 3 4 5 q59 97 59 108 q0 3 -7 20 l98 -49 q24 -16 24 -32 q0 -6 -34 -59 q37 -6 56 -13 q58 -24 83 -60 q24 -42 24 -111 q0 -66 -10 -89 q-12 -32 -30 -32 l-119 24 q17 5 23 25 q7 23 7 72 q0 27 -7 51 q-13 26 -46 35 q-45 8 -111 8 q-148 0 -279 -24 l-61 -17 l14 0 q33 0 42 -25 q30 3 114 15 q121 11 173 11 q35 0 54 -9 q27 -12 41 -34 q16 -21 16 -63 l-1 -50 q6 2 16 10 l0 -82 q0 -25 -15 -31 q-30 -10 -190 -10 l0 -31 q76 4 85 4 q73 0 125 -10 q74 -14 100 -34 q29 -23 29 -110 q0 -91 -14 -121 q-18 -27 -55 -38 q-31 -9 -79 -9 q-65 0 -103 6 q-20 6 -30 41 q-13 33 -33 81 q24 -15 60 -21 q31 -10 57 -10 q37 0 47 5 q18 9 18 66 q0 41 -38 50 q-30 6 -121 6 l-48 -1 l0 -186 q0 -67 -37 -67 l-124 0 q25 13 25 58 l0 184 q-4 -1 -10 -1 q-131 -22 -160 -22 q-14 0 -26 19 l0 -142 q0 -65 -35 -65 l-118 0 q24 12 24 55 l0 199 q0 49 -24 67 l104 0 q39 0 47 -34 q58 0 192 16 q4 0 6 1 l0 45 q-47 0 -76 3 q-9 -16 -25 -16 l-113 0 q24 9 24 52 l0 165 q0 30 -9 46 q-6 -1 -11 -1 q-18 0 -38 26 l0 -121 q0 -61 -33 -61 l-112 0 q23 9 23 51 l0 182 q0 48 -23 63 l99 0 q38 0 44 -30 q4 -1 13 -1 q11 0 18 1 q-4 5 -10 15 q-35 51 -35 69 q0 18 68 53 l54 28 ZM375 386 q73 -5 175 -5 q67 0 95 1 l1 33 q0 39 -11 45 q-10 2 -26 2 q-24 0 -112 -8 q-99 -15 -114 -15 q-6 0 -8 2 l0 -55 Z" /><glyph glyph-name="" unicode="&#x957f;" d="M505 455 q258 0 371 8 q40 3 74 20 l0 -94 q0 -27 -17 -35 q-52 -11 -428 -11 q-131 0 -183 1 q-3 -15 -3 -28 q-8 -129 -8 -207 q0 -56 22 -69 q21 -18 62 -18 q38 0 104 15 q59 13 130 43 q-4 2 -6 4 q-152 88 -152 121 q0 10 40 60 l39 51 q0 -18 16 -33 q117 -80 260 -160 q84 -48 93 -48 q13 0 29 4 l-59 -69 q-37 -45 -52 -45 q-30 0 -192 105 l-52 -114 q-9 -15 -31 -24 q-147 -21 -199 -21 q-41 0 -91 16 q-50 24 -77 76 q-17 34 -17 87 q0 69 9 234 q0 8 2 22 q-87 2 -120 6 q-17 9 -17 37 l0 92 q33 -16 94 -18 q34 -2 53 -2 q12 132 27 245 q8 64 8 72 q0 17 -25 31 l115 -10 q49 -6 49 -34 q0 -5 -19 -140 q-12 -75 -21 -168 q57 -2 172 -2 ZM710 808 l85 -77 q14 -19 14 -29 q0 -21 -35 -50 q-92 -84 -180 -139 q-40 -26 -57 -26 q-18 0 -31 16 l-75 85 l18 0 q24 0 142 89 q119 90 119 114 l0 17 Z" /><glyph glyph-name="" unicode="&#x6c89;" d="M171 809 q26 0 108 -77 q31 -31 31 -54 q0 -12 -12 -27 l-75 -92 l4 13 q0 20 -40 54 q-96 79 -105 79 q-6 0 -17 -3 l71 85 q20 22 35 22 ZM179 543 q12 0 45 -44 q43 -59 60 -98 q18 -46 18 -87 q0 -57 -21 -149 q-19 -106 -47 -177 q-21 -77 -38 -77 q-7 0 -86 32 l-59 24 q18 0 33 17 q38 105 63 216 q20 80 20 114 q0 25 -26 63 q-21 30 -54 60 q-12 9 -34 9 l60 54 q49 43 66 43 ZM824 17 q19 0 54 13 q38 13 71 40 l-53 -118 q-11 -20 -39 -26 q-60 -9 -92 -9 q-38 0 -68 24 q-26 27 -26 82 q0 118 20 315 q6 57 6 69 q0 30 -36 30 q-17 0 -64 -14 q-5 -75 -13 -136 q-15 -150 -68 -354 q-9 -23 -32 -23 q-3 0 -122 25 q22 6 32 45 q32 117 55 251 q28 168 28 281 q-3 20 -21 35 l115 -7 q19 -1 25 -15 q68 12 107 12 q55 0 88 -30 q12 -10 18 -23 q5 7 8 23 q6 21 6 77 q0 22 -4 50 q-7 27 -24 36 q-26 7 -57 7 q-92 0 -173 -18 q-75 -28 -88 -28 q-16 0 -30 14 l0 -118 q0 -63 -34 -63 l-115 0 q24 11 24 53 l0 194 q0 48 -24 64 l101 0 q30 0 41 -20 l6 0 q31 0 126 16 q102 15 166 15 q94 0 133 -22 q42 -24 60 -63 q17 -46 17 -117 q0 -71 -9 -95 q-7 -33 -21 -33 l-106 21 q8 -22 8 -45 l-13 -155 q-17 -170 -17 -225 q0 -35 34 -35 Z" /><glyph glyph-name="" unicode="&#x6210;" d="M384 -42 q-50 0 -85 5 q-15 3 -26 35 q-7 23 -26 70 q17 -11 42 -14 q23 -6 39 -6 q33 0 45 12 q19 24 19 160 q0 100 -8 119 q-6 14 -24 14 q-15 0 -53 -8 q-36 -13 -44 -13 q-6 0 -8 1 q-16 -170 -59 -396 q-9 -30 -29 -30 q-4 0 -123 25 q19 6 28 60 q27 144 50 333 q24 216 24 374 q-2 21 -22 36 l122 -7 q26 -3 29 -31 q5 -1 17 -1 q72 -6 184 -6 q-14 50 -14 67 q0 21 26 31 l50 14 q44 13 60 17 q-18 -18 -18 -34 q6 -33 27 -96 q76 0 156 5 q-85 44 -93 44 q-3 0 -13 -2 l54 63 q15 18 26 18 q24 0 98 -43 q26 -18 26 -30 q0 -10 -8 -21 l-21 -25 q24 1 58 5 q27 0 40 26 l0 -107 q0 -41 -45 -41 q-92 -13 -237 -14 q26 -75 57 -158 q16 -48 41 -102 q47 84 58 106 q46 80 46 104 q0 9 -6 21 l80 -62 q24 -19 24 -34 q0 -27 -50 -118 q-45 -86 -88 -156 q47 -100 99 -184 q11 -16 40 -16 q-92 -44 -95 -46 q-28 -14 -39 -14 q-28 0 -91 128 l-39 -56 q-53 -68 -68 -68 q-16 0 -29 11 l-84 82 q12 -2 26 -2 q10 0 41 42 q47 63 90 126 q-78 172 -146 384 q-2 4 -4 12 q-136 1 -228 8 q-8 0 -10 1 q-4 -88 -8 -132 q16 1 44 6 q77 10 91 10 q38 0 60 -15 q33 -21 47 -53 q14 -36 14 -172 q0 -140 -13 -189 q-18 -44 -52 -59 q-28 -14 -72 -14 Z" /><glyph glyph-name="" unicode="&#x7a0b;" d="M101 768 q56 0 117 8 q74 4 139 18 q51 7 55 25 q27 -100 27 -110 q0 -14 -38 -23 q-15 -4 -43 -8 q3 -41 6 -98 q20 1 47 5 q17 3 32 23 l0 -105 q0 -31 -19 -39 q-12 -6 -57 -9 l1 -203 q5 -5 25 -20 q49 -40 55 -40 q12 0 27 4 q-36 -42 -55 -63 q-32 -41 -47 -41 q-4 0 -6 2 q-3 -105 -7 -153 q-9 -29 -34 -29 l-106 0 q20 17 23 109 q0 67 2 175 q-34 27 -57 52 q-2 -16 -2 -22 q-13 -177 -24 -246 q-6 -51 -16 -51 q-3 0 -33 5 l-72 15 q10 23 14 54 q9 96 25 299 l12 156 q-16 2 -21 4 q-19 9 -19 42 l0 102 q13 -18 41 -21 q72 -9 145 -9 q-3 29 -3 56 q-2 22 -2 29 q-76 -8 -129 -8 q-36 0 -36 33 l0 101 q13 -19 33 -19 ZM224 391 q0 -15 14 -28 q3 -4 7 -6 q-2 62 -2 95 l-42 0 q-3 -37 -6 -98 l29 37 ZM563 809 q41 0 47 -35 q25 2 59 9 q75 14 114 14 q42 0 77 -10 q28 -9 42 -41 q15 -28 15 -103 l0 -54 q7 7 11 15 l0 -100 q0 -40 -42 -40 q-40 -13 -117 -13 q-103 0 -148 8 q-11 0 -14 2 q-9 -27 -30 -27 l-115 0 q24 11 24 53 l0 258 q0 49 -24 64 l101 0 ZM611 575 q6 -2 19 -2 q45 -7 139 -7 q12 0 18 1 l2 42 l-1 81 q-3 11 -5 11 q-58 0 -100 -16 q-60 -23 -72 -23 l0 -87 ZM521 398 q62 -7 191 -7 q102 1 182 14 q26 0 38 25 l0 -103 q0 -39 -43 -39 q-46 -11 -125 -13 q4 -35 5 -58 q61 3 109 12 q26 0 38 26 l0 -104 q0 -39 -43 -39 q-38 -10 -104 -13 l-3 -65 q80 3 143 12 q26 0 38 25 l0 -104 q0 -39 -43 -39 q-73 -13 -194 -13 q-130 0 -214 7 q-43 3 -43 39 l0 99 q12 -21 52 -21 q51 -6 135 -6 q0 26 2 66 q-64 0 -117 7 q-43 1 -43 38 l0 100 q12 -22 52 -22 q42 -6 105 -6 l-5 59 q-81 2 -122 7 q-43 1 -43 38 l0 100 q10 -22 52 -22 Z" /><glyph glyph-name="" unicode="&#x8bda;" d="M192 768 q24 0 99 -52 q27 -19 27 -36 q0 -11 -9 -23 l-66 -79 q4 8 4 11 q0 14 -36 36 q-86 53 -95 53 q-6 0 -14 -3 l60 74 q19 19 30 19 ZM294 51 q32 0 64 5 l0 2 q44 369 44 656 q0 24 -19 35 l102 -3 q28 -3 34 -32 q77 -7 133 -7 q-4 36 -4 60 q0 21 24 27 q78 9 111 14 q-17 -16 -17 -33 q0 -30 3 -69 q39 0 91 4 l-10 5 q-62 34 -67 34 q-3 0 -11 -2 l44 52 q12 14 22 14 q16 0 70 -31 q20 -12 20 -22 q0 -5 -7 -16 l-25 -31 q8 0 12 1 q20 3 40 21 l0 -97 q0 -28 -18 -36 q-25 -10 -148 -11 q9 -65 19 -120 q4 -25 14 -73 q32 85 32 108 q0 10 -2 22 l85 -49 q20 -15 20 -23 q0 -27 -16 -75 q-45 -111 -76 -179 q31 -127 69 -244 q3 -17 23 -23 q-42 -12 -78 -18 q-23 -5 -28 -5 q-33 0 -45 37 q-17 38 -28 77 q5 10 -23 -42 q-39 -72 -57 -72 q-14 0 -109 61 q27 0 69 85 q26 48 76 148 q-21 101 -43 247 q-9 61 -19 138 q-95 0 -145 5 q-2 -66 -4 -98 l84 4 q25 0 41 -11 q17 -12 27 -37 q16 -42 16 -133 q0 -66 -9 -141 q-12 -82 -26 -104 q-15 -34 -38 -37 q-19 -9 -50 -9 l-36 0 q-28 0 -34 36 q-3 9 -6 21 l-6 -60 q-9 -105 -46 -105 l-114 8 q23 21 33 83 l-35 -42 q-24 -16 -91 -16 q-35 0 -59 19 q-14 17 -14 39 q0 63 11 158 q12 134 12 191 q0 22 -18 22 q-7 0 -17 -4 q-15 -7 -28 -7 q-22 0 -29 25 l-34 97 q27 -8 65 -8 q20 0 49 7 q48 8 55 8 q25 0 48 -10 q28 -23 28 -59 q0 -12 -10 -150 q-14 -143 -14 -208 q0 -10 6 -16 q3 -8 17 -8 ZM489 130 q20 -12 42 -12 q22 0 30 17 q6 12 12 75 q4 84 4 111 q0 64 -4 86 q-3 8 -6 8 q-4 0 -27 -5 q-17 -7 -20 -7 q-7 0 -9 2 q-10 -147 -22 -275 Z" /><glyph glyph-name="" unicode="&#x5403;" d="M147 755 q25 0 34 -17 q35 7 52 7 q71 0 108 -27 q40 -29 40 -153 l0 -82 q15 27 19 37 q107 253 107 284 q0 3 -7 20 l98 -49 q24 -16 24 -32 q0 -7 -8 -33 q49 -5 119 -5 q120 0 172 8 q18 3 34 20 l0 -94 q0 -27 -17 -35 q-23 -11 -189 -11 q-124 0 -164 5 q-15 -35 -35 -79 q48 3 135 18 q82 14 132 14 q51 0 90 -31 q26 -21 26 -62 q0 -35 -98 -150 q-72 -83 -157 -196 q-44 -53 -44 -70 q0 -21 64 -21 q132 0 270 48 l-75 -125 q-13 -15 -39 -21 q-115 -12 -214 -12 q-91 0 -134 31 q-36 21 -36 72 q0 26 43 94 q66 98 179 225 q77 86 77 95 q0 13 -10 13 q-20 0 -122 -24 q-49 -13 -63 -13 q-29 0 -43 33 l-10 15 q-27 -54 -48 -54 q-14 0 -77 33 q-1 -86 -5 -212 l-5 -88 q11 3 23 22 l0 -103 q0 -29 -20 -38 q-14 -11 -110 -11 q-54 0 -72 2 l-2 -20 q-9 -29 -34 -29 l-106 0 q20 17 23 106 q2 206 2 273 q0 125 -10 325 q-5 82 -21 97 l104 0 ZM252 122 q3 31 9 82 q12 182 12 356 q0 63 -14 75 q-12 9 -39 9 q-14 0 -29 -3 q6 -120 6 -282 q0 -113 -2 -233 q40 -4 57 -4 Z" /><glyph glyph-name="" unicode="&#x6301;" d="M168 674 q-4 43 -9 71 q-6 44 -22 64 l119 0 q28 0 37 -64 q4 -38 6 -71 q41 0 68 6 q12 3 28 23 l0 -108 q0 -31 -21 -40 q-11 -7 -69 -10 l1 -135 l25 13 q26 9 32 39 l36 -92 q6 -18 6 -28 q0 -24 -29 -42 l-72 -32 q-6 -247 -32 -302 q-26 -59 -100 -59 q-24 0 -66 10 q-25 6 -31 26 q-13 33 -27 83 q14 -9 37 -12 q16 -2 44 -2 q23 0 32 43 q7 60 10 159 l-19 -8 q-39 -15 -46 -15 q-23 0 -33 28 l-36 104 q14 -12 20 -12 q11 0 31 8 q50 18 86 33 l-1 193 q-71 0 -90 8 q-21 11 -21 42 l0 106 q12 -18 36 -21 q36 -5 70 -6 ZM705 813 q47 0 50 -46 l0 -51 q74 3 131 12 q26 0 38 26 l0 -104 q0 -39 -43 -39 q-47 -10 -126 -13 l0 -86 q89 3 156 12 q26 0 38 25 l0 -103 q0 -39 -43 -39 q-74 -14 -226 -14 q-169 0 -242 8 q-43 1 -43 38 l0 100 q10 -22 51 -22 q77 -7 178 -7 l0 88 q-82 0 -145 7 q-42 2 -42 38 l0 100 q10 -22 51 -22 q53 -6 136 -6 l0 31 q0 51 -24 67 l105 0 ZM751 -93 q-32 0 -76 11 q-30 6 -36 29 q-15 39 -33 93 q18 -18 46 -24 q26 -5 56 -5 q27 0 36 18 q15 36 15 154 q-22 -1 -69 -1 q-68 0 -96 1 q6 -7 18 -19 q23 -28 23 -48 q0 -12 -11 -26 l-70 -84 q4 8 4 11 q0 18 -32 47 q-72 69 -80 69 l-15 -2 l48 58 q-10 0 -14 1 q-43 1 -43 38 l0 100 q12 -22 52 -22 q70 -7 216 -7 q22 0 64 2 q-4 25 -9 41 q-6 25 -21 34 l114 0 q27 0 36 -34 l5 -32 q11 0 23 3 q26 0 38 26 l0 -104 q0 -39 -43 -39 q-8 -2 -11 -2 l0 -12 q0 -208 -33 -244 q-28 -31 -102 -31 Z" /><glyph glyph-name="" unicode="&#x51fa;" d="M301 475 q65 0 112 5 q-2 61 -10 229 q-6 86 -23 100 l116 0 q36 0 42 -33 q8 -96 11 -277 q14 2 22 4 q95 15 166 39 l-1 7 q-31 152 -31 187 q0 20 51 29 l88 21 q-15 -12 -15 -25 q32 -193 73 -333 q2 -10 30 -20 l-82 -18 q-40 -10 -57 -10 q-9 0 -18 9 q-5 11 -11 36 q-4 -3 -8 -3 q-116 -25 -206 -39 q0 -231 -5 -331 q10 1 28 5 q94 16 173 41 q-29 162 -29 204 q0 20 51 30 l87 20 q-14 -11 -14 -24 q35 -230 71 -364 q2 -9 30 -21 l-84 -18 q-48 -10 -58 -10 q-7 0 -17 10 q-6 11 -15 55 l-4 -2 q-190 -41 -318 -55 q-121 -12 -190 -12 q-42 0 -103 22 q-45 21 -69 78 q-13 32 -13 67 q0 24 6 75 q10 77 19 123 q6 30 6 36 q0 9 -16 28 l115 -14 q33 -3 33 -33 q0 -10 -9 -64 q-8 -45 -13 -84 q-4 -27 -4 -42 q0 -73 89 -73 q64 0 111 5 q2 17 4 54 q2 210 2 277 q-91 -10 -154 -10 q-43 0 -97 19 q-44 15 -65 65 q-12 26 -12 55 q0 27 6 82 q6 48 19 134 q6 33 6 39 q0 10 -15 28 l115 -15 q33 -3 33 -33 q0 -5 -10 -70 q-6 -34 -12 -93 q-5 -27 -5 -47 q0 -45 78 -45 Z" /><glyph glyph-name="" unicode="&#x9664;" d="M280 798 q71 0 98 -24 q27 -22 27 -58 q0 -59 -49 -243 q-6 -18 -9 -30 q8 -4 17 -10 q32 -26 32 -109 q0 -141 -14 -250 q-10 -74 -33 -101 q-21 -21 -74 -21 q-55 0 -66 24 l-11 40 q-4 -67 -5 -76 q-9 -30 -35 -30 l-111 0 q21 18 24 120 q2 232 2 306 q0 141 -10 364 q-4 93 -22 109 l108 0 q32 0 38 -24 q16 2 33 7 q27 6 60 6 ZM195 673 q5 -99 6 -225 q13 0 19 2 q8 24 17 55 q38 135 38 166 q0 15 -29 15 q-16 0 -35 -8 q-13 -5 -16 -5 ZM201 338 q0 -134 -2 -264 q20 -10 42 -10 q12 0 18 15 q13 49 13 218 q0 47 -35 49 q-12 0 -33 -7 q-2 0 -3 -1 ZM485 809 q53 -8 100 -12 q13 -4 17 -8 l5 1 q92 19 138 19 q38 0 68 -45 q41 -56 97 -200 q30 -73 47 -73 q-106 -63 -124 -63 q-10 0 -21 33 l-25 77 l0 -23 q0 -26 -16 -32 q-10 -7 -40 -8 q4 -34 7 -101 q96 2 145 7 q21 3 42 21 l0 -95 q0 -28 -18 -36 q-29 -10 -167 -11 q-1 -262 -34 -309 q-26 -41 -102 -41 q-27 0 -60 9 q-24 5 -29 23 q-10 24 -14 38 q-6 -9 -14 -9 q-8 0 -34 6 q-39 6 -75 15 q11 10 16 19 q13 41 31 112 q15 66 15 74 q0 12 -10 25 q24 -3 99 -10 q26 -3 26 -27 q0 -16 -21 -100 q-10 -47 -20 -78 q3 -2 10 -2 q24 -3 42 -3 q27 0 36 28 q13 58 14 230 q-146 0 -182 9 q-18 9 -18 38 l0 93 q19 -16 54 -19 q72 -6 144 -6 q-3 73 -8 100 q-31 2 -40 6 q-16 9 -16 34 l0 11 q-10 -33 -21 -63 q-15 -40 -29 -40 q-14 0 -38 8 q-6 2 -81 19 q19 4 30 38 q37 102 68 214 q19 73 19 85 q1 9 -13 22 ZM568 586 q4 -2 7 -2 q43 -7 95 -7 q66 0 98 7 l3 1 q-13 35 -30 77 q-20 44 -35 44 q-25 0 -89 -16 q-17 -5 -22 -5 q-12 -51 -27 -99 ZM892 227 q-13 -10 -13 -22 q25 -126 52 -200 q1 -8 26 -19 l-72 -15 q-37 -9 -51 -9 q-6 0 -13 5 q-9 15 -30 100 q-23 92 -23 116 q0 17 44 27 l80 17 Z" /><glyph glyph-name="" unicode="&#x695a;" d="M437 305 q-80 -5 -141 -13 q-135 -27 -155 -27 q-25 0 -55 51 l-38 63 q29 -11 67 -11 q52 0 209 16 q179 16 275 16 q137 0 195 -13 q62 -12 89 -36 q25 -25 25 -66 q0 -38 -13 -54 q-13 -18 -35 -18 l-110 22 q21 3 28 14 q11 9 11 36 q0 7 -9 13 q-18 7 -53 10 q-64 2 -128 2 l-31 0 q0 -3 1 -5 l0 -100 q75 -6 150 -6 q120 0 176 7 q17 3 35 18 l0 -85 q0 -26 -16 -32 q-24 -10 -195 -10 q-99 0 -150 3 l0 -52 q141 -16 249 -24 q69 -5 111 -5 q13 0 28 18 l-16 -77 q-6 -49 -29 -49 q-45 0 -178 10 q-126 9 -234 24 q-80 10 -266 37 q-12 2 -16 2 q-9 -18 -7 -13 q-30 -62 -55 -62 q-17 0 -116 54 q27 4 54 50 q100 185 100 206 q0 5 -6 18 l93 -47 q23 -15 23 -30 q0 -13 -30 -73 q69 -11 163 -23 l0 241 ZM215 761 q-2 37 -21 49 l89 0 q39 0 42 -38 l0 -11 q68 0 120 7 q16 3 35 20 l0 -91 q0 -26 -16 -34 q-9 -4 -23 -5 q16 -101 38 -177 q0 -8 22 -16 l-63 -13 q-29 -8 -43 -8 q-6 0 -10 7 q-9 15 -24 108 q-12 62 -15 93 l-21 0 l0 -203 q0 -55 -30 -55 l-101 0 q22 9 22 47 l0 211 l-20 0 q-2 -10 -4 -28 q-14 -103 -34 -188 q-7 -30 -13 -30 q-11 0 -33 7 q-28 7 -68 15 q10 3 16 31 q20 84 35 167 q6 33 5 31 q-25 2 -33 4 q-16 9 -16 36 l0 89 q15 -15 45 -18 q70 -7 119 -7 ZM665 756 q-3 40 -21 53 l93 0 q41 0 44 -40 l0 -14 q88 2 131 7 q19 3 37 20 l0 -91 q0 -26 -16 -34 q-8 -3 -34 -6 q18 -112 41 -199 q1 -9 22 -16 l-61 -13 q-29 -7 -43 -7 q-6 0 -12 6 q-7 15 -29 121 q-14 78 -17 103 l-19 0 l0 -180 q0 -57 -31 -57 l-106 0 q21 9 21 49 l0 188 l-18 0 l-3 -25 q-15 -96 -36 -181 q-6 -29 -14 -29 q-11 0 -32 7 q-35 6 -71 15 q10 3 16 30 q17 63 37 161 q7 35 5 27 q-25 2 -32 4 q-17 9 -17 36 l0 89 q18 -15 47 -18 q59 -6 118 -6 Z" /><glyph glyph-name="" unicode="&#x7840;" d="M241 767 q96 0 145 9 q13 3 29 22 l0 -103 q0 -29 -19 -39 q-21 -12 -142 -12 q-5 -33 -23 -117 l16 1 q68 0 105 -27 q39 -30 39 -159 q0 -97 -4 -241 l-3 -50 l3 0 q8 3 19 21 l0 -93 q0 -25 -17 -34 q-14 -11 -100 -11 q-35 0 -69 2 q-3 -9 -8 -14 q-6 -11 -32 -11 l-82 0 q15 11 15 38 q0 173 -3 377 q-32 5 -72 14 q18 12 26 34 q27 84 50 187 q16 65 20 86 q-39 2 -50 7 q-20 10 -20 41 l0 102 q13 -18 38 -21 q69 -9 139 -9 ZM275 87 q11 134 11 251 q0 64 -15 77 q-10 8 -37 8 l-13 -1 l5 -375 q23 -3 44 -3 l5 43 ZM595 479 q13 0 19 1 q-3 107 -9 229 q-5 85 -21 100 l102 0 q31 0 37 -29 q8 -108 10 -283 q3 0 9 2 q25 5 56 16 l-7 44 q-20 116 -20 153 q0 21 29 30 q54 16 94 26 q-15 -12 -15 -22 q0 -27 22 -147 q25 -157 41 -195 q3 -12 20 -18 l-73 -16 q-40 -10 -49 -10 q-10 0 -14 17 q-3 7 -10 35 q-3 -3 -6 -3 q-40 -11 -76 -18 q0 -210 -4 -336 q14 2 19 4 q33 6 59 15 q-3 16 -7 48 q-20 123 -20 161 q0 20 29 29 l90 26 q-14 -11 -14 -22 q0 -31 20 -155 q24 -169 37 -207 q3 -11 19 -19 q-21 -5 -67 -14 l-46 -10 q-9 0 -14 17 q-4 11 -9 36 q-4 -1 -8 -3 q-94 -20 -162 -28 q-61 -6 -96 -6 q-36 0 -81 18 q-36 18 -54 62 q-10 24 -10 53 q0 35 5 79 q5 44 19 131 l5 38 q0 10 -14 27 l107 -14 q30 -3 30 -31 q0 -11 -9 -70 q-6 -33 -12 -90 q-4 -29 -4 -46 q0 -43 56 -43 l12 0 q2 23 3 46 q2 214 2 283 l0 3 q-34 -3 -58 -3 q-33 0 -75 15 q-34 16 -49 57 q-10 20 -10 47 q0 33 5 75 q9 69 18 123 q5 33 5 36 q0 10 -14 27 l107 -14 q30 -3 30 -31 q0 -11 -9 -65 q-7 -49 -11 -85 q-4 -27 -4 -43 q0 -33 45 -33 Z" /><glyph glyph-name="" unicode="&#x89e6;" d="M321 791 q45 0 73 -17 q29 -18 29 -50 q0 -23 -24 -59 q-23 -43 -50 -78 q28 -3 47 -20 q35 -27 49 -72 q14 -48 14 -235 q0 -195 -11 -258 q-12 -58 -41 -80 q-22 -20 -57 -20 q-41 0 -71 5 q-10 3 -20 28 q-11 34 -22 60 q11 -4 34 -7 q24 -4 32 -4 q27 0 37 21 q10 27 13 135 q-12 -1 -39 -1 l0 -70 q0 -51 -27 -51 l-94 0 q20 9 20 43 l0 77 q-19 0 -39 2 q-3 -171 -7 -202 q-9 -26 -30 -26 l-94 0 q18 14 20 89 q2 172 2 227 q0 97 -7 272 q-6 68 -20 81 l93 0 q23 0 29 -16 q21 1 75 11 q20 2 28 4 q-2 0 -2 2 q-19 12 -35 33 q12 0 45 34 q35 43 35 53 q0 14 -22 14 q-13 0 -45 -8 q-4 -2 -8 -2 q-27 -45 -46 -75 q-22 -41 -40 -41 q-14 0 -98 45 q19 3 38 34 q72 116 72 130 q0 4 -6 16 l73 -36 q14 2 20 4 q40 8 77 8 ZM174 247 q20 -3 39 -3 l0 63 q-19 0 -39 2 l0 -62 ZM314 243 q29 0 40 2 l0 64 q-24 -2 -40 -2 l0 -64 ZM172 416 q21 -3 41 -3 l0 73 q-28 -9 -36 -9 q-6 0 -8 2 q2 -30 3 -63 ZM314 412 q16 0 36 2 q-3 45 -8 62 q-9 22 -28 25 l0 -89 ZM561 695 q24 0 33 -18 q20 2 46 6 l-1 26 q-6 86 -22 100 l99 0 q30 0 36 -29 l5 -82 l24 1 q43 0 73 -24 q38 -24 53 -73 q12 -42 12 -138 q0 -37 -5 -150 l-4 -44 q6 4 17 15 l0 -97 q0 -28 -19 -36 q-22 -11 -146 -11 l-2 -89 l45 8 q-3 21 -3 29 q0 14 41 23 l71 17 q-12 -9 -12 -21 q15 -88 35 -155 q0 -8 23 -17 l-66 -14 q-38 -8 -47 -8 q-4 0 -9 5 q-3 5 -9 29 q-85 -19 -166 -26 q-112 -11 -160 -11 q-37 0 -37 34 l0 103 q14 -18 33 -18 q56 0 132 9 q8 0 11 1 q2 15 4 50 l0 52 q-20 0 -44 2 q-9 -28 -34 -28 l-103 0 q20 12 23 77 q2 148 2 196 q0 93 -10 236 q-4 58 -21 70 l102 0 ZM608 261 q13 -2 39 -2 l0 113 q0 97 -3 203 q-19 -4 -23 -4 q-11 0 -16 4 q4 -94 4 -159 l-1 -155 ZM761 590 q3 -90 3 -193 l0 -141 l21 1 q5 48 7 75 q8 96 8 132 q0 78 -15 108 q-10 15 -24 18 Z" /><glyph glyph-name="" unicode="&#x5904;" d="M313 767 q29 -12 29 -33 q0 -8 -8 -43 q5 0 17 2 q42 6 89 6 q58 0 91 -25 q30 -27 30 -72 q0 -73 -89 -260 q-26 -52 -46 -87 q86 -46 178 -88 q8 20 11 67 q2 168 2 224 q0 103 -10 266 q-4 68 -23 80 l113 0 q35 0 41 -33 q8 -85 10 -160 q28 17 34 20 l50 26 q-7 -17 -8 -24 q0 -18 47 -100 q0 -4 65 -118 q3 -11 28 -12 l-55 -25 q-50 -28 -64 -28 q-28 0 -79 114 l-16 33 l0 -11 q0 -258 -8 -308 q-9 -32 -37 -32 l-54 0 q19 -10 34 -15 q203 -94 233 -94 q11 0 33 12 l-35 -68 q-33 -70 -54 -70 q-30 0 -231 93 q-126 54 -273 136 q-45 -70 -103 -146 q-61 -84 -94 -84 q-6 2 -24 12 q-31 17 -89 46 q48 0 158 170 l43 64 q-1 0 -2 1 q-29 13 -62 34 q-15 -37 -29 -37 q-20 0 -122 54 q18 0 34 45 q75 179 119 342 q36 126 36 143 q0 8 -13 24 l103 -41 ZM316 316 q29 53 50 98 q66 135 66 167 q0 18 -29 21 q-23 0 -59 -12 q-16 -4 -23 -4 q-10 0 -15 4 q-30 -106 -74 -229 q16 -10 66 -35 q12 -8 18 -10 Z" /><glyph glyph-name="" unicode="&#x4f20;" d="M350 756 q22 -17 22 -27 q0 -17 -13 -50 q-41 -85 -70 -137 q8 -113 11 -297 q0 -248 -5 -300 q-6 -33 -47 -33 l-101 0 q22 19 22 57 q2 158 2 276 q0 37 -3 116 l-3 0 q-19 0 -123 69 q23 0 57 57 q69 102 134 226 q27 56 27 72 q0 14 -3 23 l93 -52 ZM442 712 q23 -2 68 -4 q11 63 11 76 q2 10 -13 25 q29 -5 109 -14 q29 -6 29 -31 q0 -8 -8 -58 l21 0 q124 1 214 12 q24 0 36 25 l0 -98 q0 -37 -41 -37 q-69 -13 -209 -13 l-41 0 l-17 -78 l45 0 q160 2 266 13 q24 0 36 24 l0 -97 q0 -37 -41 -37 q-88 -13 -261 -13 l-71 0 l-23 -89 q46 3 86 13 q96 15 189 15 q43 -3 66 -20 q24 -24 24 -51 q0 -38 -35 -87 q-50 -68 -125 -135 q3 -3 8 -3 q81 -27 96 -27 q13 0 26 15 l-23 -63 q-18 -63 -37 -63 q-12 0 -114 34 q-85 31 -179 75 q-51 23 -51 34 q0 18 24 61 q18 32 28 56 q4 -20 15 -29 q44 -22 86 -40 l51 46 q84 78 84 97 q0 10 -14 10 q-72 0 -128 -15 q-48 -14 -79 -14 q-14 0 -22 9 q-16 -42 -32 -42 q-14 0 -38 8 l-83 19 q25 9 37 65 l33 124 q-40 0 -70 3 q-41 1 -41 36 l0 95 q11 -21 49 -21 q28 -2 88 -4 l18 79 q-31 0 -54 3 q-41 1 -41 36 l0 95 q9 -20 48 -20 Z" /><glyph glyph-name="" unicode="&#x521b;" d="M148 808 q48 -8 105 -13 q15 -3 21 -11 l22 6 q70 19 106 19 q35 0 64 -44 q36 -54 91 -197 q29 -72 43 -72 q-60 -35 -89 -48 q12 -27 12 -128 q0 -103 -10 -140 q-13 -32 -41 -43 q-21 -10 -58 -10 q-60 0 -88 5 q-15 3 -26 37 q-1 4 -13 34 l-15 40 q18 -12 44 -15 q22 -7 42 -7 q31 0 39 7 q16 13 16 92 q0 64 -8 78 q-6 9 -24 9 q-16 0 -51 -8 q-35 -13 -42 -13 q-10 0 -16 7 l-6 -52 q-8 -107 -8 -209 q0 -76 13 -88 q13 -15 43 -19 q27 -4 62 -4 q40 0 95 11 q65 13 117 38 l-51 -114 q-11 -23 -37 -29 q-136 -16 -167 -16 q-46 0 -99 14 q-47 18 -75 52 q-27 35 -27 155 q0 143 12 251 l5 57 q-12 2 -26 7 l-80 18 q20 5 30 37 q36 90 70 202 q18 66 18 80 q2 9 -13 24 ZM233 506 q44 0 47 -27 l51 8 q70 10 84 10 q24 0 42 -6 q-38 114 -61 169 q-18 41 -34 41 q-16 0 -49 -15 q-10 -5 -15 -5 q-21 0 -30 20 q-27 -95 -65 -195 l30 0 ZM685 727 q32 0 38 -30 q11 -107 11 -266 q0 -235 -7 -286 q-9 -29 -35 -29 l-106 0 q20 12 23 81 q2 158 2 208 q0 110 -9 248 q-6 62 -22 74 l105 0 ZM774 -89 q-36 0 -88 11 q-36 6 -42 29 q-20 44 -39 92 q23 -22 60 -31 q39 -6 70 -6 q32 0 41 45 q17 96 17 397 q0 224 -15 299 q-6 46 -21 62 l116 0 q27 0 36 -62 q13 -109 13 -299 q0 -408 -36 -477 q-30 -60 -112 -60 Z" /><glyph glyph-name="" unicode="&#x8bcd;" d="M193 764 q26 0 101 -51 q27 -21 27 -37 q0 -11 -9 -23 l-66 -79 q4 8 4 11 q0 13 -37 36 q-86 53 -96 53 q-4 0 -14 -2 l60 73 q19 19 30 19 ZM297 42 q40 0 92 8 l-73 -88 q-22 -17 -89 -17 q-36 0 -60 19 q-15 18 -15 40 q0 54 9 162 q10 152 10 196 q0 22 -18 22 q-7 0 -15 -3 q-15 -3 -25 -3 q-22 0 -29 25 l-34 97 q27 -8 65 -8 q22 0 48 5 q47 5 53 5 q24 0 49 -10 q29 -23 29 -59 q0 -26 -9 -154 q-12 -157 -12 -214 q0 -10 7 -16 q3 -7 17 -7 ZM739 -90 q-54 0 -93 6 q-31 2 -40 27 l-57 90 q46 -23 142 -23 q64 0 84 17 q25 15 28 57 l0 250 q0 267 -18 330 q-6 19 -34 19 q-94 0 -184 -15 q-67 -11 -105 -11 q-24 0 -39 21 q-24 45 -63 99 q15 -6 40 -6 q80 0 195 14 q134 14 205 14 q48 0 82 -32 q28 -34 37 -115 q16 -147 16 -318 l0 -169 q-6 -169 -53 -215 q-43 -40 -143 -40 ZM560 608 q107 0 155 8 q14 3 31 21 l0 -96 q0 -30 -18 -36 q-22 -11 -168 -11 q-141 0 -171 9 q-19 9 -19 38 l0 94 q14 -16 39 -19 q67 -8 151 -8 ZM469 450 q20 0 29 -12 q28 0 63 5 q48 5 70 5 q47 0 74 -18 q28 -24 31 -85 l0 -46 q0 -48 -6 -99 q13 5 24 19 l0 -90 q0 -27 -17 -35 q-17 -10 -131 -10 q-66 0 -99 3 q-10 -20 -30 -20 l-107 0 q21 8 24 51 q2 98 2 130 q0 60 -10 155 q-6 40 -22 47 l105 0 ZM518 197 q38 -5 88 -5 l6 0 q2 36 2 60 l-1 41 q0 45 -27 48 q-15 0 -33 -3 q-17 -4 -23 -4 q-10 0 -13 2 q2 -40 2 -62 l-1 -77 Z" /><glyph glyph-name="" unicode="&#x6b64;" d="M385 808 q29 0 38 -29 l0 -217 q10 -2 31 -2 q54 0 82 9 q7 2 17 22 l0 -107 q0 -31 -21 -40 q-12 -12 -78 -12 q-23 0 -31 1 l0 -377 q74 10 146 35 q-1 14 -1 45 q0 275 23 466 q16 176 16 183 q0 11 -19 24 l104 0 q51 0 51 -35 l-29 -256 q83 37 155 80 q26 15 29 45 q51 -105 51 -123 q0 -22 -29 -39 q-88 -50 -178 -88 q-19 -9 -27 -9 q-6 0 -8 2 q-6 -138 -6 -250 q0 -66 10 -75 q10 -13 30 -16 q21 -3 44 -3 q33 0 73 8 q47 9 90 32 l-56 -128 q-14 -26 -42 -32 q-85 -3 -113 -3 q-38 0 -83 14 q-40 17 -62 51 q-17 23 -21 80 l-43 -96 q-13 -25 -42 -31 q-198 -17 -253 -17 q-38 0 -83 14 q-40 17 -62 51 q-24 33 -24 152 q0 203 12 356 q9 125 9 138 q0 13 -20 25 l103 0 q49 0 49 -34 l-16 -187 q-8 -152 -8 -298 q0 -67 11 -75 q10 -13 31 -16 q23 -3 46 -3 l10 0 l0 473 q0 223 -18 292 l112 0 Z" /><glyph glyph-name="" unicode="&#x6b21;" d="M162 764 q24 0 43 -33 q38 -46 74 -125 q43 -104 43 -194 q0 -39 -13 -114 q-13 -89 -47 -183 q-37 -110 -54 -136 q-11 -19 -34 -19 l-119 40 q20 2 29 16 q48 94 81 209 q31 121 31 176 q0 60 -28 146 q-32 70 -86 144 q-10 15 -32 15 l60 32 q43 26 52 26 ZM430 808 q37 -6 113 -14 q30 -6 30 -33 q0 -6 -3 -24 q65 5 87 8 q119 11 155 11 q24 0 49 -6 q30 -9 46 -23 q20 -15 30 -40 q11 -28 11 -52 q0 -52 -31 -179 q-20 -90 -31 -106 q-15 -15 -30 -15 q-10 0 -63 14 l-60 13 q37 9 49 64 q27 73 45 209 q0 7 -10 14 q-15 3 -37 3 q-29 0 -123 -11 q-85 -12 -104 -12 q-4 0 -5 1 q-23 -97 -56 -198 q-15 -42 -29 -42 q-12 0 -42 9 q-42 9 -90 21 q20 5 29 41 q33 99 67 230 q17 77 17 91 q1 9 -14 26 ZM580 588 q57 -9 108 -15 q28 -6 28 -30 q0 -17 -28 -124 q-18 -67 -39 -132 q14 7 33 11 l84 19 q-14 -10 -14 -23 q74 -206 157 -340 q1 -8 27 -19 l-75 -15 q-43 -10 -51 -10 q-15 0 -35 10 q-25 25 -80 162 q-49 121 -58 168 q-43 -133 -101 -267 q-32 -71 -63 -71 q-12 0 -42 9 l-90 20 q43 10 64 71 q79 178 148 395 q40 132 40 156 q2 10 -13 25 Z" /><glyph glyph-name="" unicode="&#x4ece;" d="M406 768 q31 -12 31 -35 q0 -27 -41 -185 l-30 -109 l60 32 q-7 -15 -8 -24 q0 -16 43 -96 q0 -2 54 -100 q55 154 97 314 q56 198 56 223 q0 8 -13 24 l104 -41 q28 -14 28 -33 q0 -25 -43 -188 q-20 -72 -48 -163 l82 26 q-13 -13 -13 -27 q0 -29 64 -190 q69 -181 100 -227 q7 -8 29 -13 q-40 -20 -88 -36 q-32 -10 -44 -10 q-16 5 -47 69 q-64 141 -111 297 q-2 4 -4 12 q-44 -132 -107 -300 q-30 -81 -53 -81 q-18 0 -125 55 q26 0 53 71 q35 87 66 171 l-5 -2 q-52 -29 -66 -29 q-26 0 -74 109 q-15 30 -20 43 q-48 -159 -111 -333 q-29 -80 -50 -80 q-20 0 -125 54 q24 0 48 71 q105 278 166 527 q51 195 51 221 q0 8 -13 26 l107 -43 Z" /><glyph glyph-name="" unicode="&#x5b58;" d="M717 532 q86 0 122 -25 q39 -28 39 -74 q0 -27 -41 -79 q-44 -53 -80 -81 q82 3 136 10 q27 0 40 26 l0 -107 q0 -41 -45 -41 q-64 -11 -177 -13 q-3 -180 -38 -213 q-28 -30 -114 -30 q-37 0 -87 11 q-35 6 -41 30 q-22 47 -37 94 q20 -23 56 -31 q38 -6 69 -6 q36 0 47 17 q17 30 20 127 q-141 0 -227 8 q-45 2 -45 40 l0 103 q12 -22 54 -22 q93 -7 215 -7 q-4 36 -11 58 q-6 22 -21 31 l113 0 q11 0 18 -5 q57 44 57 62 q-3 18 -57 18 q-60 0 -148 -38 q-35 -19 -39 -19 q-18 0 -32 17 q-37 43 -95 102 q21 -6 72 -6 q34 0 118 21 q97 22 159 22 ZM140 247 q-16 0 -31 12 l-86 67 l15 0 q17 0 56 48 q87 108 153 207 q-62 1 -126 5 q-45 2 -45 40 l0 103 q12 -22 54 -22 q77 -4 189 -6 q49 93 49 111 q0 3 -7 17 l115 -31 q20 -8 20 -23 q0 -14 -29 -75 l34 0 q219 1 388 14 q27 0 40 26 l0 -108 q0 -41 -45 -41 q-129 -13 -383 -13 l-99 0 q-52 -85 -126 -183 q4 -68 8 -210 q0 -201 -5 -241 q-6 -33 -47 -33 l-100 0 q21 15 21 48 q2 128 2 226 q0 21 -3 66 q-7 -4 -12 -4 Z" /><glyph glyph-name="" unicode="&#x9519;" d="M110 810 q118 -13 104 -11 q26 -3 26 -27 q0 -5 -7 -44 q11 -2 34 -2 q64 0 93 8 q10 3 19 21 l0 -94 q0 -29 -18 -35 q-11 -11 -94 -11 q-46 0 -62 2 q-19 -69 -32 -93 q32 -3 63 -3 q80 0 115 8 q10 3 23 20 l0 -93 q0 -29 -18 -35 q-11 -8 -64 -10 l-12 -95 q58 2 88 7 q16 3 29 21 l0 -96 q0 -30 -18 -36 q-19 -10 -112 -11 q-13 -118 -13 -155 q0 -35 29 -35 q44 0 113 23 l-49 -97 q-19 -27 -96 -27 q-24 0 -64 10 q-31 10 -43 33 q-13 23 -13 61 q0 85 11 188 q-56 1 -76 8 q-18 9 -18 38 l0 94 q13 -16 36 -19 q36 -4 72 -6 l11 95 q-42 2 -53 7 q-17 9 -17 37 l0 50 q-34 5 -63 12 q15 9 23 26 q19 53 43 144 q22 90 22 96 q0 14 -12 26 ZM719 709 l0 33 q0 50 -26 68 l108 0 q47 0 50 -46 l0 -50 q20 0 35 3 q20 3 42 23 l0 -104 q0 -30 -20 -39 q-11 -5 -57 -8 l0 -79 q35 2 51 4 q23 4 46 24 l0 -106 q0 -29 -19 -39 q-34 -12 -257 -12 q-217 0 -261 10 q-19 10 -19 42 l0 103 q22 -19 58 -22 q24 -3 47 -3 l0 78 q-40 2 -57 6 q-19 10 -19 41 l0 102 q18 -18 53 -21 q8 -1 23 -1 l0 25 q0 49 -25 68 l107 0 q47 0 50 -46 l0 -53 q16 -1 48 -1 l42 0 ZM719 506 l0 80 l-90 0 l0 -79 q15 -1 43 -1 l47 0 ZM519 352 q23 0 36 -13 q29 1 82 6 q93 8 136 8 q48 0 82 -17 q41 -18 59 -55 q13 -32 13 -103 l-4 -110 l-2 -15 q11 5 19 13 l0 -91 q0 -24 -16 -34 q-28 -11 -203 -11 q-106 0 -159 3 q-11 -22 -30 -22 l-121 0 q26 12 26 55 l0 318 q0 50 -26 68 l108 0 ZM568 45 q77 -6 153 -6 q45 0 65 1 l6 52 q-28 -2 -107 -2 q-89 0 -117 2 l0 -47 ZM568 200 q48 -5 117 -5 q67 0 112 3 q-3 31 -15 46 q-13 12 -39 12 q-32 0 -94 -5 q-57 -8 -71 -8 q-8 0 -10 2 l0 -45 Z" /><glyph glyph-name="" unicode="&#x642d;" d="M151 674 q-3 38 -8 71 q-6 45 -23 64 l119 0 q29 0 37 -64 q4 -38 6 -71 q32 1 55 6 q8 2 14 9 l0 81 q21 -15 60 -18 q24 -2 35 -2 q-2 46 -23 61 l99 0 q43 0 46 -43 l0 -23 q24 -1 74 -1 q57 0 83 1 q-2 47 -24 62 l100 0 q43 0 46 -43 l0 -15 q19 0 34 3 q23 3 48 20 l0 -94 q0 -27 -18 -35 q-12 -5 -65 -8 q-6 -40 -33 -40 l-112 0 q20 8 23 37 l-157 0 q-4 -44 -32 -44 l-35 0 l73 -43 l9 3 q98 31 150 31 q40 0 77 -37 q43 -47 107 -167 q34 -62 52 -62 q-106 -61 -123 -61 q-13 0 -25 25 l-40 82 l0 -29 q0 -26 -15 -32 q-17 -10 -133 -10 q-114 0 -135 8 q-16 7 -16 34 l0 9 l-25 -33 q-24 -34 -36 -34 q-14 0 -67 34 q-5 -5 -7 -6 q-11 -6 -59 -29 q-6 -251 -30 -305 q-26 -59 -98 -59 q-23 0 -60 10 q-26 6 -30 26 q-14 40 -26 83 q12 -9 33 -12 q15 -2 40 -2 q23 0 30 43 q6 48 9 154 q-6 -3 -8 -3 q-34 -15 -41 -15 q-23 0 -33 28 l-36 104 q14 -12 20 -12 q10 0 27 8 l73 31 l-1 195 q-59 1 -75 8 q-20 10 -20 42 l0 106 q11 -18 31 -21 q31 -5 59 -6 ZM519 395 q57 -6 113 -6 q83 0 124 7 q2 0 3 1 l-24 41 q-24 35 -42 35 q-34 0 -104 -29 q-26 -10 -33 -10 q-9 0 -12 2 l-25 -41 ZM361 383 q52 72 96 148 q20 40 20 50 l0 7 l-54 0 q22 9 23 47 q-57 2 -78 6 q-4 1 -6 5 l0 -51 q0 -31 -20 -40 q-10 -7 -54 -9 l1 -130 l12 7 q23 9 29 39 l31 -79 ZM490 253 q29 0 36 -24 q15 2 70 13 q86 16 127 16 q43 0 77 -13 q39 -15 54 -43 q13 -26 13 -80 l-2 -79 q10 5 17 12 l0 -91 q0 -25 -17 -34 q-27 -10 -186 -10 q-95 0 -157 4 q-10 -10 -24 -10 l-109 0 q21 8 24 45 q2 86 2 115 q0 51 -10 138 q-6 35 -22 41 l107 0 ZM540 34 q69 -6 139 -6 q41 0 59 1 q0 11 1 17 q3 51 3 76 q0 21 -14 30 q-12 6 -37 6 q-33 0 -83 -14 q-57 -15 -62 -15 q-5 0 -6 1 l1 -65 l-1 -31 Z" /><glyph glyph-name="" unicode="&#x8fbe;" d="M168 795 q25 0 97 -60 q26 -24 26 -42 q0 -12 -11 -26 l-73 -89 l4 11 q0 17 -36 42 q-85 62 -94 62 q-7 0 -16 -3 l69 82 q20 23 34 23 ZM225 517 q33 0 48 -26 q18 -31 18 -147 l0 -114 q0 -89 -8 -145 l2 0 q127 -25 319 -40 q172 -14 322 -14 q11 0 23 16 l-6 -64 q-4 -50 -13 -59 q-10 -9 -20 -9 q-99 0 -273 13 q-222 20 -341 46 q-39 13 -59 13 q-3 0 -29 -38 q-31 -37 -46 -37 q-14 0 -57 31 l-62 46 q25 0 44 22 l48 40 q21 19 32 27 q12 60 12 152 l0 121 q0 57 -9 57 q-16 -2 -29 -13 q-13 -8 -26 -8 q-18 0 -27 17 l-48 75 q59 0 102 18 q46 20 83 20 ZM541 640 q32 110 32 144 q0 8 -16 26 l111 -34 q34 -11 34 -31 q0 -28 -20 -106 q121 1 190 9 q24 3 49 23 l0 -108 q0 -31 -21 -40 q-30 -10 -169 -11 q78 -160 180 -322 q11 -16 37 -16 l-61 -36 q-60 -36 -77 -36 q-13 0 -43 54 q-42 65 -121 227 q-18 32 -26 53 q-50 -138 -125 -279 q-26 -53 -47 -53 q-24 0 -135 68 q23 0 42 36 q83 134 144 304 q-114 2 -147 9 q-21 11 -21 42 l0 106 q22 -18 62 -21 q84 -7 148 -8 Z" /><glyph glyph-name="" unicode="&#x7b54;" d="M306 515 q12 -8 19 -17 q38 5 76 15 q167 38 262 38 q53 0 98 -42 q53 -52 138 -191 q45 -70 67 -70 q-109 -64 -126 -64 q-18 0 -36 30 l-59 96 l0 -2 q0 -26 -16 -34 q-27 -11 -225 -11 q-188 0 -230 9 q-16 9 -16 36 l0 25 q-33 -57 -57 -95 l-10 -16 l94 0 q36 0 45 -27 q24 3 136 20 q147 17 215 17 q39 0 66 -10 q34 -13 51 -35 q19 -22 19 -67 l0 -72 q7 4 14 9 l0 -93 q0 -27 -18 -36 q-40 -10 -263 -10 q-135 0 -227 4 q-10 -13 -24 -13 l-118 0 q24 12 24 55 l0 192 q0 46 -18 61 q-14 -17 -22 -17 q-19 0 -119 67 q18 0 44 44 q56 84 105 177 q21 45 21 57 q0 14 -3 23 l93 -53 ZM334 36 q101 -7 216 -7 q98 0 138 2 l0 57 q0 28 -19 34 l-48 1 q-37 0 -142 -12 q-120 -22 -143 -22 l-2 0 l0 -53 ZM285 384 q16 -4 24 -4 q85 -8 195 -8 q131 0 193 7 l-15 20 q-35 40 -61 40 q-78 0 -231 -36 q-58 -13 -76 -13 q-15 0 -22 8 l-7 -14 ZM352 750 q88 0 129 7 q13 3 27 22 l0 -97 q0 -28 -19 -36 q-17 -10 -93 -10 q20 -63 35 -79 q1 -4 15 -7 q-36 -9 -71 -15 q-40 -10 -48 -10 q-8 0 -12 7 q-9 9 -27 70 q-8 20 -12 34 q-29 1 -49 5 q-13 -34 -35 -79 q-12 -26 -26 -26 q-14 0 -38 8 q-34 7 -82 18 q18 3 27 26 q37 73 64 141 q16 48 16 56 q1 8 -12 23 l100 -13 q27 -4 27 -29 l-2 -12 q37 -4 86 -4 ZM784 749 q92 0 137 7 q13 3 27 22 l0 -97 q0 -28 -18 -36 q-17 -10 -103 -11 q23 -55 40 -70 q3 -4 20 -7 q-37 -9 -72 -15 q-40 -10 -47 -10 q-9 0 -15 6 q-12 9 -35 65 q-12 24 -14 32 q-40 1 -58 6 q-15 -33 -30 -63 q-12 -24 -26 -24 q-13 0 -37 8 l-80 19 q15 3 24 23 q25 50 56 131 q15 42 15 52 q2 9 -12 24 q32 -5 107 -14 q28 -6 28 -31 l-2 -13 q43 -4 95 -4 Z" /><glyph glyph-name="" unicode="&#x6253;" d="M195 674 q-3 38 -8 71 q-6 45 -23 64 l119 0 q28 0 37 -64 l6 -72 q53 2 81 7 q15 3 30 23 l0 -108 q0 -31 -21 -40 q-14 -8 -84 -10 l1 -139 q17 7 38 17 q29 9 35 39 l36 -92 q6 -18 6 -28 q0 -24 -32 -42 q-51 -21 -85 -34 q-6 -246 -32 -300 q-27 -59 -104 -59 q-25 0 -68 10 q-28 6 -32 26 q-14 33 -30 83 q15 -9 40 -12 q18 -2 47 -2 q27 0 36 43 q7 60 10 161 q-10 -4 -28 -10 q-43 -15 -51 -15 q-23 0 -33 28 l-36 104 q12 -12 19 -12 q14 0 35 8 q63 20 97 34 l-1 192 q-80 0 -102 8 q-21 11 -21 42 l0 106 q13 -18 38 -21 q41 -6 80 -6 ZM706 759 q134 0 203 9 q22 5 41 24 l0 -106 q0 -29 -19 -39 q-18 -8 -108 -10 q12 -93 12 -261 q0 -354 -37 -416 q-29 -53 -113 -53 q-52 0 -118 12 q-48 8 -57 33 q-20 36 -50 103 q30 -18 80 -24 q45 -5 96 -5 q36 0 48 36 q19 76 19 314 q0 184 -13 259 q-176 0 -213 10 q-20 10 -20 42 l0 103 q19 -19 52 -22 q98 -9 197 -9 Z" /><glyph glyph-name="" unicode="&#x2f24;&#x5927;" d="M403 600 q45 134 45 180 q0 12 -18 30 l126 -38 q38 -12 38 -36 q0 -38 -30 -137 q176 0 293 10 q35 4 72 26 l0 -118 q0 -36 -23 -45 q-42 -11 -286 -13 q27 -66 90 -195 q70 -144 175 -273 q11 -18 43 -18 l-103 -50 q-30 -14 -40 -14 q-26 0 -92 104 q-89 135 -172 328 l-24 65 q-84 -218 -217 -427 q-42 -68 -70 -68 q-23 0 -145 72 q33 0 63 47 q131 190 224 430 q-207 0 -263 9 q-23 12 -23 47 l0 116 q34 -20 91 -23 q123 -7 246 -9 Z" /><glyph glyph-name="" unicode="&#x5446;" d="M218 810 q33 0 39 -29 q23 1 143 13 q146 15 226 15 q76 0 132 -17 q66 -18 94 -53 q21 -30 21 -100 q0 -27 -5 -107 q-1 -5 -1 -11 q19 5 36 16 l0 -94 q0 -27 -17 -35 q-41 -11 -326 -11 l6 -92 q198 0 309 9 q36 3 74 22 l0 -100 q0 -29 -18 -37 q-36 -7 -139 -10 q50 -88 121 -192 q9 -13 36 -15 l-60 -35 q-58 -35 -76 -35 q-10 0 -34 39 q-34 51 -95 167 q-25 45 -36 69 l-80 0 q0 -202 -8 -244 q-11 -32 -39 -32 l-117 0 q24 12 27 72 q2 140 2 185 l0 19 l-79 0 q-22 -55 -106 -201 q-38 -74 -67 -74 q-18 0 -130 59 q35 6 68 60 q60 101 93 159 q-109 2 -143 7 q-18 11 -18 39 l0 98 q31 -17 95 -20 q141 -7 282 -9 l-7 93 q-87 0 -159 4 q-9 -31 -36 -31 l-113 0 q23 9 26 58 q2 112 2 150 q0 69 -10 177 q-6 45 -24 54 l111 0 ZM737 545 q7 75 7 94 q0 33 -45 45 q-36 9 -109 9 q-63 0 -177 -13 q-112 -14 -133 -14 q-8 0 -11 2 l1 -111 l-1 -41 l2 0 q124 -8 282 -8 q129 0 180 2 l4 35 Z" /><glyph glyph-name="" unicode="&#x5e26;" d="M180 728 l0 7 q0 49 -25 66 l105 0 q46 0 49 -45 l0 -31 q40 -1 130 -1 l0 11 q0 50 -24 66 l105 0 q45 0 48 -45 l0 -31 q75 0 139 3 l0 7 q0 50 -24 66 l104 0 q46 0 49 -45 l0 -22 q38 2 58 4 q27 0 40 26 l0 -107 q0 -41 -45 -41 q-33 -4 -53 -5 l0 -9 q0 -64 -35 -64 l-118 0 q24 9 24 54 l0 13 q-64 -3 -139 -3 l0 -5 q0 -64 -35 -64 l-118 0 q24 11 24 55 l0 14 q-91 0 -130 1 l0 -11 q0 -64 -36 -64 l-118 0 q25 11 25 55 l0 24 q-39 0 -69 3 q-45 2 -45 40 l0 104 q12 -23 54 -23 l60 -3 ZM143 513 q39 0 46 -33 q50 3 183 23 q173 22 269 22 q138 0 195 -20 q61 -22 88 -58 q25 -44 25 -108 q0 -63 -10 -86 q-9 -32 -24 -32 l-65 13 q8 -34 8 -82 q0 -98 -14 -129 q-17 -28 -56 -39 q-35 -10 -80 -10 q-49 0 -78 6 q-15 5 -24 40 q-10 36 -24 80 q18 -15 46 -21 q22 -11 43 -11 q32 0 44 6 q18 11 18 78 q0 49 -31 58 q-24 6 -98 6 l-37 -1 l0 -239 q0 -64 -35 -64 l-118 0 q24 11 24 54 l0 238 q-99 -19 -123 -19 q-8 0 -13 5 l0 -150 q0 -62 -33 -62 l-113 0 q24 11 24 52 l0 209 q-8 -14 -24 -14 l-115 0 q23 11 23 54 l0 170 q0 49 -23 64 l102 0 ZM301 285 q44 2 137 12 l0 74 q0 21 -5 39 l-86 -12 q-130 -36 -151 -36 q-4 0 -6 1 l0 -45 l66 0 q38 0 45 -33 ZM558 420 q8 -12 9 -28 l0 -82 q66 4 74 4 q62 0 107 -10 q40 -9 65 -22 q3 21 3 57 q0 26 -8 45 q-13 24 -49 31 q-52 7 -118 7 q-31 0 -83 -2 Z" /><glyph glyph-name="" unicode="&#x4ee3;" d="M377 451 q22 0 104 17 l51 12 q-16 44 -22 66 q-50 168 -50 198 q0 21 28 31 q77 23 117 34 q-19 -18 -19 -37 q12 -64 78 -257 q95 26 162 53 q71 21 75 52 l42 -101 q6 -15 6 -24 q0 -21 -45 -36 q-93 -36 -198 -66 q79 -221 185 -403 q9 -18 42 -18 l-101 -49 q-29 -13 -39 -13 q-28 0 -99 153 q-67 139 -121 295 l-52 -12 q-97 -22 -117 -22 q-31 0 -37 32 l-18 108 q12 -13 28 -13 ZM741 797 q30 0 112 -60 q31 -25 31 -42 q0 -10 -10 -23 l-67 -83 q4 8 4 11 q0 17 -42 42 q-97 62 -107 62 q-6 0 -15 -3 l63 75 q18 21 31 21 ZM377 750 q24 -18 24 -30 q0 -18 -14 -49 q-44 -80 -73 -128 q7 -121 10 -298 q0 -248 -5 -300 q-6 -33 -47 -33 l-100 0 q21 18 21 57 q2 158 2 276 q0 39 -3 126 q-15 -15 -24 -15 q-18 0 -116 66 q24 0 58 57 q73 106 139 231 q27 57 27 73 q0 15 -3 25 l104 -58 Z" /><glyph glyph-name="" unicode="&#x888b;" d="M154 523 q-16 -12 -26 -12 q-14 0 -24 13 l-67 77 l15 0 q23 0 106 86 q104 93 104 115 q0 7 -4 21 l84 -72 q10 -12 10 -21 q0 -18 -40 -58 q-8 -9 -29 -30 q5 -112 5 -185 q0 -68 -16 -82 q-6 -12 -38 -12 l-95 0 q18 11 18 44 q0 55 -3 116 ZM333 626 q18 0 115 12 q29 3 55 9 q-58 57 -58 77 q0 15 41 47 q-1 0 61 47 q-1 -3 -4 -23 q0 -8 84 -89 q15 -16 31 -31 q39 7 103 22 l-14 7 q-84 43 -92 43 q-3 0 -11 -2 l49 59 q16 16 25 16 q22 0 95 -41 q27 -18 27 -29 q0 -9 -8 -19 l-18 -22 l11 3 q79 14 83 37 l36 -86 q5 -17 5 -22 q0 -15 -48 -27 q-85 -22 -144 -34 q57 -53 129 -112 q7 -11 34 -11 l-34 -32 q-54 -55 -76 -55 q-18 0 -65 40 q-54 46 -146 140 q-43 -8 -115 -19 q-102 -17 -127 -17 q-28 0 -32 29 l-16 94 q10 -11 24 -11 ZM113 358 q111 -6 302 -6 q-15 36 -15 45 q0 25 36 37 q44 14 113 31 q-19 -13 -19 -27 q0 -9 16 -50 q7 -21 14 -35 q202 2 334 10 q24 0 36 24 l0 -96 q0 -37 -40 -37 q-24 -3 -49 -3 l55 -48 q11 -13 11 -23 q0 -12 -32 -36 q-22 -19 -74 -56 l30 -19 q85 -56 96 -56 q13 0 27 5 l-58 -66 q-36 -44 -49 -44 q-30 0 -174 105 l-13 -43 q-11 -23 -45 -35 q-67 -12 -126 -19 q-64 -4 -75 -4 q-34 0 -82 17 q-39 19 -56 62 q-10 23 -10 53 q0 17 4 45 l3 22 q-45 -42 -83 -69 q-35 -29 -50 -29 q-16 0 -30 15 l-70 80 l18 0 q23 2 132 94 l50 43 q-65 1 -135 5 q-40 1 -40 36 l0 92 q10 -20 48 -20 ZM386 243 q-3 -21 -23 -42 l21 -3 q31 -3 31 -31 l-7 -34 q-4 -16 -9 -44 q-3 -15 -3 -22 q0 -46 57 -46 q58 0 121 16 q31 7 47 13 q-145 96 -145 132 q0 10 36 56 l4 5 l-130 0 ZM576 243 q70 -52 115 -82 q32 23 38 28 q67 46 77 60 q-97 -6 -230 -6 Z" /><glyph glyph-name="" unicode="&#x5f85;" d="M172 232 q-25 -18 -36 -18 q-18 0 -31 16 l-74 84 l19 0 q24 1 143 113 q121 115 121 143 l0 17 l71 -65 l0 17 q10 -22 52 -22 q77 -7 175 -7 l0 88 q-83 0 -146 7 q-43 1 -43 38 l0 100 q12 -22 52 -22 q51 -6 137 -6 l0 31 q0 51 -24 67 l105 0 q47 0 50 -46 l0 -51 q74 3 133 12 q26 0 38 26 l0 -104 q0 -39 -43 -39 q-45 -10 -128 -13 l0 -86 q89 3 158 12 q26 0 38 25 l0 -103 q0 -39 -43 -39 q-74 -14 -226 -14 q-169 0 -242 8 q-40 1 -43 33 q-4 -4 -10 -12 q-48 -52 -70 -73 q7 -217 7 -341 q0 -68 -17 -85 q-6 -12 -39 -12 l-99 0 q19 13 19 46 q0 77 -4 275 ZM341 752 q10 -13 10 -22 q0 -18 -38 -56 q-34 -40 -126 -124 q-29 -28 -45 -28 q-14 0 -27 13 l-69 82 l15 0 q20 0 99 80 q99 87 99 107 q0 7 -4 21 l86 -73 ZM739 -93 q-32 0 -76 11 q-30 6 -36 29 q-17 45 -32 93 q18 -18 46 -24 q25 -5 55 -5 q28 0 37 18 q15 36 15 154 q-22 -1 -70 -1 q-65 0 -93 1 l13 -13 q23 -26 23 -44 q0 -12 -11 -26 l-70 -85 q4 10 4 12 q0 17 -31 43 q-73 63 -81 63 q-4 0 -16 -2 l47 58 q-10 0 -14 1 q-43 1 -43 38 l0 100 q12 -22 52 -22 q71 -7 220 -7 q23 0 65 2 q-4 25 -9 41 q-6 25 -21 34 l114 0 q27 0 36 -34 l5 -32 q13 0 25 3 q26 0 38 26 l0 -104 q0 -39 -43 -39 q-10 -2 -13 -2 l0 -12 q0 -208 -33 -244 q-28 -31 -103 -31 Z" /><glyph glyph-name="" unicode="&#x5355;" d="M353 808 q-7 -15 -8 -23 q0 -8 22 -45 q0 -1 30 -52 q3 -10 24 -11 l-38 -17 q33 2 49 4 q91 6 163 9 q-9 5 -16 10 q10 0 25 19 q28 31 57 71 q11 19 11 24 q0 12 -3 21 l89 -51 q20 -14 20 -24 q0 -7 -6 -16 q-19 -28 -41 -51 q51 0 84 -10 q47 -13 68 -35 q26 -24 26 -70 q0 -141 -5 -206 q11 3 20 9 l0 -88 q0 -25 -17 -33 q-44 -10 -342 -10 l0 -69 q190 0 307 8 q39 3 73 19 l0 -91 q0 -26 -16 -34 q-53 -11 -365 -11 q-3 -89 -6 -116 q-9 -30 -36 -30 l-109 0 q22 16 25 95 l0 51 q-298 0 -367 9 q-16 9 -16 36 l0 89 q34 -16 93 -17 q136 -7 291 -7 l0 68 q-151 0 -224 5 q-9 -25 -32 -25 l-107 0 q21 9 24 60 q2 116 2 154 q0 72 -10 185 q-6 46 -22 55 l105 0 q25 0 34 -20 l3 0 q23 0 79 5 q-11 11 -22 30 q-29 38 -29 52 q0 15 63 48 l50 26 ZM224 346 q12 -2 21 -2 q107 -5 193 -5 q-2 42 -2 65 q-123 0 -211 4 l-1 -62 ZM565 338 q151 0 207 2 l3 68 q-94 -4 -211 -4 l1 -66 ZM224 513 q3 -1 9 -1 q110 -5 198 -5 l-1 25 q-2 24 -4 34 q-153 -13 -186 -13 q-12 0 -18 9 q0 -15 2 -49 ZM560 506 q128 0 216 5 l0 17 q0 40 -30 47 q-24 2 -73 2 q-37 0 -118 -3 l5 -68 Z" /><glyph glyph-name="" unicode="&#x80c6;" d="M155 810 q23 0 32 -14 q83 13 101 13 q46 0 74 -22 q26 -20 40 -77 q12 -96 12 -318 q0 -263 -9 -356 q-9 -69 -40 -100 q-28 -23 -59 -23 q-42 0 -74 7 q-10 3 -16 23 l-16 52 q-1 -37 -3 -56 q-9 -29 -34 -29 l-106 0 q20 18 23 120 q2 232 2 306 q0 142 -10 365 q-6 92 -21 109 l104 0 ZM201 28 q25 -14 48 -14 q29 0 41 38 q3 43 6 121 q-13 -1 -44 -1 q-35 0 -48 1 q-1 -89 -3 -145 ZM298 431 q-14 -1 -46 -1 q-35 0 -47 1 l0 -143 q16 -2 47 -2 q32 0 46 2 l0 143 ZM296 546 q-4 113 -14 137 q-11 20 -31 20 q-20 0 -53 -5 l5 -151 q17 -2 49 -2 q30 0 44 1 ZM555 779 q30 0 38 -25 q23 3 56 12 q82 19 120 19 q42 0 73 -29 q36 -30 53 -88 q11 -53 11 -169 q0 -59 -3 -182 l-4 -57 q12 7 20 16 l0 -100 q0 -29 -19 -37 q-21 -11 -173 -11 q-86 0 -131 3 q-10 -23 -34 -23 l-112 0 q23 14 26 89 q2 174 2 228 q0 106 -10 273 q-6 68 -24 81 l111 0 ZM604 252 q62 -6 123 -6 l41 0 l4 92 q0 21 2 53 q-23 -2 -82 -2 q-64 0 -86 2 q0 -67 -2 -139 ZM606 511 q37 -4 86 -4 q49 0 85 3 q-2 97 -12 134 q-12 28 -32 28 q-29 0 -68 -15 q-47 -19 -52 -19 q-8 0 -11 2 q2 -42 4 -129 ZM689 43 q151 0 218 8 q22 3 44 22 l0 -100 q0 -28 -18 -37 q-33 -12 -244 -12 q-198 0 -248 10 q-18 12 -18 39 l0 98 q18 -17 56 -20 q93 -8 210 -8 Z" /><glyph glyph-name="" unicode="&#x4f46;" d="M474 760 q27 0 36 -21 l26 3 q68 9 89 10 q70 4 95 4 q54 0 92 -10 q47 -15 74 -54 q24 -40 24 -215 q0 -62 -8 -180 q-3 -27 -3 -45 q16 7 26 17 l0 -99 q0 -30 -19 -38 q-26 -11 -213 -11 q-135 0 -180 5 q-12 -18 -32 -18 l-112 0 q23 14 26 87 l1 222 q0 119 -9 264 q-6 67 -24 79 l111 0 ZM523 247 q77 -8 170 -8 q48 0 69 1 l4 43 l6 100 q-45 -3 -118 -3 q-85 0 -129 3 q0 -64 -2 -136 ZM525 504 q65 -6 129 -6 q77 0 120 4 q-1 77 -8 105 q-9 25 -33 34 q-19 8 -56 8 q-17 0 -52 -6 q-31 -6 -54 -12 q-31 -10 -46 -10 q-4 0 -4 1 q2 -40 4 -118 ZM646 47 q176 0 255 8 q24 3 51 22 l0 -100 q0 -28 -18 -37 q-39 -12 -288 -12 q-236 0 -293 10 q-19 12 -19 39 l0 98 q21 -17 64 -20 q109 -8 248 -8 ZM343 750 q24 -18 24 -30 q0 -16 -13 -49 q-41 -78 -70 -129 q8 -113 11 -297 q0 -248 -5 -300 q-6 -33 -47 -33 l-100 0 q21 18 21 57 q2 158 2 276 l-4 118 q-8 -7 -14 -7 q-17 0 -116 66 q22 0 55 57 q66 105 130 231 q25 59 25 73 q0 15 -3 25 l104 -58 Z" /><glyph glyph-name="" unicode="&#x86cb;" d="M615 809 q146 0 201 -18 q64 -19 91 -52 q27 -37 27 -98 q0 -55 -10 -78 q-10 -27 -26 -27 l-116 23 q14 3 19 22 q7 18 7 60 q0 22 -10 39 q-15 20 -54 27 q-48 6 -129 6 l-45 -1 l0 -47 q30 -3 59 -3 q69 0 103 7 q11 3 21 17 l0 -82 q0 -25 -16 -31 q-14 -10 -108 -10 q-44 0 -59 1 l0 -47 q110 -21 224 -35 q75 -9 102 -9 q14 0 27 17 l-16 -73 q-6 -46 -27 -46 q-54 0 -162 15 q-110 14 -212 38 q-92 20 -241 61 q-3 0 -4 1 q-32 -51 -55 -80 q-19 -27 -36 -27 q-8 0 -25 10 l-98 48 q18 0 35 20 q51 58 98 137 q16 26 16 35 q0 2 -14 24 l111 -13 q33 -3 33 -28 q0 -7 -12 -34 q80 -21 127 -32 l0 153 l-1 8 q-89 -8 -133 -14 q-133 -29 -159 -29 q-25 0 -58 54 l-41 67 q33 -12 72 -12 q52 0 214 19 q176 17 280 17 ZM192 357 q27 0 40 -16 q52 2 181 13 l0 3 q-6 44 -22 53 l107 0 q33 0 39 -31 l3 -18 q117 5 168 5 q52 0 85 -10 q46 -15 64 -35 q26 -23 26 -67 l-1 -48 q10 3 25 10 l0 -82 q0 -25 -15 -31 q-16 -4 -45 -5 q13 -23 31 -47 q0 -1 57 -78 q3 -8 26 -11 l-53 -25 q-52 -26 -62 -26 q-16 0 -41 31 q-180 -21 -398 -21 q-159 0 -310 13 q-34 3 -35 24 q0 23 8 99 q9 -16 31 -16 q129 -14 306 -14 l13 0 l1 3 l1 63 q-102 0 -186 4 q-9 -25 -30 -25 l-118 0 q24 11 24 55 l0 164 q0 48 -24 66 l104 0 ZM739 41 q-9 17 -9 25 q0 11 28 29 q-56 -2 -210 -2 q-1 -41 -3 -64 q101 3 194 12 ZM241 199 l6 0 q88 -4 176 -6 q0 21 -2 67 q-146 -10 -178 -10 l-2 0 l0 -51 ZM549 192 q121 0 205 3 l0 26 q0 40 -29 46 q-24 2 -70 2 q-33 0 -107 -3 l1 -74 Z" /><glyph glyph-name="" unicode="&#x5f53;" d="M614 525 q102 0 159 -12 q74 -18 100 -51 q28 -37 28 -157 q0 -98 -11 -199 l-4 -42 q23 6 41 17 l0 -103 q0 -29 -20 -38 q-54 -12 -398 -12 q-326 0 -406 10 q-20 11 -20 40 l0 101 q31 -18 89 -21 q168 -9 337 -9 q140 0 239 3 l12 108 q-70 -5 -278 -5 q-280 0 -337 10 q-19 9 -19 39 l0 97 q26 -16 74 -19 q141 -9 282 -9 q197 0 284 8 l1 24 q0 62 -13 78 q-16 16 -56 22 q-37 5 -101 5 q-65 0 -140 -9 q-82 -6 -181 -22 q-100 -20 -121 -20 q-27 0 -57 66 l-32 76 q18 -15 65 -15 q67 0 210 20 l78 9 l0 259 q0 20 -18 35 l101 0 q53 0 56 -46 l0 -239 l56 1 ZM225 756 q-7 -15 -9 -26 q0 -11 31 -61 q0 -3 44 -72 q3 -10 28 -12 l-55 -26 q-53 -28 -67 -28 q-21 0 -60 70 q-34 55 -34 73 q0 18 68 53 l54 29 ZM841 723 q21 -13 21 -32 q0 -14 -58 -89 q-47 -56 -64 -56 q-12 0 -32 14 l-80 55 q20 0 42 28 q85 97 85 117 q0 7 -2 19 l88 -56 Z" /><glyph glyph-name="" unicode="&#x515a;" d="M195 488 l0 -56 q0 -61 -33 -61 l-112 0 q23 9 23 51 l0 182 q0 47 -23 64 l99 0 q38 0 44 -31 q4 -1 13 -1 q11 0 18 1 q-4 5 -10 15 q-35 51 -35 69 q0 18 68 53 l54 28 q-8 -15 -9 -25 q0 -10 30 -61 q0 -4 38 -62 l71 11 l0 110 q0 20 -18 35 l99 0 q51 0 54 -45 l0 -86 q23 2 75 4 q3 3 4 5 q59 97 59 109 q0 2 -7 19 l98 -49 q24 -15 24 -32 q0 -6 -34 -59 q37 -6 56 -13 q58 -24 83 -60 q24 -42 24 -111 q0 -66 -10 -89 q-12 -32 -30 -32 l-98 20 q-1 -48 -3 -79 q16 7 25 14 l0 -88 q0 -25 -17 -33 q-23 -7 -111 -8 l-7 -29 q-8 -38 -13 -72 q-5 -21 -5 -36 q0 -46 58 -46 q53 0 106 14 q65 14 106 43 l-32 -104 q-8 -20 -41 -32 q-79 -14 -112 -16 q-58 -4 -68 -4 q-34 0 -85 16 q-40 17 -58 59 q-11 21 -11 49 q0 20 6 65 q9 49 18 91 l-96 0 q-5 -19 -19 -53 q-10 -23 -43 -79 q-35 -57 -96 -126 q-21 -26 -39 -26 q-18 0 -120 63 q16 0 41 22 q93 91 127 155 q11 18 23 47 q-15 0 -21 1 l-1 -2 q-9 -29 -34 -29 l-106 0 q20 6 23 46 q2 92 2 121 q0 55 -10 143 l-2 10 ZM810 415 q0 2 2 6 q7 21 7 71 q0 26 -7 52 q-13 25 -46 34 q-42 9 -111 9 q-143 0 -279 -25 q-120 -35 -143 -35 q-18 0 -38 26 l0 -32 l85 0 q27 0 35 -22 q23 0 152 11 q147 8 209 8 q38 0 65 -10 q34 -12 49 -33 q19 -19 20 -60 ZM330 306 q104 -7 224 -7 q93 0 131 2 q2 38 2 80 q0 25 -21 31 l-48 1 q-25 0 -138 -5 q-116 -10 -140 -10 q-6 0 -11 3 l1 -95 Z" /><glyph glyph-name="" unicode="&#x6863;" d="M230 700 q-4 92 -20 109 l98 0 q30 0 36 -28 l5 -104 l18 3 q12 3 28 23 l0 -104 q0 -30 -20 -39 q-6 -4 -23 -6 q2 -120 2 -194 l0 -24 l16 -13 q43 -34 49 -34 q12 0 25 4 l-51 -60 q-26 -32 -39 -37 q-3 -216 -7 -258 q-9 -27 -33 -27 l-99 0 q19 19 22 119 q2 180 2 243 q-2 1 -8 7 q-20 15 -34 28 q-11 -165 -22 -296 q-7 -90 -34 -90 l-97 8 q18 22 24 110 q25 277 28 515 q-7 1 -10 3 q-20 10 -20 41 l0 102 q12 -18 35 -21 q57 -8 130 -8 l-1 28 ZM220 467 q0 -16 14 -29 l4 -4 q0 36 -2 114 l-31 0 q0 -33 -2 -103 l17 22 ZM930 715 q20 -14 20 -23 q0 -8 -6 -20 q-31 -69 -60 -112 q-13 -20 -19 -20 q-17 0 -106 59 q10 0 22 24 q26 36 55 91 q11 24 11 29 q0 9 -2 21 l85 -49 ZM747 523 q65 0 102 -12 q47 -18 63 -51 q18 -36 18 -158 q0 -104 -9 -200 l-4 -49 q17 5 33 19 l0 -100 q0 -28 -18 -37 q-33 -12 -247 -12 q-201 0 -251 10 q-19 12 -19 39 l0 98 q20 -17 56 -20 q95 -8 214 -8 q66 0 95 1 l8 82 l2 36 q-48 -3 -129 -3 q-154 0 -185 10 q-19 9 -19 39 l0 97 q14 -16 42 -19 q81 -9 162 -9 q92 0 134 5 l0 21 q0 66 -5 84 q-6 17 -21 23 q-13 5 -39 5 q-30 0 -79 -7 q-53 -7 -101 -20 q-60 -15 -69 -15 q-24 0 -54 63 l-30 71 q17 -14 61 -14 q39 0 126 16 q8 2 26 4 l0 264 q0 17 -16 33 l94 0 q48 0 51 -43 l0 -243 l8 0 ZM519 755 q-7 -15 -8 -23 q0 -10 27 -60 q0 -4 37 -72 q3 -11 27 -11 l-51 -24 q-48 -26 -62 -26 q-18 0 -51 70 q-29 54 -29 73 q0 16 62 47 l48 26 Z" /><glyph glyph-name="" unicode="&#x5c9b;" d="M340 819 q73 -7 113 -13 q28 -3 28 -29 q0 -6 -14 -32 q109 16 206 16 q58 0 83 -9 q35 -19 46 -44 q15 -28 15 -110 q0 -71 -16 -103 q-15 -30 -39 -39 q-22 -14 -74 -14 l-39 0 q-54 0 -74 29 l-35 71 q49 -13 103 -13 q29 0 42 13 q9 6 9 56 q0 53 -12 68 q-11 8 -63 8 q-60 0 -121 -8 q-66 -9 -126 -24 q-58 -16 -72 -16 q-11 0 -23 16 l0 -260 q57 2 177 12 q171 15 229 15 q77 0 125 -15 q72 -21 98 -53 q30 -34 30 -171 q0 -145 -12 -190 q-15 -43 -47 -58 q-25 -14 -65 -14 q-44 0 -76 5 q-12 5 -21 34 q-8 25 -24 68 q13 -10 30 -11 q15 -6 27 -6 q32 0 44 12 q19 22 19 160 q0 111 -40 133 q-32 16 -123 16 q-58 0 -199 -11 q-129 -17 -162 -17 q-8 0 -13 5 q-7 -30 -30 -30 l-112 0 q23 9 23 52 l0 364 q0 47 -23 64 l99 0 q35 0 44 -30 l10 0 q18 0 45 5 q4 8 16 41 q8 27 8 29 q0 14 -14 28 ZM384 619 q24 0 104 -52 q29 -21 29 -37 q0 -10 -10 -23 l-63 -77 q3 6 3 11 q0 15 -38 36 q-92 55 -99 55 q-5 0 -14 -3 l58 71 q19 19 30 19 ZM430 279 q28 0 37 -26 l0 -175 q49 6 96 17 l0 86 q0 45 -21 60 l94 0 q41 0 44 -40 l0 -179 q0 -58 -32 -58 l-106 0 q17 9 20 37 q-117 -15 -195 -21 q-90 -6 -139 -6 q-27 0 -69 16 q-32 15 -47 57 q-8 19 -8 46 q0 14 3 41 q9 44 16 68 l4 19 q0 9 -14 25 l102 -13 q29 -3 29 -29 q0 -3 -8 -32 q-5 -16 -9 -40 q-3 -15 -3 -20 q0 -51 40 -51 q41 0 83 3 l0 126 q0 68 -26 89 l109 0 Z" /><glyph glyph-name="" unicode="&#x5bfc;" d="M633 809 q82 0 137 -9 q51 -7 76 -37 q25 -27 25 -93 l-1 -47 q16 4 32 14 l0 -99 q0 -31 -18 -37 q-45 -12 -342 -12 q-227 0 -300 5 q-4 -29 -4 -47 q0 -57 120 -57 q148 0 295 17 q192 17 296 49 l-36 -117 q-13 -26 -47 -37 q-19 -2 -57 -4 l0 -81 q36 0 66 3 q37 3 74 20 l0 -91 q0 -26 -16 -34 q-23 -5 -129 -8 q-7 -86 -23 -124 q-29 -74 -93 -74 q-137 0 -157 11 q-15 6 -27 37 q-24 46 -42 87 q54 -36 175 -36 q23 0 32 97 q-49 -1 -165 -1 q-178 0 -242 2 q28 -17 77 -50 q34 -26 34 -47 q0 -9 -10 -22 l-62 -77 q3 8 3 11 q0 17 -46 45 q-110 70 -119 70 q-5 0 -14 -3 l62 74 q-87 2 -120 6 q-16 9 -16 36 l0 89 q33 -15 95 -18 q165 -7 358 -7 q119 0 170 1 l0 75 q-77 -5 -152 -7 q-109 -5 -207 -5 q-55 0 -122 20 q-54 17 -83 68 q-15 27 -15 58 q0 47 8 115 q15 114 28 186 q8 50 8 56 q0 10 -17 29 l122 -15 q22 -3 30 -17 q52 0 145 15 q139 17 214 17 ZM268 680 q-2 -8 -4 -26 l-6 -38 q141 -9 284 -9 q106 0 184 3 q3 26 3 60 q0 23 -22 34 q-21 9 -74 9 q-117 0 -201 -19 q-122 -28 -143 -28 q-10 0 -21 14 Z" /><glyph glyph-name="" unicode="&#x5230;" d="M307 762 q135 0 207 9 q19 3 41 23 l0 -103 q0 -29 -20 -38 q-30 -12 -228 -12 l-23 0 q-6 -10 -14 -20 q-16 -21 -44 -73 q-16 -26 -16 -37 q0 -7 32 -7 q58 0 118 20 q18 6 33 12 q-10 23 -10 32 q0 17 53 41 l69 28 q-6 -6 -6 -11 q-5 -4 -5 -12 q0 -4 7 -21 q26 -66 60 -132 q9 -14 33 -14 q-36 -22 -55 -32 q-51 -32 -68 -32 q-6 0 -18 24 q-13 24 -22 44 q-13 -14 -36 -22 q-73 -26 -123 -34 q-41 -8 -73 -8 q-34 0 -73 14 q-33 12 -51 46 q-9 18 -9 40 q0 22 18 67 q21 42 50 91 q-43 2 -60 6 q-19 10 -19 40 l0 101 q18 -18 52 -21 q99 -9 200 -9 ZM256 306 q0 52 -26 70 l110 0 q49 0 52 -47 l0 -38 q81 2 123 7 q18 3 40 23 l0 -103 q0 -29 -20 -38 q-25 -10 -143 -10 l0 -95 q64 8 94 14 q77 11 83 35 q29 -105 29 -114 q0 -18 -57 -32 q-104 -23 -227 -34 q-148 -14 -213 -14 q-39 0 -39 35 l0 107 q14 -20 35 -20 q69 0 159 9 l0 108 q-129 2 -162 9 q-20 10 -20 40 l0 101 q18 -18 51 -21 q77 -7 131 -7 l0 15 ZM706 727 q32 0 38 -30 q12 -102 12 -266 q0 -240 -8 -286 q-9 -29 -34 -29 l-107 0 q21 12 24 81 q2 158 2 208 q0 95 -10 248 q-6 62 -21 74 l104 0 ZM786 -89 q-35 0 -85 11 q-36 6 -42 29 q-19 45 -36 92 q22 -22 57 -31 q36 -6 67 -6 q29 0 39 45 q16 99 16 397 q0 224 -15 299 q-6 46 -21 62 l116 0 q27 0 36 -62 q13 -109 13 -299 q0 -408 -36 -477 q-28 -60 -109 -60 Z" /><glyph glyph-name="" unicode="&#x9053;" d="M541 820 q-7 -16 -8 -22 q0 -7 22 -41 l26 -38 q18 -1 53 -1 l60 0 q52 73 52 82 q0 4 -6 17 l85 -43 q21 -13 21 -27 q0 -5 -14 -24 q27 0 48 3 q24 3 50 20 l0 -91 q0 -26 -17 -34 q-38 -11 -247 -11 l-9 -31 q0 -1 -1 -2 q41 3 73 3 q51 0 85 -8 q45 -12 69 -44 q22 -35 22 -174 q0 -41 -7 -146 l0 -2 q15 3 30 15 l0 -85 q0 -26 -16 -32 q-29 -10 -226 -10 q-141 0 -192 4 q-10 -21 -31 -21 l-109 0 q21 10 24 68 q2 132 2 173 q0 80 -10 207 q-6 52 -22 62 l107 0 q30 0 38 -28 l37 5 l14 46 q-156 2 -195 9 q-17 9 -17 36 l0 89 q21 -15 63 -18 q26 -3 52 -3 q-12 18 -12 27 q0 15 59 46 l47 24 ZM504 202 q92 -6 182 -6 q59 0 85 1 q0 10 2 28 q-32 -2 -126 -2 q-94 0 -142 3 l-1 -24 ZM506 328 q71 -6 141 -6 q87 0 132 4 l0 23 q-49 -3 -134 -3 q-91 0 -139 3 l0 -21 ZM504 450 q59 -5 141 -5 q78 0 129 3 q-3 6 -3 11 q-8 21 -28 27 q-19 7 -50 7 q-14 0 -63 -7 q-45 -7 -68 -13 q-40 -10 -57 -10 l-2 0 q0 -9 1 -13 ZM168 795 q25 0 97 -60 q26 -24 26 -42 q0 -12 -11 -26 l-73 -89 l4 11 q0 17 -36 42 q-85 62 -94 62 q-7 0 -16 -3 l69 82 q20 23 34 23 ZM223 517 q35 0 50 -26 q18 -31 18 -147 l0 -114 q0 -89 -8 -145 l2 0 q127 -25 319 -40 q172 -14 322 -14 q11 0 23 16 l-6 -64 q-4 -50 -13 -59 q-10 -9 -20 -9 q-99 0 -273 13 q-222 20 -341 46 q-39 13 -59 13 q-3 0 -29 -38 q-31 -37 -46 -37 q-14 0 -57 31 l-62 46 q25 0 44 22 l48 40 q14 13 29 24 q11 66 11 155 l0 121 q0 57 -8 57 q-15 -2 -28 -13 q-12 -8 -24 -8 q-18 0 -27 17 l-48 75 q59 0 101 18 q46 20 82 20 Z" /><glyph glyph-name="" unicode="&#x5f97;" d="M189 227 q-19 -13 -29 -13 q-18 0 -32 17 l-77 88 l18 0 q24 1 142 110 q119 111 119 140 l0 18 l85 -78 q14 -19 14 -29 q0 -24 -34 -61 q-31 -35 -68 -72 q7 -213 7 -336 q0 -71 -17 -88 q-6 -12 -41 -12 l-102 0 q19 13 19 47 q0 75 -4 269 ZM359 748 q11 -13 11 -23 q0 -18 -36 -54 q-35 -41 -125 -122 q-28 -27 -44 -27 q-16 0 -27 14 l-73 85 l14 0 q21 0 99 78 q95 84 95 104 q0 10 -3 22 l89 -77 ZM518 808 q31 0 43 -23 l77 8 q93 11 138 11 q50 0 83 -15 q41 -18 59 -49 q14 -28 14 -93 q0 -22 -7 -99 l-2 -10 q13 3 25 14 l0 -82 q0 -25 -15 -31 q-27 -10 -205 -10 q-123 0 -170 4 q-9 -19 -27 -19 l-118 0 q25 9 25 54 l0 274 q0 49 -25 66 l105 0 ZM566 534 q81 -6 162 -6 l58 0 l6 31 q0 4 2 10 q-28 -2 -109 -2 q-91 0 -119 2 l0 -35 ZM566 664 q50 -5 119 -5 q76 0 117 4 q-3 22 -16 35 q-17 10 -40 10 q-40 0 -97 -9 q-60 -11 -72 -11 q-8 0 -11 2 l0 -26 ZM692 382 q133 0 197 7 q17 3 39 20 l0 -88 q0 -25 -17 -33 q-10 -4 -51 -7 l5 -45 q21 0 39 3 q21 3 44 19 l0 -90 q0 -27 -16 -35 q-13 -4 -65 -7 q-3 -157 -27 -187 q-22 -28 -82 -28 q-35 0 -95 10 q-38 6 -46 29 l-15 32 l-25 -31 l4 10 q0 16 -37 44 q-85 66 -95 66 q-4 0 -12 -2 l48 57 q-35 1 -53 5 q-17 9 -17 37 l0 88 q20 -14 56 -17 q93 -8 213 -8 l59 0 l-5 47 l-46 0 q-188 0 -223 8 q-17 9 -17 35 l0 86 q18 -15 50 -18 q90 -7 190 -7 ZM618 89 q28 -26 28 -45 q0 -10 -9 -21 l-9 -10 q10 -4 15 -4 q35 -5 77 -5 q13 0 17 16 q7 30 8 103 l-61 0 q-78 0 -108 1 l42 -35 Z" /><glyph glyph-name="" unicode="&#x7684;" d="M313 803 q27 -3 27 -27 q0 -7 -13 -72 l-2 -9 q43 -6 72 -25 q42 -31 42 -163 l5 11 q47 101 75 195 q23 74 23 82 q0 9 -12 25 l104 -41 q28 -14 28 -33 q0 -6 -3 -18 q107 24 141 24 q50 0 83 -22 q29 -18 45 -72 q12 -90 12 -298 q0 -237 -10 -334 q-13 -64 -50 -93 q-35 -22 -73 -22 q-101 0 -158 9 q-22 4 -34 28 l-59 113 q101 -35 187 -35 q42 0 57 33 q11 82 11 301 q0 222 -18 252 q-11 17 -34 17 q-46 0 -140 -22 q-22 -57 -57 -137 q-13 -29 -23 -29 q-18 0 -100 43 q-1 -164 -11 -312 q-7 -72 -11 -92 q5 0 7 1 q14 5 26 23 l0 -105 q0 -29 -19 -39 q-18 -12 -136 -12 q-65 0 -98 3 l-1 -10 q-9 -29 -34 -29 l-106 0 q20 17 23 105 q2 204 2 269 q0 124 -10 321 q-6 81 -21 96 l104 0 q20 0 29 -11 q9 0 21 2 q1 9 8 42 q8 50 8 53 q0 11 -13 26 l106 -12 ZM294 72 q8 38 14 84 l9 111 q-16 -2 -59 -2 q-40 0 -54 1 q0 -91 -2 -189 q39 -5 92 -5 ZM323 386 q2 78 2 116 q0 65 -15 80 q-13 8 -40 8 q-29 0 -72 -5 q5 -89 6 -199 q27 -3 54 -3 q38 0 65 3 ZM580 423 q35 0 144 -94 q39 -36 39 -67 q0 -11 -11 -25 l-71 -87 q4 10 4 12 q0 26 -53 65 q-122 98 -136 98 q-7 0 -16 -3 l67 80 q18 21 33 21 Z" /><glyph glyph-name="" unicode="&#x767b;" d="M380 813 q42 0 76 -25 q28 -31 28 -71 q0 -43 -68 -140 q51 -4 113 -4 q63 0 106 3 q-24 31 -31 41 q-84 107 -84 129 q0 17 54 42 l72 29 q-7 -9 -7 -12 q-5 -4 -5 -11 q0 -6 32 -50 q3 -5 4 -5 q79 52 79 62 q0 8 -2 20 l90 -58 q22 -14 22 -33 q0 -10 -72 -57 q-31 -20 -45 -26 q13 -19 32 -39 q69 48 69 61 q0 7 -2 19 l90 -57 q22 -16 22 -34 q0 -10 -68 -58 q-20 -14 -34 -22 q37 -43 85 -95 q9 -14 33 -14 q-36 -22 -55 -32 q-51 -32 -68 -32 q-19 0 -64 52 q-25 25 -67 77 q-4 -4 -7 -4 q-23 -10 -179 -10 q-153 0 -182 8 q-8 4 -10 8 q-32 -37 -55 -60 l4 0 q38 0 47 -32 l54 4 q45 3 87 7 q144 9 217 9 q40 0 67 -10 q35 -13 52 -35 q19 -22 19 -67 l-1 -45 q12 5 24 12 l0 -90 q0 -27 -17 -35 q-14 -4 -69 -7 q21 -16 21 -32 q0 -7 -34 -58 q53 1 114 5 q33 3 71 20 l0 -94 q0 -26 -18 -35 q-60 -10 -406 -10 q-334 0 -414 8 q-18 11 -18 37 l0 92 q33 -15 90 -18 q70 -4 107 -4 q-25 49 -25 66 q0 6 5 11 l-77 0 q24 11 24 55 l0 180 q-27 -20 -49 -20 q-19 0 -52 21 q-34 18 -62 44 q49 0 144 95 q-21 24 -59 54 q-40 35 -69 35 q39 36 69 58 q30 21 43 21 q13 0 62 -39 q26 -22 41 -38 q68 76 68 102 q0 23 -15 24 q-41 0 -95 -15 q-55 -15 -68 -15 q-20 0 -31 17 q-19 29 -55 87 q17 -6 36 -6 q48 0 121 19 q88 20 145 20 ZM432 34 q27 -1 82 -1 l76 0 l58 90 l-86 0 q-136 0 -181 2 q6 -13 15 -27 q0 -1 36 -64 ZM335 239 q100 -8 227 -8 q98 0 138 2 l0 25 q0 36 -18 40 q-16 2 -46 2 l-147 -4 q-123 -10 -148 -10 q-4 0 -6 1 l0 -48 Z" /><glyph glyph-name="" unicode="&#x7b49;" d="M235 815 q27 -4 27 -28 l-2 -11 q38 -3 75 -3 q92 0 134 7 q12 3 27 19 l0 -87 q0 -26 -17 -34 q-18 -9 -131 -9 q24 -28 38 -42 q7 -10 32 -10 l-32 -29 q-49 -52 -71 -52 q-4 0 -19 16 q-28 33 -62 84 q-12 15 -16 23 q-15 -35 -38 -81 q-15 -27 -30 -27 q-12 0 -34 7 l-72 17 q17 3 26 26 q37 77 61 147 q16 51 16 57 q2 9 -12 24 l100 -14 ZM550 825 q31 -5 104 -14 q29 -6 29 -30 q0 -4 -3 -13 q47 -3 92 -3 q98 0 144 7 q15 3 29 20 l0 -88 q0 -27 -16 -33 q-22 -10 -126 -10 q21 -18 45 -33 q6 -11 31 -11 l-31 -28 q-48 -49 -68 -49 q-8 0 -25 14 q-33 27 -82 76 q-28 25 -33 34 l-25 -49 q-12 -21 -24 -21 q-13 0 -35 7 q-42 11 -77 18 q14 3 21 20 q27 53 49 116 q13 41 13 45 q2 10 -12 25 ZM530 586 q45 0 48 -44 l0 -21 q161 3 281 12 q25 0 37 24 l0 -99 q0 -38 -42 -38 q-97 -11 -276 -13 l0 -33 q203 3 321 11 q26 0 38 25 l0 -100 q0 -38 -42 -38 q-133 -13 -398 -13 q-265 0 -390 7 q-42 2 -42 37 l0 97 q11 -21 50 -21 q120 -6 336 -6 l0 34 q-175 0 -298 7 q-42 2 -42 37 l0 97 q10 -22 50 -22 q105 -6 290 -6 q0 48 -24 66 l103 0 ZM664 -93 q-50 0 -121 11 q-49 6 -58 31 q-28 46 -51 96 q32 -22 86 -31 q57 -6 103 -6 q43 0 57 11 q20 19 23 80 q-87 -3 -193 -3 q-138 0 -194 1 l45 -26 q33 -21 33 -38 q0 -10 -10 -25 l-69 -82 l4 11 q0 17 -43 38 q-100 56 -111 56 q-6 0 -15 -3 l61 72 q-37 0 -67 3 q-42 2 -42 37 l0 97 q9 -22 49 -22 q105 -5 359 -5 q70 0 184 4 l-5 13 q-6 17 -21 24 l111 0 q28 0 35 -24 l2 -9 q46 2 69 4 q25 0 37 25 l0 -100 q0 -38 -42 -38 q-34 -4 -54 -4 q-1 -148 -40 -175 q-32 -23 -122 -23 Z" /><glyph glyph-name="" unicode="&#x4f4e;" d="M349 750 q24 -18 24 -30 q0 -18 -14 -49 q-45 -86 -68 -126 q8 -114 11 -300 q0 -248 -5 -300 q-6 -33 -47 -33 l-101 0 q22 19 22 57 q2 158 2 276 l-4 120 q-10 -9 -16 -9 q-17 0 -116 66 q22 0 55 57 q72 114 131 231 q25 59 25 73 q0 15 -3 25 l104 -58 ZM502 624 q-11 -85 -17 -149 q85 -8 192 -8 q-18 126 -24 191 q-79 -5 -148 -7 l-3 -27 ZM474 354 q-1 -21 -3 -39 q-8 -129 -8 -207 q0 -57 19 -70 q18 -18 54 -18 q19 0 36 5 q-23 66 -23 87 q0 21 29 31 q51 15 97 27 q-16 -12 -16 -23 q0 -14 24 -86 q28 -95 44 -114 q2 -6 20 -11 q-36 -9 -71 -15 l-48 -10 q-10 0 -17 10 q-5 7 -8 15 q-6 -5 -18 -10 l-76 -2 q-37 0 -82 16 q-45 20 -70 70 q-15 33 -15 82 q0 88 8 233 q13 201 35 380 q8 64 8 72 q0 15 -24 27 l104 -9 q38 -4 44 -24 q56 2 107 7 q98 4 185 18 q66 8 72 25 q30 -111 30 -122 q0 -12 -50 -20 q-58 -8 -88 -10 q5 -79 27 -200 q61 3 89 7 q21 3 43 22 l0 -100 q0 -29 -19 -37 q-18 -7 -90 -9 q43 -211 107 -392 q5 -18 26 -26 l-87 -20 q-24 -6 -32 -6 q-31 0 -43 34 q-54 118 -99 407 l-18 0 q-153 0 -203 5 Z" /><glyph glyph-name="" unicode="&#x5730;" d="M152 581 q0 169 -16 227 l109 0 q28 0 37 -29 l0 -198 q35 2 54 7 q13 3 25 23 l0 -43 q5 -1 15 -1 q25 0 57 8 l6 54 q12 101 12 115 q0 10 -16 26 l105 -15 q36 -7 36 -32 q0 -13 -6 -67 l-6 -41 q3 0 7 2 q26 6 38 10 l-5 97 q-6 73 -22 85 l105 0 q32 0 38 -30 q6 -72 8 -128 q44 6 78 6 q42 0 75 -21 q30 -18 40 -64 q10 -63 10 -175 q0 -131 -12 -173 q-12 -40 -33 -49 q-22 -11 -66 -11 l-32 0 q-37 0 -60 35 q-2 -48 -4 -61 q-9 -29 -35 -29 l-106 0 q20 15 23 93 q2 180 2 238 l-1 75 q-4 -2 -12 -4 l-49 -16 q-4 -42 -6 -81 q-8 -100 -8 -213 q0 -95 23 -135 q21 -39 95 -39 q74 0 149 18 q97 25 152 55 l-67 -132 q-15 -21 -37 -27 q-97 -19 -168 -25 q-80 -5 -112 -5 q-38 0 -74 27 q-42 30 -61 97 q-21 59 -21 192 q0 134 8 235 q-20 3 -53 52 l-10 16 l0 -24 q0 -30 -19 -40 q-12 -7 -60 -9 l0 -224 l35 17 q25 9 31 34 l37 -95 q6 -18 6 -28 q0 -22 -28 -38 q-77 -37 -207 -86 q-35 -13 -42 -13 q-23 0 -35 29 l-38 110 q14 -12 21 -12 q8 0 28 7 q34 11 62 22 l0 276 q-58 1 -76 8 q-19 10 -19 42 l0 103 q10 -18 32 -21 q28 -5 63 -7 ZM735 548 l1 -82 q0 -104 -2 -208 q9 -2 26 -2 q25 0 36 14 q11 13 11 127 q0 108 -17 133 q-15 18 -46 18 l-9 0 Z" /><glyph glyph-name="" unicode="&#x7b2c;" d="M685 575 q28 0 62 -4 q-17 17 -35 49 q-16 24 -22 38 q-36 0 -57 3 q-16 -37 -28 -60 q-11 -20 -22 -20 q-13 0 -35 7 l-77 17 q14 3 21 21 q30 59 49 115 q14 37 14 45 q1 9 -13 23 q27 -4 101 -13 q26 -5 26 -29 l0 -2 q45 -4 102 -4 q101 0 149 7 q14 3 30 20 l0 -88 q0 -27 -16 -33 q-17 -8 -116 -10 l29 -39 q3 -9 25 -11 l-49 -22 q-31 -17 -43 -21 q47 -14 68 -33 q27 -21 27 -66 q0 -34 -2 -70 q15 4 33 14 l0 -88 q0 -25 -16 -33 q-48 -10 -308 -10 l0 -39 q104 4 158 4 q76 0 114 -10 q44 -16 62 -42 q22 -28 22 -105 q0 -72 -20 -100 q-15 -29 -43 -39 q-29 -13 -83 -13 l-52 0 q-71 0 -99 34 l-47 84 q79 -25 161 -25 q32 0 44 11 q10 7 10 48 q0 39 -23 50 q-17 7 -107 7 q-37 0 -97 -2 q-3 -169 -8 -198 q-9 -32 -37 -32 l-115 0 q22 13 25 82 q0 48 1 70 q-39 -29 -82 -57 q-154 -95 -188 -95 q-16 0 -34 15 l-78 61 q46 0 122 38 q110 61 172 98 q-14 -2 -38 -4 q-87 -12 -104 -12 q-11 0 -22 12 q-4 -17 -5 -19 q-6 -28 -16 -28 q-8 0 -35 6 q-54 8 -79 14 q10 13 14 31 q12 54 29 166 q15 99 15 111 q0 13 -12 25 q66 -6 101 -10 q25 -3 25 -25 q2 -1 9 -1 q102 -6 201 -6 q-2 46 -4 69 q-2 16 -2 21 q-18 -3 -33 -3 q-199 -28 -235 -28 q-22 0 -34 43 l-22 52 q17 -10 31 -10 q23 0 230 27 q207 21 311 21 ZM571 483 q6 -55 8 -101 q97 0 169 3 l1 49 q0 42 -33 49 q-28 2 -80 2 l-65 -2 ZM449 231 l-1 47 q-149 0 -226 5 l-6 -44 q-2 -9 -4 -28 q45 1 202 17 l35 3 ZM132 808 q53 -8 95 -12 q25 -5 25 -27 l-1 -6 q40 -4 91 -4 q92 0 137 7 q11 3 27 20 l0 -88 q0 -27 -17 -33 q-16 -8 -108 -10 q12 -21 25 -39 q3 -9 26 -11 l-49 -22 q-46 -25 -58 -25 q-15 0 -47 60 q-13 21 -20 38 q-23 0 -37 3 q-19 -54 -32 -83 q-12 -25 -22 -25 q-13 0 -37 8 l-80 19 q16 3 23 23 q33 69 56 133 q15 44 15 53 q2 8 -12 21 Z" /><glyph glyph-name="" unicode="&#x70b9;" d="M454 821 q52 0 55 -45 l0 -30 q78 -7 167 -7 q130 0 197 9 q19 3 40 22 l0 -102 q0 -30 -19 -38 q-30 -12 -218 -12 q-116 0 -167 4 l0 -69 q139 8 204 8 q55 0 88 -11 q46 -12 67 -35 q26 -23 26 -69 q0 -100 -3 -147 q15 4 29 13 l0 -97 q0 -28 -19 -36 q-46 -10 -354 -10 q-249 0 -322 5 q-9 -13 -25 -13 l-121 0 q25 11 25 55 l0 292 q0 50 -25 69 l108 0 q46 0 49 -44 q107 8 137 11 l0 242 q0 19 -18 35 l99 0 ZM236 292 q3 -1 11 -1 q132 -8 300 -8 q125 0 212 3 q2 48 2 127 q0 29 -32 35 l-78 1 q-43 0 -203 -8 q-172 -16 -207 -16 q-4 0 -5 1 l0 -134 ZM210 98 q21 -15 21 -25 q0 -4 -4 -24 q-24 -65 -53 -124 q-13 -22 -16 -22 q-15 0 -119 67 q8 0 22 26 q27 47 51 99 q10 28 10 33 q0 13 -3 22 l91 -52 ZM413 145 q-7 -18 -8 -23 q0 -13 26 -71 q0 -1 36 -82 q3 -8 26 -11 l-51 -24 q-49 -26 -61 -26 q-18 0 -51 80 q-29 61 -29 83 q0 16 62 48 l50 26 ZM636 148 q-7 -16 -8 -22 q0 -12 31 -71 q0 -3 44 -82 q3 -8 26 -11 l-50 -24 q-50 -26 -62 -26 q-19 0 -57 81 q-34 62 -34 83 q0 15 62 47 l48 25 ZM857 156 q-5 -11 -7 -23 q0 -13 32 -74 q0 -3 46 -86 q3 -8 26 -11 l-51 -24 q-50 -26 -61 -26 q-21 0 -60 85 q-34 65 -34 87 q0 15 62 47 l47 25 Z" /><glyph glyph-name="" unicode="&#x7535;" d="M637 704 q88 0 137 -12 q65 -18 87 -49 q25 -34 25 -150 q0 -94 -16 -193 q-3 -27 -6 -45 l13 1 q24 0 36 24 l0 -97 q0 -37 -40 -37 q-102 -11 -316 -11 l-2 0 q5 -53 16 -80 q18 -44 79 -44 q79 0 150 14 q94 21 152 45 l-59 -117 q-13 -19 -34 -25 q-112 -13 -171 -17 q-72 -3 -112 -3 q-36 0 -73 29 q-39 30 -60 101 q-13 40 -16 98 q-116 0 -188 6 q-7 0 -9 1 l-1 -8 q-9 -30 -36 -30 l-109 0 q21 12 24 79 q2 154 2 203 q0 109 -9 244 q-6 61 -23 72 l108 0 q29 0 37 -25 q49 0 175 14 l56 5 q9 72 9 84 q0 10 -18 28 l112 -16 q39 -7 39 -34 q0 -8 -5 -56 l46 1 ZM235 252 q4 -1 12 -1 q77 -5 176 -5 q0 76 2 112 q-119 0 -189 5 l-1 -111 ZM556 358 q-4 -80 -4 -113 l5 0 q68 0 178 4 q6 35 7 38 q9 56 11 76 q-73 -5 -197 -5 ZM236 477 l2 0 q112 -7 193 -7 q3 57 11 127 l-49 -5 q-38 -4 -51 -6 q-90 -13 -106 -13 q-3 0 -3 1 l3 -97 ZM577 606 q-10 -80 -13 -137 q110 0 196 7 l1 17 q0 67 -11 86 q-14 17 -45 23 q-30 5 -83 5 l-45 -1 Z" /><glyph glyph-name="" unicode="&#x8c03;" d="M171 756 q21 0 91 -55 q24 -21 24 -38 q0 -11 -10 -24 l-65 -79 q4 8 4 11 q0 16 -33 38 q-78 57 -87 57 q-6 0 -15 -3 l61 73 q17 20 30 20 ZM290 47 q29 0 77 6 q2 216 2 283 q0 163 -9 364 q-6 94 -20 109 l97 0 q29 0 35 -28 l0 -6 q37 1 158 17 q150 17 181 17 q31 0 58 -15 q33 -19 46 -49 q19 -48 22 -121 q5 -97 5 -251 q0 -227 -5 -320 q-17 -89 -50 -113 q-34 -25 -71 -25 l-54 0 q-54 0 -72 41 l-46 71 q64 -19 148 -19 q16 0 25 13 q9 12 12 85 l0 267 q0 177 -9 273 q-1 38 -12 55 q-12 12 -34 12 q-23 0 -140 -13 q-108 -18 -139 -18 q-11 0 -19 11 q6 -141 6 -333 q0 -345 -7 -422 q-9 -27 -32 -27 l-98 0 q19 19 22 119 l0 3 l-55 -67 q-24 -16 -90 -16 q-34 0 -59 19 q-14 17 -14 39 q0 55 12 158 q12 134 12 191 q0 23 -18 23 q-8 0 -16 -5 q-14 -7 -26 -7 q-22 0 -29 25 l-34 97 q27 -8 65 -8 q19 0 48 7 q45 8 53 8 q25 0 48 -10 q28 -23 28 -59 q0 -20 -11 -150 q-13 -147 -13 -208 q0 -11 5 -16 q3 -7 17 -7 ZM603 625 q-2 39 -22 51 l89 0 q39 0 42 -38 l0 -14 q36 2 60 6 q12 1 24 17 l0 -82 q0 -25 -16 -31 q-12 -8 -68 -9 l0 -65 q42 0 74 5 q14 3 26 18 l0 -82 q0 -25 -15 -31 q-19 -10 -142 -10 q-120 0 -143 8 q-16 9 -16 32 l0 81 q12 -14 33 -16 q40 -5 74 -5 l0 65 q-60 0 -79 7 q-15 9 -15 32 l0 81 q11 -15 30 -15 q35 -5 64 -5 ZM575 337 q26 0 32 -22 l2 0 q17 0 53 9 q36 9 58 9 q34 0 56 -14 q21 -20 24 -67 l0 -38 q0 -33 -10 -75 l2 0 q10 3 20 19 l0 -80 q0 -24 -14 -30 q-14 -10 -110 -10 q-52 0 -81 3 q-6 -25 -22 -25 l-82 0 q17 8 17 38 l0 236 q0 35 -17 47 l72 0 ZM609 137 q33 -5 79 -5 l14 0 q5 23 5 46 l-1 33 q0 37 -21 38 q-13 0 -29 -8 q-15 -8 -20 -8 q-23 0 -27 17 l0 -113 Z" /><glyph glyph-name="" unicode="&#x8776;" d="M127 691 q18 0 26 -13 l33 10 l0 94 q0 14 -14 26 l76 0 q39 0 42 -35 l0 -70 q59 -3 91 -25 q36 -25 36 -140 q0 -97 -4 -237 q-1 -28 -3 -48 q8 4 18 14 l0 -87 q0 -26 -17 -32 q-18 -10 -121 -10 l0 -94 l22 5 q-4 21 -4 33 q0 17 24 26 l80 23 q-13 -9 -13 -19 q0 -18 14 -77 q16 -81 26 -102 q1 -6 13 -10 l-99 -21 q-6 0 -9 9 q-4 7 -11 36 q-55 -16 -118 -25 q-90 -11 -128 -11 q-32 0 -32 30 l0 91 q11 -17 29 -17 q47 0 102 11 l0 113 q-13 0 -25 2 l0 -3 q-7 -23 -27 -23 l-86 0 q15 12 18 77 q2 148 2 195 q0 84 -7 234 q-4 58 -18 70 l84 0 ZM305 242 q3 16 6 46 q9 126 9 246 q0 56 -12 68 q-5 4 -18 7 l0 -367 l15 0 ZM186 597 l-23 -6 q4 -106 4 -182 l-1 -162 q7 -1 20 -1 l0 351 ZM628 713 q0 6 2 18 q9 54 9 60 q0 5 -11 18 l92 -10 q27 -4 27 -29 q0 3 -7 -39 q-3 -10 -3 -19 q38 0 54 1 l-5 53 q-6 35 -21 43 l98 0 q30 0 36 -29 q6 -27 9 -60 q22 5 40 20 l0 -94 q0 -27 -17 -35 q-5 -2 -20 -4 q-2 -107 -7 -126 q-9 -28 -32 -28 l-101 0 q12 4 18 26 q-55 -12 -84 -12 q-43 0 -69 26 q-19 20 -19 68 q0 27 1 39 q-26 0 -37 1 q-3 -46 -3 -84 q0 -70 10 -81 q11 -14 31 -17 q21 -3 45 -3 q53 0 130 10 q89 13 159 38 l-43 -98 q-10 -20 -32 -25 q-77 -9 -116 -11 l0 -53 q84 0 142 8 q21 3 42 21 l0 -99 q0 -31 -18 -37 q-11 -4 -25 -5 q15 -111 35 -194 q0 -8 24 -17 l-68 -15 q-36 -9 -48 -9 q-4 0 -11 7 q-7 17 -24 118 q-14 81 -16 104 q-12 -1 -33 -1 l0 -184 q0 -62 -34 -62 l-116 0 q24 11 24 53 l0 193 q-28 0 -39 1 q-2 -16 -2 -24 q-11 -92 -24 -176 q-6 -30 -9 -30 q-10 0 -39 8 q-65 16 -82 19 q8 5 12 28 q15 71 27 158 l3 22 q-21 2 -28 4 q-18 9 -18 39 l0 97 q17 -16 53 -19 q80 -7 146 -8 l0 38 l-1 7 l-7 0 q-41 0 -83 13 q-39 14 -63 46 q-22 29 -22 136 q0 47 3 89 q-17 0 -26 3 q-18 9 -18 37 l0 92 q19 -16 55 -19 q6 48 6 54 q0 11 -16 22 l93 0 q45 0 45 -32 l-8 -49 q11 -1 34 -1 ZM727 600 q-1 -10 -1 -22 q0 -28 25 -28 q20 0 44 7 l0 44 q-21 -1 -68 -1 Z" /><glyph glyph-name="" unicode="&#x9876;" d="M235 764 q93 0 141 9 q14 3 28 23 l0 -103 q0 -28 -19 -38 q-11 -7 -64 -10 q12 -93 12 -264 q0 -356 -38 -417 q-30 -53 -115 -53 q-26 0 -69 10 q-27 6 -32 28 q-12 29 -29 88 q15 -12 39 -15 q26 -3 47 -3 q32 0 44 37 q18 75 18 325 q0 192 -12 262 q-83 2 -103 10 q-20 10 -20 40 l0 101 q12 -18 37 -21 q66 -9 135 -9 ZM682 778 q141 0 214 9 q21 3 43 22 l0 -102 q0 -30 -19 -38 q-27 -11 -176 -12 q0 -2 -13 -36 q54 6 71 6 q28 0 47 -6 q21 -8 36 -25 q15 -19 21 -54 q5 -33 5 -159 q0 -74 -8 -159 q-7 -72 -11 -87 q-6 -16 -21 -16 l-123 7 q20 5 23 25 q4 25 11 110 q6 78 6 120 q0 76 -6 107 q-5 20 -12 26 q-8 5 -26 5 q-9 0 -91 -10 q-63 -9 -81 -9 q-7 0 -10 3 q3 -57 3 -125 q0 -196 -7 -238 q-9 -29 -35 -29 l-106 0 q20 10 23 67 q2 132 2 173 q0 93 -9 207 q-6 52 -22 62 l105 0 q26 0 35 -22 q12 0 30 3 q15 28 23 54 q-134 2 -165 10 q-19 9 -19 40 l0 100 q17 -17 55 -20 q102 -9 207 -9 ZM460 -92 q-17 0 -30 19 l-65 90 q11 -8 21 -8 q36 0 93 27 q74 31 106 90 q32 61 32 217 q0 78 -7 108 q-4 13 -17 18 l97 0 q29 0 35 -26 q8 -26 8 -100 q0 -215 -41 -289 q-50 -74 -152 -119 q-63 -27 -80 -27 ZM921 16 q13 0 27 10 l-64 -95 q-13 -19 -30 -19 q-15 0 -83 42 q-69 42 -69 57 q0 10 19 35 l50 71 q0 -27 61 -57 q79 -44 89 -44 Z" /><glyph glyph-name="" unicode="&#x5b9a;" d="M144 742 q44 0 48 -42 q56 3 180 21 l69 9 q-12 24 -12 32 q0 25 35 37 l113 32 q-18 -15 -18 -28 q0 -9 17 -44 q3 -10 8 -17 l56 1 q141 0 198 -23 q64 -24 90 -65 q25 -47 25 -120 q0 -70 -10 -98 q-9 -34 -26 -34 l-119 24 q13 6 19 29 q7 25 7 79 q0 31 -9 52 q-13 26 -51 35 q-48 9 -124 9 q-151 0 -292 -25 q-125 -35 -150 -35 q-5 0 -6 1 l0 -101 q0 -64 -35 -64 l-118 0 q24 11 24 55 l0 213 q0 49 -24 67 l105 0 ZM504 507 q147 0 225 9 q22 3 44 22 l0 -100 q0 -29 -18 -37 q-27 -10 -171 -12 q4 -28 8 -85 q48 -4 107 -4 q105 0 159 9 q15 3 33 22 l0 -100 q0 -29 -19 -37 q-22 -12 -173 -12 q-79 0 -107 2 q-3 -88 -7 -111 q145 -32 239 -43 q76 -11 111 -11 q16 0 30 20 l-18 -83 q-8 -53 -31 -53 q-59 0 -179 18 q-118 17 -233 44 q-165 40 -267 70 l-5 1 q-4 -14 -13 -41 l-14 -41 q-17 -43 -32 -43 q-10 0 -40 8 q-44 12 -86 20 q20 6 31 43 q34 102 70 241 q20 80 20 95 q2 9 -15 26 l114 -14 q30 -6 30 -32 q0 -12 -15 -77 l-15 -62 q116 -36 181 -53 q2 94 2 125 q0 61 -10 158 q-156 2 -191 10 q-19 10 -19 39 l0 98 q20 -17 57 -20 q108 -9 217 -9 Z" /><glyph glyph-name="" unicode="&#x8ba2;" d="M202 768 q22 0 91 -52 q25 -20 25 -36 q0 -11 -9 -23 l-66 -79 q4 8 4 11 q0 13 -34 36 q-79 53 -87 53 q-6 0 -15 -3 l61 74 q17 19 30 19 ZM309 42 q42 0 97 8 l-74 -88 q-23 -17 -92 -17 q-34 0 -58 19 q-14 17 -14 40 q0 57 9 166 q9 141 9 202 q0 22 -18 22 q-9 0 -22 -5 q-17 -7 -33 -7 q-22 0 -29 26 l-34 97 q27 -8 65 -8 q20 0 54 7 q56 7 60 7 q26 0 47 -9 q29 -23 29 -59 q0 -17 -8 -158 q-11 -148 -11 -220 q0 -10 6 -16 q3 -7 17 -7 ZM669 764 q151 0 229 9 q24 5 46 25 l0 -111 q0 -32 -20 -41 q-22 -9 -128 -12 q11 -93 11 -250 q0 -361 -38 -423 q-30 -54 -116 -54 q-54 0 -125 12 q-51 8 -60 33 q-28 44 -54 101 q36 -25 90 -34 q55 -7 106 -7 q34 0 46 38 q19 82 19 334 q0 179 -12 249 q-212 0 -253 11 q-20 11 -20 44 l0 108 q22 -20 57 -23 q111 -9 222 -9 Z" /><glyph glyph-name="" unicode="&#x4e22;" d="M432 634 q-206 -10 -328 -10 q-39 0 -39 36 l0 109 q14 -20 36 -20 q136 0 302 10 q194 6 362 24 q131 12 141 34 q32 -116 32 -125 q0 -18 -95 -27 q-130 -16 -280 -25 l0 -88 q175 0 272 9 q33 5 66 24 l0 -106 q0 -29 -19 -39 q-45 -12 -319 -12 l0 -81 q200 0 311 9 q37 3 74 23 l0 -108 q0 -31 -20 -40 q-31 -7 -167 -10 q-3 -6 -3 -10 q0 -19 59 -106 q0 -4 84 -124 q3 -11 29 -14 l-57 -25 q-56 -29 -68 -29 q-26 0 -65 57 l-12 -5 q-145 -31 -269 -44 q-119 -11 -141 -11 q-92 0 -146 42 q-40 36 -40 87 q0 24 14 63 q30 66 64 120 q-107 2 -140 7 q-20 10 -20 42 l0 106 q33 -18 95 -21 q142 -7 287 -9 l0 81 q-248 0 -318 10 q-19 10 -19 42 l0 103 q32 -19 85 -22 q126 -7 252 -9 l0 82 ZM675 75 q-33 57 -33 79 q0 18 70 54 l24 13 q-64 -2 -233 -2 l-122 0 q-7 -12 -21 -30 q-67 -98 -67 -120 q0 -38 75 -38 q101 0 225 23 q44 8 82 21 Z" /><glyph glyph-name="" unicode="&#x4e1c;" d="M501 682 q235 0 358 9 q34 3 72 22 l0 -100 q0 -29 -19 -37 q-54 -12 -411 -12 l-135 0 q-20 -48 -29 -72 q-25 -62 -25 -90 q0 -48 81 -48 q49 0 93 5 q-3 84 -13 124 q-6 32 -23 44 l119 0 q29 0 37 -44 q8 -46 11 -108 q128 19 223 50 l-28 -105 q-12 -22 -34 -28 q-93 -18 -159 -26 q0 -269 -37 -318 q-30 -41 -114 -41 q-37 0 -97 10 q-39 6 -47 28 q-26 52 -41 86 q27 -14 66 -17 q37 -4 77 -4 q32 0 44 27 q16 53 17 215 q-110 -10 -155 -10 q-37 0 -83 14 q-38 17 -56 51 q-15 30 -15 77 q0 58 19 128 q12 36 19 54 q-105 3 -133 8 q-19 10 -19 39 l0 98 q31 -17 91 -20 q71 -4 110 -5 q6 15 14 31 q31 62 31 70 q0 9 -16 22 l121 -24 q33 -7 33 -31 q0 -16 -26 -71 q26 -1 79 -1 ZM277 190 q25 -17 25 -33 q0 -19 -75 -157 q-26 -53 -45 -53 q-18 0 -130 59 q21 3 46 43 q85 155 85 172 q0 3 -7 20 l101 -51 ZM822 245 q-7 -15 -9 -26 q0 -16 44 -94 q0 -2 63 -112 q3 -10 28 -12 l-55 -26 q-56 -28 -67 -28 q-27 0 -80 106 q-46 83 -46 111 q0 16 69 52 l53 29 Z" /><glyph glyph-name="" unicode="&#x52a8;" d="M264 759 q90 0 136 9 q12 3 28 22 l0 -98 q0 -28 -19 -36 q-19 -12 -145 -12 q-123 0 -149 10 q-18 9 -18 38 l0 96 q11 -17 35 -20 q65 -9 132 -9 ZM260 524 q110 0 167 9 q15 5 33 24 l0 -105 q0 -31 -20 -40 q-22 -13 -171 -13 q-15 -50 -26 -83 q-17 -54 -42 -149 q-14 -50 -14 -77 q0 -32 62 -32 q36 0 69 11 l-6 30 q-26 130 -26 164 q0 17 45 27 l78 17 q-13 -9 -13 -22 q26 -173 59 -291 q1 -9 26 -18 l-73 -15 q-42 -10 -51 -10 q-7 0 -13 9 l-2 5 l-10 -4 q-58 -11 -76 -13 q-28 -3 -45 -3 q-35 0 -84 17 q-39 15 -58 56 q-10 23 -10 48 q0 42 16 123 q30 115 61 200 q2 5 4 13 q-47 1 -65 8 q-19 10 -19 42 l0 103 q16 -19 42 -22 q81 -9 162 -9 ZM799 -89 q-52 0 -91 7 q-18 5 -27 43 q-14 47 -29 87 q19 -13 49 -19 q27 -9 47 -9 q33 0 45 22 q19 38 19 269 q0 184 -22 222 q-17 25 -67 25 l-12 0 q-6 -70 -10 -105 q-18 -222 -82 -508 q-9 -33 -36 -33 q-4 0 -123 25 q24 8 36 66 q38 173 66 363 q11 78 19 169 q-27 -8 -37 -8 q-23 0 -41 37 q-23 37 -55 100 q24 -15 59 -15 q31 0 83 8 q3 62 3 117 q-3 20 -22 35 l119 -7 q30 -3 30 -37 q0 -29 -2 -91 q33 3 50 3 q51 0 85 -23 q48 -30 68 -80 q19 -55 19 -263 q0 -216 -13 -289 q-18 -67 -53 -90 q-30 -21 -75 -21 Z" /><glyph glyph-name="" unicode="&#x2f96;&#x8c46;" d="M504 779 q229 0 349 9 q33 4 69 23 l0 -105 q0 -31 -20 -39 q-52 -12 -398 -12 q-337 0 -406 10 q-20 9 -20 42 l0 102 q31 -18 89 -21 q168 -9 337 -9 ZM219 618 q47 0 51 -42 q53 4 179 19 q173 15 259 15 q49 0 79 -11 q42 -13 61 -37 q23 -21 23 -70 q0 -93 -4 -163 q18 7 31 15 l0 -96 q0 -30 -18 -36 q-15 -4 -60 -6 q15 -15 15 -28 q0 -14 -74 -121 l-3 -5 q53 1 114 5 q37 4 73 24 l0 -106 q0 -29 -19 -39 q-55 -12 -418 -12 q-341 0 -426 10 q-20 11 -20 42 l0 103 q37 -19 93 -22 q68 -4 101 -4 q-15 18 -31 47 q-41 62 -41 84 l-75 0 q26 12 26 58 l0 306 q0 52 -26 70 l110 0 ZM367 50 q47 -2 141 -2 q90 0 130 1 q-34 17 -52 27 q21 3 43 34 q27 40 59 92 q-40 -1 -134 -1 q-152 0 -236 3 q9 -15 21 -33 q0 -3 55 -82 q3 -13 28 -14 l-55 -25 ZM271 324 q2 -1 5 -1 q123 -8 278 -8 q128 0 178 2 q3 38 3 142 q0 31 -26 37 q-22 2 -63 2 q-30 0 -177 -10 q-149 -20 -181 -20 q-11 0 -17 7 l0 -151 Z" /><glyph glyph-name="" unicode="&#x90fd;" d="M824 810 q69 0 98 -23 q26 -24 26 -58 q0 -64 -61 -253 l-8 -22 q15 -6 25 -13 q33 -27 33 -108 q0 -139 -16 -254 q-12 -76 -35 -102 q-22 -22 -76 -22 q-62 0 -74 21 q-12 36 -20 54 l-5 -88 q-9 -30 -35 -30 l-110 0 q22 19 25 119 q2 232 2 306 q0 141 -10 364 q-6 93 -22 109 l107 0 q26 0 35 -19 q26 5 35 8 q39 11 86 11 ZM712 699 q3 -85 7 -250 q13 0 31 5 q10 27 21 61 q48 152 48 187 q0 13 -28 13 q-31 0 -67 -12 l-12 -4 ZM719 351 q0 -152 -2 -288 q29 -13 59 -13 q15 0 21 17 q16 56 16 253 q0 43 -34 45 q-24 0 -51 -12 q-4 -2 -9 -2 ZM207 785 q0 16 -16 32 l90 0 q48 0 51 -42 l0 -64 q47 1 77 6 q13 3 28 21 l0 -67 q42 59 42 77 l-2 21 l82 -69 q14 -14 14 -24 q0 -31 -60 -102 q-15 -21 -49 -61 q30 1 64 5 q21 3 42 21 l0 -96 q0 -28 -17 -36 q-30 -11 -189 -11 q-24 -27 -48 -51 l3 1 q54 17 78 17 q40 0 65 -11 q45 -13 63 -38 q23 -35 23 -100 q0 -92 -5 -172 q8 3 15 12 l0 -90 q0 -25 -17 -34 q-21 -9 -160 -9 q-66 0 -122 2 q-11 -13 -28 -13 l-111 0 q23 9 26 53 l1 134 q0 40 -3 85 q-14 -10 -22 -10 q-13 0 -28 21 l-66 77 q11 -4 22 -4 q12 0 35 23 q60 54 114 108 q-86 1 -116 8 q-18 9 -18 38 l0 94 q19 -16 53 -19 q50 -5 89 -5 l0 83 q-65 1 -85 8 q-18 9 -18 38 l0 94 q12 -16 36 -19 q37 -5 67 -5 l0 73 ZM274 32 q48 -4 107 -4 l35 0 q0 12 2 58 q-20 -1 -68 -1 q-56 0 -75 1 l-1 -54 ZM273 195 q39 -3 77 -3 q50 0 70 2 l0 20 q0 21 -16 37 q-19 13 -50 13 q-18 0 -47 -16 q-28 -24 -33 -24 q-3 0 -3 1 q0 -10 2 -30 ZM332 539 q30 33 50 60 q-21 -3 -50 -3 l0 -57 Z" /><glyph glyph-name="" unicode="&#x72ec;" d="M383 757 q21 -15 21 -25 q0 -15 -14 -40 q-28 -42 -56 -80 l6 -24 q31 -129 31 -290 q0 -232 -16 -310 q-6 -44 -33 -61 q-29 -16 -72 -16 q-76 0 -94 20 l-80 97 q111 -17 136 -17 q14 0 21 26 q5 18 6 169 q-13 -21 -30 -43 q-28 -40 -42 -40 q-20 0 -116 65 q20 0 53 46 q60 80 125 183 q1 1 2 4 l1 3 l-6 56 q-36 -40 -52 -40 q-22 0 -126 71 q26 0 64 44 q43 43 78 85 q-19 48 -41 82 q-38 53 -78 59 q112 28 121 28 q37 0 58 -24 q15 -15 28 -35 q17 28 17 37 q0 13 -3 22 l91 -52 ZM502 690 q21 0 30 -14 q66 7 71 8 l-1 25 q-6 86 -22 100 l99 0 q30 0 36 -29 l5 -82 l34 1 q49 0 83 -25 q43 -24 59 -72 q14 -44 14 -139 q0 -49 -6 -151 q-3 -27 -6 -45 q12 7 21 16 l0 -97 q0 -28 -19 -36 q-25 -11 -175 -11 l-2 -87 q18 1 40 5 q17 2 25 4 q-4 19 -4 28 q0 14 41 23 l71 17 q-11 -8 -11 -21 q18 -95 40 -155 q2 -8 23 -17 l-66 -14 q-37 -8 -47 -8 q-5 0 -10 5 q-5 7 -11 30 l-2 0 q-96 -20 -199 -27 q-132 -11 -187 -11 q-37 0 -37 34 l0 103 q14 -18 33 -18 q65 0 155 9 q8 0 28 2 q2 22 3 49 q0 34 1 50 q-42 0 -69 3 q-10 -22 -30 -22 l-104 0 q21 11 24 76 q2 146 2 193 q0 91 -10 231 q-6 57 -22 69 l102 0 ZM550 259 q30 -3 60 -3 l0 116 q0 98 -3 206 q-38 -7 -45 -7 q-11 0 -15 4 q4 -94 4 -158 l-1 -158 ZM724 592 q3 -90 3 -195 l0 -143 q30 0 44 1 q3 15 10 75 q10 102 10 133 q0 78 -20 109 q-17 18 -47 20 Z" /><glyph glyph-name="" unicode="&#x8bfb;" d="M188 764 q29 0 111 -54 q30 -21 30 -38 q0 -11 -10 -24 l-65 -79 q4 8 4 11 q0 14 -41 38 q-94 56 -105 56 q-4 0 -14 -2 l60 73 q19 19 30 19 ZM304 47 q50 0 117 8 l-83 -89 q-27 -16 -103 -16 q-34 0 -58 19 q-14 17 -14 39 q0 55 9 163 q9 137 9 196 q0 22 -18 22 q-8 0 -20 -7 q-16 -9 -30 -9 q-22 0 -29 25 l-34 97 q27 -8 65 -8 q21 0 52 10 q45 9 57 9 q26 0 47 -9 q29 -23 29 -59 q0 -18 -8 -154 q-11 -144 -11 -214 q0 -10 6 -16 q3 -7 17 -7 ZM667 809 q49 0 52 -43 l0 -29 q80 1 134 8 q18 3 39 19 l0 -91 q0 -26 -17 -34 q-23 -8 -156 -10 l0 -42 l16 0 q62 0 111 -13 q56 -16 79 -40 q17 -25 17 -76 q0 -27 -6 -81 q-9 -40 -18 -49 q-12 -13 -26 -13 l-119 4 q15 3 24 12 q6 9 15 55 q11 52 11 72 q0 20 -34 29 q-27 6 -83 6 q-55 0 -141 -14 l26 -22 q33 -37 38 -52 q0 -15 -14 -24 l-73 -53 q7 11 7 14 q-13 24 -44 54 q-26 26 -43 26 q32 30 56 47 l3 2 q1 1 2 1 q-73 -12 -82 -12 q-20 0 -32 24 q-18 28 -44 74 q11 -7 28 -7 q40 0 152 17 l45 7 l0 54 q-117 1 -151 8 q-16 9 -16 36 l0 89 q15 -14 49 -17 q53 -5 118 -7 l0 38 q0 18 -17 33 l94 0 ZM486 355 q5 0 36 -31 q31 -36 38 -57 q0 -14 -14 -23 l-24 -18 q22 -2 65 -2 q20 44 32 76 q40 109 40 136 q0 11 -12 26 l104 -30 q21 -7 21 -25 q0 -35 -33 -128 l-21 -55 q84 0 150 7 q24 3 45 21 l0 -94 q0 -27 -17 -35 q-22 -7 -132 -10 l5 -5 q46 -37 115 -78 q36 -24 41 -24 q12 0 25 4 q-53 -59 -53 -60 q-34 -40 -45 -40 q-16 0 -99 62 q-71 47 -71 65 q0 10 36 55 l16 20 l-66 0 l-25 -45 q-47 -78 -106 -130 q-31 -27 -49 -27 q-16 0 -113 85 q21 0 39 10 q55 36 99 95 q2 2 5 7 l4 6 q-99 1 -132 8 q-18 9 -18 37 l0 92 q20 -16 57 -19 q24 -2 37 -2 q-16 22 -28 35 q-22 30 -39 30 q27 24 54 45 q26 16 33 16 Z" /><glyph glyph-name="" unicode="&#x675c;" d="M246 700 q-6 93 -22 109 l107 0 q33 0 39 -31 l6 -102 q24 2 34 4 q15 5 30 24 l0 -106 q0 -29 -19 -39 q-9 -5 -41 -7 q2 -118 2 -189 l0 -36 l36 -29 q53 -43 60 -43 q11 0 27 4 q-38 -44 -58 -66 q-35 -44 -50 -44 q-5 0 -16 6 q-2 -174 -7 -214 q-9 -30 -35 -30 l-110 0 q22 19 25 119 q0 90 2 226 q-33 26 -47 40 q-11 -162 -23 -284 q-9 -90 -40 -90 q-8 0 -107 9 q22 22 30 110 q32 287 35 513 l-15 3 q-20 10 -20 42 l0 103 q16 -19 39 -22 q61 -8 139 -8 l-1 28 ZM234 477 q0 -19 17 -33 q1 -3 4 -4 q-1 53 -3 108 l-33 0 q0 -29 -2 -93 l17 22 ZM497 529 q45 -5 133 -7 l-8 184 q-6 82 -22 97 l108 0 q34 0 40 -31 q8 -87 11 -247 q69 3 110 11 q28 0 41 26 l0 -108 q0 -42 -46 -42 q-40 -9 -104 -12 q0 -239 -5 -334 q84 3 150 12 q29 0 42 27 l0 -111 q0 -43 -47 -43 q-75 -14 -205 -14 q-144 0 -227 8 q-47 3 -47 42 l0 107 q12 -23 56 -23 q51 -5 150 -7 q2 18 3 42 q2 208 2 274 l0 18 q-85 1 -144 8 q-46 1 -46 41 l0 104 q12 -22 55 -22 Z" /><glyph glyph-name="" unicode="&#x5ea6;" d="M603 569 q78 0 112 1 q-4 35 -24 50 l105 0 q46 0 49 -46 q12 0 32 2 q26 3 55 19 l0 -88 q0 -25 -17 -33 q-18 -5 -70 -6 l0 -98 q0 -65 -35 -65 l-119 0 q15 6 21 26 q-90 -14 -143 -17 q-52 -5 -99 -5 q-33 0 -74 16 q-32 13 -49 53 q-9 21 -9 45 q0 20 5 45 q-34 0 -58 4 q-16 9 -16 35 l0 86 q22 -14 69 -17 q11 -1 34 -1 q8 22 8 27 q0 9 -16 28 l114 -15 q32 -3 32 -32 q0 -4 -3 -13 q32 -1 96 -1 ZM716 465 q-34 -1 -113 -1 q-91 0 -127 1 q-4 -13 -4 -22 q0 -40 38 -40 q69 0 147 15 q31 4 59 12 l0 35 ZM476 741 q-4 8 -4 12 q0 25 35 37 l113 31 q-18 -15 -18 -27 q0 -8 17 -38 q3 -10 8 -16 q151 0 259 7 q29 3 63 19 l0 -88 q0 -25 -16 -33 q-46 -10 -364 -10 q-230 0 -314 4 q-6 -263 -43 -619 q-12 -110 -51 -110 q-8 0 -113 9 q29 28 38 133 q43 390 43 685 q0 24 -22 37 l111 -3 q24 -1 33 -23 q4 -1 13 -1 q105 -6 212 -6 ZM300 -87 q-26 0 -29 30 l-24 98 q9 -21 24 -21 q20 0 125 33 l36 12 q-75 27 -75 44 q0 18 22 56 q-24 -5 -33 -5 q-20 0 -32 25 q-29 48 -50 91 q31 -8 69 -8 q48 0 139 10 q151 14 268 14 q91 0 125 -17 q31 -20 31 -44 q0 -51 -73 -107 q-33 -26 -74 -49 l19 -6 q127 -37 154 -37 q13 0 26 16 l-23 -68 q-21 -68 -40 -68 q-22 0 -175 47 q-61 19 -119 42 l-54 -21 q-186 -67 -237 -67 ZM459 181 q69 -28 132 -51 q3 0 5 2 q106 55 106 65 q0 8 -15 8 q-105 0 -228 -24 Z" /><glyph glyph-name="" unicode="&#x7aef;" d="M162 670 q-3 6 -3 11 q-14 52 -14 70 q0 25 35 37 l113 31 q-19 -15 -19 -27 q0 -11 15 -70 q8 -37 13 -52 q41 1 68 6 q14 4 28 24 l0 -106 q0 -29 -19 -39 q-6 -4 -12 -4 l-5 -164 q-4 -84 -14 -223 q22 8 26 24 l36 -92 q6 -16 6 -27 q0 -18 -29 -30 q-60 -20 -228 -68 q-45 -10 -47 -10 q-22 0 -34 28 l-37 106 q13 -10 20 -10 q12 0 31 5 l12 3 q-3 40 -14 246 q-8 137 -10 213 q-2 0 -3 1 q-19 10 -19 42 l0 103 q13 -19 36 -22 q34 -4 68 -6 ZM235 128 q7 77 16 210 q6 113 9 206 l-68 0 l9 -159 q7 -151 16 -262 l18 5 ZM691 813 q46 0 49 -45 l0 -154 q3 0 9 2 q22 4 47 11 l0 86 q0 48 -24 64 l102 0 q45 0 48 -44 l0 -179 q0 -62 -34 -62 l-116 0 q13 5 20 25 q-75 -14 -132 -19 q-49 -5 -93 -5 q-35 0 -83 15 q-38 15 -56 55 q-11 21 -11 47 q0 18 7 52 q15 60 22 84 l7 25 q0 11 -15 27 l108 -14 q30 -3 30 -31 q0 -7 -12 -40 l-15 -53 q-5 -17 -5 -28 q0 -33 61 -33 l6 0 l0 148 q0 50 -24 66 l104 0 ZM682 467 q148 0 215 8 q21 3 43 22 l0 -97 q0 -28 -18 -36 q-30 -11 -206 -11 l-7 -27 q60 7 73 7 q48 0 82 -13 q48 -19 65 -44 q18 -30 18 -145 q0 -120 -9 -159 q-12 -37 -35 -50 q-20 -11 -49 -11 q-46 0 -79 5 q-14 3 -23 32 q-2 4 -2 6 l-67 0 q18 9 18 42 l0 231 l-1 8 q-11 -2 -29 -4 l0 -231 q0 -50 -27 -50 l-91 0 q18 9 18 42 l0 216 q-13 -3 -18 -3 q-8 0 -12 5 l1 -76 q0 -163 -6 -193 q-9 -26 -30 -26 l-96 0 q18 9 21 55 q2 106 2 141 q0 69 -8 168 q-6 42 -20 50 l94 0 q28 0 34 -28 q14 0 44 5 q8 21 15 48 q-121 0 -155 8 q-19 9 -19 38 l0 95 q18 -17 55 -20 q92 -8 209 -8 ZM801 -1 q14 1 21 8 q16 19 16 124 q0 81 -22 97 q-6 3 -15 6 l0 -235 Z" /><glyph glyph-name="" unicode="&#x65ad;" d="M291 33 q82 0 158 14 q49 7 91 26 l-49 -98 q-14 -25 -42 -26 q-142 -19 -207 -19 q-96 0 -139 31 q-51 36 -51 176 q0 267 14 450 q18 162 18 201 q0 9 -14 21 l85 0 q51 0 51 -30 q0 -7 -5 -54 q8 6 32 19 l38 20 q-4 -9 -6 -17 q0 -11 24 -65 q0 -3 28 -60 q-2 33 -4 97 q-3 76 -18 89 l88 0 q26 0 32 -25 q6 -85 8 -159 l4 8 q51 113 51 127 q0 2 -5 14 l70 -35 q18 -12 18 -24 q0 -13 -48 -114 q-18 -38 -30 -38 q-11 0 -59 26 q0 -38 1 -56 q60 0 96 6 q13 3 29 19 l0 -88 q0 -25 -17 -33 q-8 -4 -16 -4 q16 -158 38 -276 q34 334 34 588 q0 23 -20 35 l105 -3 q25 -2 32 -24 q72 18 145 44 q25 7 31 27 q49 -104 49 -119 q0 -14 -32 -25 q-90 -30 -187 -54 l-3 -1 q-2 -70 -4 -105 q39 -4 86 -4 q86 0 131 9 q14 5 26 24 l0 -106 q0 -29 -19 -39 q-10 -7 -51 -9 q8 -88 8 -197 q0 -212 -7 -258 q-9 -28 -32 -28 l-102 0 q20 12 23 73 q2 142 2 188 q0 99 -9 219 q-40 0 -64 3 q-14 -200 -32 -372 q-12 -110 -52 -110 q-8 0 -110 9 q30 27 40 134 l9 75 l-32 -6 q-28 -7 -39 -7 q-4 0 -8 10 q-6 21 -21 156 q-9 85 -13 143 l-14 0 q0 -265 -7 -325 q-7 -24 -28 -24 l-90 0 q16 13 19 97 q2 188 2 248 l0 4 q-13 0 -19 1 q-2 -22 -2 -35 q-11 -152 -20 -235 q-6 -38 -9 -38 q-7 0 -27 6 q-51 11 -58 13 q6 4 9 38 q13 106 24 212 q2 31 4 44 q-4 0 -8 2 q-17 9 -17 35 l0 86 q13 -14 37 -17 q42 -4 85 -6 q-2 36 -2 54 l-14 -6 q-38 -22 -49 -22 q-15 0 -45 73 q-9 20 -16 40 l-6 -48 q-14 -197 -14 -458 q0 -108 26 -117 q24 -15 91 -15 Z" /><glyph glyph-name="" unicode="&#x5bf9;" d="M343 756 q41 0 69 -27 q28 -28 28 -66 q0 -127 -65 -351 l-15 -43 q-12 -33 -14 -40 q55 -82 112 -153 q7 -10 32 -10 l-31 -29 q-49 -51 -70 -51 q-18 0 -59 56 q-20 26 -38 53 q-35 -77 -69 -136 q-28 -43 -55 -43 q-9 0 -36 10 q-39 19 -80 44 q38 3 107 151 q23 45 47 101 q-33 48 -66 102 q-84 120 -84 154 q0 14 38 43 q-1 0 55 43 q-3 -12 -3 -21 q0 -12 76 -127 q14 -24 37 -59 l16 52 q37 134 37 179 q0 44 -40 44 q-27 0 -69 -12 q-38 -13 -52 -13 q-28 0 -37 21 q-32 58 -62 104 q28 -8 76 -8 q22 0 86 13 q86 19 129 19 ZM725 675 q-3 44 -8 77 q-7 44 -24 61 l122 0 q30 0 39 -61 l6 -72 q18 0 44 4 q21 4 40 25 l0 -111 q0 -32 -20 -41 q-15 -7 -59 -8 l1 -94 q0 -412 -42 -483 q-34 -61 -129 -61 q-42 0 -100 11 q-41 9 -48 35 q-20 44 -43 104 q26 -30 68 -41 q45 -9 82 -9 q40 0 55 45 q22 97 22 399 l-1 90 l-23 0 q-184 0 -221 10 q-20 11 -20 44 l0 108 q19 -20 50 -23 q95 -9 191 -9 l18 0 ZM565 445 q12 0 67 -53 q56 -62 67 -95 q0 -16 -16 -29 l-88 -64 q8 10 8 17 q-19 42 -75 99 q-42 48 -72 48 q36 33 67 57 q31 20 42 20 Z" /><glyph glyph-name="" unicode="&#x591a;" d="M624 795 q68 0 108 -21 q45 -21 45 -60 q0 -56 -128 -148 q-19 -16 -32 -25 l68 -57 q14 -14 14 -23 q0 -22 -55 -65 q74 8 139 8 q67 0 109 -22 q45 -22 45 -65 q0 -55 -143 -145 q-167 -121 -362 -216 q-118 -54 -158 -54 q-34 0 -81 42 q-27 22 -52 51 q90 0 291 87 q-27 10 -71 37 q-35 17 -55 33 l-33 -20 q-42 -24 -56 -24 q-14 0 -31 23 l-73 84 q15 -3 25 -3 q13 0 38 14 q213 119 352 231 q71 57 75 73 q-139 -109 -280 -187 q-104 -55 -141 -55 q-36 0 -81 42 q-27 20 -53 51 q83 0 272 96 q-22 8 -66 35 q-28 15 -41 26 l-8 -5 q-43 -27 -59 -27 q-17 0 -30 14 l-70 80 l19 0 q28 2 153 91 q128 93 128 116 l0 15 l54 -50 q36 4 71 11 q75 12 153 12 ZM418 223 q99 -50 109 -50 q13 0 27 10 l-44 -65 q250 136 250 170 q0 19 -32 19 q-33 0 -99 -9 q-45 -6 -54 -6 q-21 0 -28 25 q-58 -46 -129 -94 ZM316 610 q77 -39 84 -39 q11 0 26 9 l-48 -71 q223 140 223 176 q0 19 -33 19 q-32 0 -110 -14 q-47 -10 -58 -10 l-4 -3 q-42 -39 -80 -67 Z" /></font>
</defs>
</svg>
